<?xml version="1.0" standalone="no"?>
<!DOCTYPE svg PUBLIC "-//W3C//DTD SVG 1.1//EN" "http://www.w3.org/Graphics/SVG/1.1/DTD/svg11.dtd" >
<svg xmlns="http://www.w3.org/2000/svg" xmlns:xlink="http://www.w3.org/1999/xlink" version="1.1">
<metadata>
Created by FontForge 20170731 at Wed Jan 24 17:27:59 2001
 By Aleksey,,,
FontShop by Sherlock
</metadata>
<defs>
<font id="TRArialBlack" horiz-adv-x="1366" >
  <font-face 
    font-family="TR Arial Black"
    font-weight="400"
    font-stretch="normal"
    units-per-em="2048"
    panose-1="2 11 10 4 2 1 2 2 2 4"
    ascent="1638"
    descent="-410"
    x-height="1062"
    cap-height="1466"
    bbox="-397 -628 3456 2254"
    underline-thickness="123"
    underline-position="-439"
    unicode-range="U+0020-F108"
  />
<missing-glyph horiz-adv-x="1024" 
d="M128 0v2254h768v-2254h-768zM256 128h512v1998h-512v-1998z" />
    <glyph glyph-name=".notdef" horiz-adv-x="1024" 
d="M128 0v2254h768v-2254h-768zM256 128h512v1998h-512v-1998z" />
    <glyph glyph-name=".null" horiz-adv-x="0" 
 />
    <glyph glyph-name="nonmarkingreturn" horiz-adv-x="683" 
 />
    <glyph glyph-name="space" unicode=" " horiz-adv-x="683" 
 />
    <glyph glyph-name="exclam" unicode="!" horiz-adv-x="682" 
d="M124 1466h435v-334l-84 -671h-269l-82 671v334zM139 359h406v-359h-406v359z" />
    <glyph glyph-name="quotedbl" unicode="&#x22;" horiz-adv-x="1024" 
d="M48 1466h406v-242l-64 -297h-276l-66 297v242zM569 1466h406v-242l-64 -297h-276l-66 297v242z" />
    <glyph glyph-name="numbersign" unicode="#" horiz-adv-x="1352" 
d="M253 604l52 253h-245v276h300l71 358h285l-73 -358h219l72 358h284l-70 -358h137v-276h-193l-51 -253h244v-276h-299l-71 -352h-285l70 352h-218l-72 -352h-283l73 352h-140v276h193zM537 604h219l52 253h-218z" />
    <glyph glyph-name="dollar" unicode="$" 
d="M1250 1121l-372 -59q-26 66 -46 92q-25 33 -79 62v-289q305 -81 406 -171q135 -120 135 -307q0 -213 -172 -352q-139 -112 -369 -121v-189h-146v189q-266 24 -396 143q-123 112 -157 302l404 47q17 -91 43 -133q31 -52 106 -88v353q-184 51 -240 76q-126 55 -193 153
q-62 90 -62 220q0 205 150 319q131 100 345 111v99h146v-99q422 -26 497 -358zM607 1221q-114 -37 -114 -125q0 -91 114 -131v256zM753 237q164 37 164 160q0 103 -164 160v-320z" />
    <glyph glyph-name="percent" unicode="%" horiz-adv-x="2048" 
d="M1344 1491h211l-847 -1566h-209zM99 1106q0 238 181 336q91 49 216 49q180 0 288 -103t108 -282q0 -180 -107.5 -283t-288.5 -103q-260 0 -352 191q-45 92 -45 195zM380 1104q0 -217 116 -217q49 0 75 37q40 57 40 180t-40 180q-25 36 -75 36q-116 0 -116 -216zM1156 313
q0 238 180 336q92 50 216 50q181 0 289 -103t108 -283t-108 -283t-289 -103q-260 0 -352 192q-44 91 -44 194zM1437 311q0 -123 40 -180q25 -36 75 -36q116 0 116 216q0 217 -116 217q-49 0 -75 -37q-40 -57 -40 -180z" />
    <glyph glyph-name="ampersand" unicode="&#x26;" horiz-adv-x="1821" 
d="M1307 713l318 -71q-40 -141 -113 -266l153 -105q18 -12 72 -43l-219 -252q-80 49 -240 146q-106 -70 -212 -102q-146 -44 -334 -44q-234 0 -389 90q-190 110 -190 328q0 280 359 425q-140 170 -140 314q0 188 153 281q127 77 327 77q190 0 317 -67q162 -85 162 -259
q0 -152 -121 -256q-50 -43 -179 -128q107 -107 223 -199q31 62 53 131zM839 970q165 90 165 189q0 54 -42 84q-37 28 -93 28t-96 -32q-44 -34 -44 -89q0 -62 110 -180zM694 614q-139 -98 -139 -190q0 -85 73 -138q66 -49 154 -49q109 0 245 85q-130 100 -333 292z" />
    <glyph glyph-name="quotesingle" unicode="'" horiz-adv-x="569" 
d="M85 1466h406v-242l-64 -297h-276l-66 297v242z" />
    <glyph glyph-name="parenleft" unicode="(" horiz-adv-x="797" 
d="M463 1491h254q-131 -291 -189 -536q-49 -208 -49 -446q0 -457 238 -940h-254q-176 249 -256 454q-95 243 -95 510q0 488 351 958z" />
    <glyph glyph-name="parenright" unicode=")" horiz-adv-x="797" 
d="M334 1491h-254q131 -291 189 -536q49 -208 49 -446q0 -457 -238 -940h254q175 249 256 454q95 243 95 510q0 488 -351 958z" />
    <glyph glyph-name="asterisk" unicode="*" horiz-adv-x="1139" 
d="M453 1491h221l-18 -151q-7 -59 -25 -125q38 20 114 59l139 66l69 -211l-154 -32q-38 -8 -125 -11q56 -44 89 -80l104 -113l-180 -135l-74 135q-16 30 -52 113q-35 -82 -52 -113l-75 -135l-185 135l112 113q45 46 92 80q-20 2 -121 18l-155 25l72 211l139 -63
q22 -10 109 -62q-18 79 -24 125z" />
    <glyph glyph-name="plus" unicode="+" horiz-adv-x="1352" 
d="M127 894h383v385h323v-385h385v-324h-385v-383h-323v383h-383v324z" />
    <glyph glyph-name="comma" unicode="," horiz-adv-x="682" 
d="M124 404h435v-335q0 -188 -83 -300q-76 -101 -257 -181l-95 178q96 45 141 88q61 59 67 146h-208v404z" />
    <glyph glyph-name="hyphen" unicode="-" horiz-adv-x="682" 
d="M45 692h592v-315h-592v315z" />
    <glyph glyph-name="hyphen" unicode="&#x2010;" horiz-adv-x="682" 
d="M45 692h592v-315h-592v315z" />
    <glyph glyph-name="period" unicode="." horiz-adv-x="682" 
d="M124 408h435v-408h-435v408z" />
    <glyph glyph-name="slash" unicode="/" horiz-adv-x="569" 
d="M367 1491h208l-368 -1515h-206z" />
    <glyph glyph-name="zero" unicode="0" 
d="M84 739q0 368 119 542q143 210 490 210q263 0 398 -131q108 -106 149.5 -272.5t41.5 -343.5q0 -374 -112 -550q-139 -219 -488 -219q-336 0 -486 232q-112 173 -112 532zM488 738q0 -196 21 -291q42 -194 172 -194q133 0 175 181q21 94 21 293q0 208 -19 297
q-43 196 -179 196q-133 0 -173 -191q-18 -86 -18 -291z" />
    <glyph glyph-name="one" unicode="1" 
d="M1007 1491v-1491h-412v977q-181 -138 -428 -213v334q375 121 503 393h337z" />
    <glyph glyph-name="two" unicode="2" 
d="M1276 0h-1222q26 224 183 412q108 130 344 305q128 95 175 142q104 103 104 191q0 71 -51 116.5t-123 45.5q-164 0 -194 -222l-408 33q44 317 269 417q116 51 322 51q180 0 290 -34q152 -46 233 -165q68 -102 68 -228q0 -162 -114 -304q-82 -103 -250 -220
q-96 -67 -136 -98q-66 -51 -126 -110h636v-332z" />
    <glyph glyph-name="three" unicode="3" 
d="M479 1042l-385 69q99 380 571 380q225 0 364 -75q179 -95 179 -301q0 -192 -209 -307q85 -21 130 -49q154 -95 154 -294q0 -135 -70 -250.5t-190 -175.5q-126 -64 -331 -64q-354 0 -505 185q-75 90 -115 227l407 54q43 -218 203 -218q90 0 142 67q49 61 49 153
q0 97 -48 154q-52 60 -147 60q-48 0 -132 -24l21 291q34 -5 53 -5q76 0 131.5 48.5t55.5 123.5q0 147 -150 147q-149 0 -178 -196z" />
    <glyph glyph-name="four" unicode="4" 
d="M784 274h-742v335l742 882h355v-901h184v-316h-184v-274h-355v274zM784 590v461l-392 -461h392z" />
    <glyph glyph-name="five" unicode="5" 
d="M249 1466h967v-325h-655l-35 -220q136 64 266 64q213 0 351 -127q143 -130 143 -341q0 -147 -71 -274q-73 -132 -199 -199q-130 -69 -332 -69q-279 0 -424 110q-137 102 -193 295l412 45q31 -202 201 -202q101 0 153 81q43 69 43 176q0 253 -205 253q-58 0 -114 -29
q-42 -22 -90 -76l-347 50z" />
    <glyph glyph-name="six" unicode="6" 
d="M1263 1136l-405 -50q-29 155 -146 155q-99 0 -154 -100q-40 -72 -59 -308q143 145 328 145q205 0 338 -146q129 -142 129 -349q0 -143 -66 -261q-69 -123 -191.5 -185t-305.5 -62q-207 0 -336 66q-145 75 -229 249q-80 164 -80 435q0 766 630 766q308 0 445 -159
q67 -78 102 -196zM513 483q0 -104 50 -175q57 -79 157 -79q96 0 146 77q42 65 42 166q0 104 -44 173q-52 81 -151 81q-98 0 -152 -75q-48 -66 -48 -168z" />
    <glyph glyph-name="seven" unicode="7" 
d="M91 1466h1189v-275q-320 -289 -458 -744q-58 -192 -78 -447h-406q47 355 151 600.5t326 521.5h-724v344z" />
    <glyph glyph-name="eight" unicode="8" 
d="M329 788q-96 51 -140 114q-60 86 -60 198q0 185 173 301q134 90 357 90q233 0 383 -80q192 -101 192 -314q0 -184 -188 -309q236 -113 236 -359q0 -102 -46 -197q-48 -99 -128 -156q-143 -101 -417 -101q-189 0 -305 36q-160 51 -238 181q-64 107 -64 239q0 261 245 357z
M512 1076q0 -78 48 -123.5t126 -45.5q72 0 116 46.5t44 118.5q0 75 -46 123t-121 48q-74 0 -120.5 -46.5t-46.5 -120.5zM490 445q0 -87 52 -151q57 -69 142 -69q83 0 138 71q51 65 51 150q0 88 -52 152q-56 69 -142 69q-87 0 -140 -69q-49 -63 -49 -153z" />
    <glyph glyph-name="nine" unicode="9" 
d="M102 329l405 51q29 -155 147 -155q98 0 153 99q40 72 60 309q-141 -145 -328 -145q-205 0 -339 145q-129 142 -129 349q0 143 66 261q69 124 193 187q121 61 304 61q207 0 336 -67q145 -74 230 -248q79 -165 79 -435q0 -766 -630 -766q-307 0 -444 159q-67 78 -103 195z
M852 983q0 103 -50 174q-57 80 -156 80q-97 0 -146 -77q-42 -65 -42 -167q0 -104 44 -172q52 -81 150 -81q99 0 152 75q48 66 48 168z" />
    <glyph glyph-name="colon" unicode=":" horiz-adv-x="682" 
d="M124 1062h435v-408h-435v408zM124 408h435v-408h-435v408z" />
    <glyph glyph-name="semicolon" unicode=";" horiz-adv-x="682" 
d="M124 1062h435v-408h-435v408zM124 404h435v-335q0 -188 -83 -300q-76 -101 -257 -181l-95 178q96 45 141 88q61 59 67 146h-208v404z" />
    <glyph glyph-name="less" unicode="&#x3c;" horiz-adv-x="1352" 
d="M1244 112l-1137 473v296l1137 472v-355l-691 -266l691 -267v-353z" />
    <glyph glyph-name="equal" unicode="=" horiz-adv-x="1352" 
d="M126 1141h1092v-325h-1092v325zM126 649h1092v-324h-1092v324z" />
    <glyph glyph-name="greater" unicode="&#x3e;" horiz-adv-x="1352" 
d="M108 112l1137 473v296l-1137 472v-355l691 -266l-691 -267v-353z" />
    <glyph glyph-name="question" unicode="?" horiz-adv-x="1251" 
d="M785 460h-380v38q0 167 88 268q45 53 195 176q81 67 81 121q0 116 -131 116q-154 0 -177 -211l-388 48q44 475 571 475q218 0 352 -91q182 -123 182 -328q0 -108 -76 -204q-49 -63 -163 -153q-86 -68 -114 -108q-40 -58 -40 -147zM392 359h407v-359h-407v359z" />
    <glyph glyph-name="at" unicode="@" horiz-adv-x="1516" 
d="M1156 1148l-125 -791q-4 -25 -4 -35q0 -38 40 -38q46 0 104 41q197 138 197 448q0 261 -149 415.5t-409 154.5q-191 0 -343 -90q-155 -92 -238 -262t-83 -377q0 -307 170 -499q177 -200 480 -200q279 0 518 187h205q-82 -97 -156 -152q-246 -183 -563 -183
q-229 0 -411 105q-187 107 -291 306t-104 437q0 235 98 436q105 216 295 332q178 109 422 109q317 0 513.5 -199.5t196.5 -517.5q0 -406 -303 -591q-115 -70 -216 -70q-119 0 -154 117q-122 -118 -241 -118q-161 0 -250 140q-75 118 -75 289q0 220 103 411q124 230 325 230
q136 0 235 -148l18 113h195zM490 493q0 -88 30 -151q40 -83 118 -83q142 0 207 272q39 163 39 293q0 78 -31 132q-38 66 -111 66q-155 0 -217 -262q-35 -146 -35 -267z" />
    <glyph glyph-name="A" unicode="A" horiz-adv-x="1593" 
d="M1052 242h-516l-71 -242h-463l551 1466h494l551 -1466h-474zM957 559l-162 527l-161 -527h323z" />
    <glyph glyph-name="B" unicode="B" horiz-adv-x="1593" 
d="M151 1466h848q185 0 305 -88q134 -98 134 -277q0 -130 -81 -223q-54 -62 -158 -98q307 -74 307 -363q0 -235 -198 -349q-57 -33 -172 -48q-153 -20 -203 -20h-782v1466zM608 891h197q189 0 189 142q0 136 -186 136h-200v-278zM608 315h231q213 0 213 153q0 144 -214 144
h-230v-297z" />
    <glyph glyph-name="C" unicode="C" horiz-adv-x="1593" 
d="M1126 599l397 -120q-79 -332 -339 -448q-128 -57 -325 -57q-231 0 -374 63q-165 72 -278 251q-110 175 -110 448q0 360 191 557.5t550 197.5q263 0 422 -103q168 -110 249 -353l-400 -89q-21 66 -44 98q-79 108 -216 108q-153 0 -236 -124q-62 -93 -62 -289
q0 -192 47 -289q66 -136 235 -136q231 0 293 285z" />
    <glyph glyph-name="D" unicode="D" horiz-adv-x="1593" 
d="M156 1466h673q358 0 524 -209q152 -192 152 -519q0 -191 -37 -315q-47 -158 -165 -266q-95 -88 -204 -117q-150 -40 -270 -40h-673v1466zM609 1134v-801h111q120 0 176 21q81 30 120 121q34 78 34 254q0 208 -60 296q-73 109 -268 109h-113z" />
    <glyph glyph-name="E" unicode="E" horiz-adv-x="1479" 
d="M149 1466h1214v-313h-760v-233h705v-299h-705v-289h782v-332h-1236v1466z" />
    <glyph glyph-name="F" unicode="F" 
d="M152 1466h1120v-315h-665v-256h568v-296h-568v-599h-455v1466z" />
    <glyph glyph-name="G" unicode="G" horiz-adv-x="1706" 
d="M887 531v305h700v-625q-191 -130 -341 -181q-162 -55 -381 -55q-498 0 -680 354q-91 176 -91 404q0 501 389 687q148 71 401 71q196 0 305 -27q161 -40 259 -153q79 -93 119 -235l-437 -78q-56 171 -256 171q-326 0 -326 -431q0 -442 339 -442q140 0 303 97v138h-303z
" />
    <glyph glyph-name="H" unicode="H" horiz-adv-x="1706" 
d="M152 1466h453v-513h495v513h455v-1466h-455v593h-495v-593h-453v1466z" />
    <glyph glyph-name="I" unicode="I" horiz-adv-x="797" 
d="M168 1466h454v-1466h-454v1466z" />
    <glyph glyph-name="J" unicode="J" 
d="M760 1466h454v-797q0 -228 -31 -337q-47 -169 -192 -267q-135 -91 -345 -91q-397 0 -532 236q-67 115 -79 285l433 59q2 -168 71 -220q25 -19 74 -19q147 0 147 247v904z" />
    <glyph glyph-name="K" unicode="K" horiz-adv-x="1706" 
d="M152 1466h453v-554l475 554h602l-534 -553l558 -913h-558l-309 603l-234 -245v-358h-453v1466z" />
    <glyph glyph-name="L" unicode="L" 
d="M150 1466h453v-1105h707v-361h-1160v1466z" />
    <glyph glyph-name="M" unicode="M" horiz-adv-x="1933" 
d="M145 1466h596l230 -892l229 892h594v-1466h-370v1118l-287 -1118h-335l-286 1118v-1118h-371v1466z" />
    <glyph glyph-name="N" unicode="N" horiz-adv-x="1706" 
d="M153 1466h423l552 -811v811h427v-1466h-427l-549 805v-805h-426v1466z" />
    <glyph glyph-name="O" unicode="O" horiz-adv-x="1706" 
d="M93 732q0 359 199 559t558 200q361 0 560 -192q202 -195 202 -555q0 -489 -336 -677q-164 -92 -408 -92q-480 0 -674 329q-101 171 -101 428zM546 730q0 -416 307 -416q180 0 252 136q54 101 54 300q0 398 -310 398q-303 0 -303 -418z" />
    <glyph glyph-name="P" unicode="P" horiz-adv-x="1479" 
d="M148 1466h753q491 0 491 -450q0 -472 -541 -472h-248v-544h-455v1466zM603 841h111q237 0 237 162q0 165 -219 165h-129v-327z" />
    <glyph glyph-name="Q" unicode="Q" horiz-adv-x="1706" 
d="M1452 214q87 -60 111 -74q37 -21 105 -51l-126 -254q-184 89 -318 205q-150 -65 -376 -65q-334 0 -527 174q-228 206 -228 579q0 361 198.5 562t558.5 201q366 0 564 -196t198 -561q0 -325 -160 -520zM1105 446q54 97 54 290q0 412 -310 412q-161 0 -239 -125
q-64 -103 -64 -275q0 -434 307 -434q46 0 87 9q-57 55 -180 104l71 163q67 -12 118 -40q23 -13 106 -71q22 -15 50 -33z" />
    <glyph glyph-name="R" unicode="R" horiz-adv-x="1593" 
d="M156 0v1466h755q182 0 275 -23q149 -37 225 -146q68 -98 68 -238q0 -236 -195 -354q-58 -35 -159 -58q81 -27 118 -54q27 -20 73 -77.5t63 -90.5l219 -425h-512l-242 448q-48 89 -82 113q-48 34 -111 34h-40v-595h-455zM611 872h191q28 0 120 20q102 22 102 131
q0 147 -214 147h-199v-298z" />
    <glyph glyph-name="S" unicode="S" horiz-adv-x="1479" 
d="M71 485l431 27q14 -105 57 -160q70 -89 200 -89q79 0 135 35q67 42 67 116q0 85 -105 135q-51 24 -177 52q-243 54 -369 137q-184 120 -184 324q0 125 74 225q69 94 189 147q131 57 360 57q262 0 405 -89q169 -105 199 -348l-427 -25q-32 189 -222 189q-159 0 -159 -115
q0 -78 185 -117q228 -49 337 -91q201 -77 276 -201q58 -97 58 -217q0 -146 -80 -263.5t-216 -176.5q-140 -62 -353 -62q-302 0 -465 104q-192 124 -216 406z" />
    <glyph glyph-name="T" unicode="T" horiz-adv-x="1479" 
d="M47 1466h1377v-362h-462v-1104h-453v1104h-462v362z" />
    <glyph glyph-name="U" unicode="U" horiz-adv-x="1706" 
d="M1104 1466h452v-874q0 -280 -167 -447q-87 -87 -182 -122q-132 -49 -317 -49q-303 0 -445 75q-85 44 -155 125t-97 170q-42 140 -42 248v874h452v-895q0 -119 66 -187t185 -68t184.5 67.5t65.5 187.5v895z" />
    <glyph glyph-name="V" unicode="V" horiz-adv-x="1593" 
d="M5 1466h474l330 -1055l325 1055h460l-544 -1466h-491z" />
    <glyph glyph-name="W" unicode="W" horiz-adv-x="2048" 
d="M-1 1466h430l155 -819l226 819h429l227 -819l155 819h428l-323 -1466h-444l-257 923l-256 -923h-444z" />
    <glyph glyph-name="X" unicode="X" horiz-adv-x="1593" 
d="M49 1466h499l260 -451l252 451h494l-456 -710l499 -756h-509l-289 471l-290 -471h-506l506 764z" />
    <glyph glyph-name="Y" unicode="Y" horiz-adv-x="1593" 
d="M2 1466h503l296 -495l296 495h500l-570 -852v-614h-454v614z" />
    <glyph glyph-name="Z" unicode="Z" horiz-adv-x="1479" 
d="M113 1466h1282v-293l-822 -858h852v-315h-1391v304l813 849h-734v313z" />
    <glyph glyph-name="bracketleft" unicode="[" horiz-adv-x="797" 
d="M135 1466h615v-316h-243v-1241h243v-316h-615v1873z" />
    <glyph glyph-name="backslash" unicode="\" horiz-adv-x="569" 
d="M202 1491h-208l368 -1515h206z" />
    <glyph glyph-name="bracketright" unicode="]" horiz-adv-x="797" 
d="M662 1466h-615v-316h243v-1241h-243v-316h615v1873z" />
    <glyph glyph-name="asciicircum" unicode="^" horiz-adv-x="1352" 
d="M533 1491h279l408 -813h-353l-193 491l-195 -491h-354z" />
    <glyph glyph-name="underscore" unicode="_" horiz-adv-x="1024" 
d="M-12 -154h1048v-102h-1048v102z" />
    <glyph glyph-name="grave" unicode="`" horiz-adv-x="682" 
d="M1 1491h347l164 -298h-192z" />
    <glyph glyph-name="a" unicode="a" 
d="M494 718l-389 41q39 183 183 262q118 65 366 65q169 0 251 -13q147 -22 228 -93q52 -46 84 -131q28 -78 28 -154v-469q0 -121 51 -226h-382q-33 59 -44 130q-81 -78 -159 -110q-107 -44 -251 -44q-161 0 -265 70q-122 82 -122 235q0 145 98 223q76 60 235 92
q169 34 223 47q125 29 218 66q0 76 -31.5 105.5t-108.5 29.5q-100 0 -150 -32q-39 -25 -63 -94zM847 504q-77 -27 -175 -53q-86 -23 -122 -42q-69 -37 -69 -98q0 -109 132 -109q62 0 120 29q63 32 90 85q24 47 24 123v65z" />
    <glyph glyph-name="b" unicode="b" 
d="M125 1466h411v-508q122 128 310 128q221 0 341 -164q107 -146 107 -376q0 -365 -218 -504q-103 -66 -228 -66q-108 0 -196 46q-66 35 -146 135v-157h-381v1466zM533 534q0 -260 182 -260q172 0 172 264q0 97 -34 162q-43 82 -132 82q-188 0 -188 -248z" />
    <glyph glyph-name="c" unicode="c" 
d="M915 415l387 -44q-66 -250 -291 -347q-114 -49 -289 -49q-322 0 -475 134q-173 150 -173 417q0 266 168 417q71 63 146 94q119 49 305 49q229 0 366 -75q160 -88 222 -290l-383 -51q-36 137 -193 137q-118 0 -177 -91q-49 -76 -49 -201q0 -115 52 -186q58 -81 168 -81
q163 0 216 167z" />
    <glyph glyph-name="d" unicode="d" 
d="M1241 1466v-1466h-381v157q-80 -100 -146 -135q-87 -46 -196 -46q-222 0 -342 179q-104 154 -104 387q0 232 106 378q119 166 342 166q190 0 310 -128v508h411zM833 534q0 104 -41 169q-49 79 -146 79q-167 0 -167 -257q0 -251 172 -251q182 0 182 260z" />
    <glyph glyph-name="e" unicode="e" 
d="M1302 430h-816q11 -97 53 -146q60 -69 154 -69q61 0 114 30q32 18 71 67l401 -37q-100 -175 -248 -242q-127 -57 -347 -57q-189 0 -305 48q-140 57 -227 201q-80 129 -80 304q0 263 170 414q163 143 430 143q419 0 561 -269q69 -131 69 -341v-46zM888 625
q-22 220 -199 220q-96 0 -155 -77q-37 -49 -47 -143h401z" />
    <glyph glyph-name="f" unicode="f" horiz-adv-x="797" 
d="M576 1062h194v-298h-194v-764h-408v764h-152v298h152v48q0 185 67 271q85 110 311 110q107 0 311 -25l-45 -246q-73 12 -118 12q-94 0 -113 -77q-5 -21 -5 -93z" />
    <glyph glyph-name="g" unicode="g" 
d="M862 1062h381l1 -1050q2 -96 -42 -191q-85 -179 -292 -227q-109 -25 -249 -25q-243 0 -372 58q-187 84 -187 295q0 20 2 54l395 -45q15 -55 46 -76q45 -31 113 -31q175 0 175 211v161q-60 -71 -120 -103q-94 -50 -203 -50q-213 0 -344 186q-93 132 -93 349q0 223 103 358
q115 150 331 150q121 0 202.5 -41.5t152.5 -139.5v157zM479 547q0 -226 178 -226q91 0 139 73q40 61 40 158q0 98 -43 163q-50 76 -143 76q-171 0 -171 -244z" />
    <glyph glyph-name="h" unicode="h" 
d="M123 1466h407v-540q154 160 359 160q357 0 357 -411v-675h-409v584q0 183 -141 183q-166 0 -166 -257v-510h-407v1466z" />
    <glyph glyph-name="i" unicode="i" horiz-adv-x="682" 
d="M138 1466h407v-277h-407v277zM138 1062h407v-1062h-407v1062z" />
    <glyph glyph-name="j" unicode="j" horiz-adv-x="682" 
d="M139 1466h408v-280h-408v280zM139 1062h408v-1030q0 -161 -15 -228q-27 -123 -119 -184q-77 -51 -220 -51q-118 0 -293 35l61 296q49 -10 72 -10q106 0 106 177v995z" />
    <glyph glyph-name="k" unicode="k" 
d="M123 1466h416v-756l304 352h501l-381 -372l403 -690h-459l-215 426l-153 -150v-276h-416v1466z" />
    <glyph glyph-name="l" unicode="l" horiz-adv-x="682" 
d="M137 1466h408v-1466h-408v1466z" />
    <glyph glyph-name="m" unicode="m" horiz-adv-x="2048" 
d="M126 1062h380v-155q151 179 367 179q227 0 322 -179q90 97 164 135q84 44 206 44q363 0 363 -419v-667h-408v605q0 70 -28 107q-42 55 -102 55q-160 0 -160 -219v-548h-408v585q0 70 -8 95q-29 89 -120 89q-160 0 -160 -227v-542h-408v1062z" />
    <glyph glyph-name="n" unicode="n" 
d="M123 1062h379v-173q83 104 167 149q91 48 217 48q360 0 360 -411v-675h-409v584q0 183 -141 183q-166 0 -166 -257v-510h-407v1062z" />
    <glyph glyph-name="o" unicode="o" 
d="M73 528q0 259 176 412q168 146 431 146q319 0 482 -185q131 -149 131 -367q0 -264 -177 -415q-167 -143 -435 -143q-257 0 -414 130q-194 160 -194 422zM481 529q0 -115 43 -188q52 -90 159 -90q201 0 201 282q0 111 -42 184q-52 89 -156 89q-108 0 -161 -89
q-44 -73 -44 -188z" />
    <glyph glyph-name="p" unicode="p" 
d="M125 -404v1466h381v-157q79 99 145 134q89 47 197 47q221 0 342 -179q104 -155 104 -387t-106 -378q-119 -166 -342 -166q-187 0 -310 127v-507h-411zM533 528q0 -104 40 -169q49 -79 147 -79q167 0 167 257q0 100 -35 166q-45 84 -137 84q-182 0 -182 -259z" />
    <glyph glyph-name="q" unicode="q" 
d="M1241 -404h-411v507q-121 -127 -310 -127q-221 0 -341 164q-107 146 -107 375q0 366 219 506q103 65 227 65q108 0 197 -47q66 -34 145 -134v157h381v-1466zM833 528q0 259 -182 259q-172 0 -172 -263q0 -244 167 -244q187 0 187 248z" />
    <glyph glyph-name="r" unicode="r" horiz-adv-x="909" 
d="M127 1062h381v-174q48 99 98 143q63 55 160 55q90 0 197 -56l-126 -290q-72 30 -114 30q-187 0 -187 -414v-356h-409v1062z" />
    <glyph glyph-name="s" unicode="s" horiz-adv-x="1251" 
d="M51 294l404 38q47 -134 190 -134q59 0 104 21q58 27 58 79q0 44 -46 68q-33 17 -175 42q-187 33 -236 48q-133 41 -197 127q-57 75 -57 171q0 214 229 295q107 37 287 37q150 0 230 -17q126 -26 202 -102q60 -61 100 -165l-386 -38q-31 107 -166 107q-132 0 -132 -84
q0 -53 87 -76q27 -7 127 -19q166 -19 248 -45q142 -44 206 -136q52 -76 52 -167q0 -218 -230 -317q-120 -52 -326 -52q-231 0 -356 53q-173 74 -217 266z" />
    <glyph glyph-name="t" unicode="t" horiz-adv-x="909" 
d="M614 1466v-404h224v-297h-224v-377q0 -68 13 -90q20 -34 70 -34q45 0 126 26l30 -281q-151 -33 -282 -33q-125 0 -194 26q-95 36 -136 132q-35 79 -35 257v374h-150v297h150v195z" />
    <glyph glyph-name="u" unicode="u" 
d="M1242 0h-380v172q-83 -104 -167 -148q-90 -48 -217 -48q-359 0 -359 410v676h409v-584q0 -184 141 -184q166 0 166 257v511h407v-1062z" />
    <glyph glyph-name="v" unicode="v" horiz-adv-x="1251" 
d="M2 1062h424l206 -673l213 673h411l-451 -1062h-361z" />
    <glyph glyph-name="w" unicode="w" horiz-adv-x="1933" 
d="M3 1062h394l171 -669l216 669h367l224 -669l171 669h391l-391 -1062h-362l-215 639l-208 -639h-364z" />
    <glyph glyph-name="x" unicode="x" 
d="M31 1062h483l169 -296l196 296h449l-362 -506l388 -556h-475l-196 342l-231 -342h-441l386 556z" />
    <glyph glyph-name="y" unicode="y" horiz-adv-x="1251" 
d="M5 1062h430l219 -707l203 707h401l-421 -1135q-72 -194 -147 -262q-106 -96 -323 -96q-88 0 -272 24l-32 284q88 -28 196 -28q137 0 192 151z" />
    <glyph glyph-name="z" unicode="z" horiz-adv-x="1139" 
d="M77 1062h985v-238l-536 -546h569v-278h-1058v264l508 520h-468v278z" />
    <glyph glyph-name="braceleft" unicode="{" horiz-adv-x="797" 
d="M774 1491v-328h-45q-114 0 -139 -108q-13 -54 -13 -187q0 -122 -23 -189q-21 -60 -57 -95q-28 -27 -92 -55q67 -31 99.5 -65t55.5 -102t23 -218q0 -101 4 -127q11 -83 57 -107q32 -17 130 -17v-324h-126q-150 0 -228 24q-121 37 -166 142q-35 82 -35 245q0 20 1.5 58.5
t1.5 58.5q0 191 -81 236q-40 22 -115 24v343q135 0 174 98q20 49 20 167v34v23q-1 15 -1 23q0 287 111 377q85 69 309 69h135z" />
    <glyph glyph-name="bar" unicode="|" horiz-adv-x="569" 
d="M160 1466h255v-1870h-255v1870z" />
    <glyph glyph-name="braceright" unicode="}" horiz-adv-x="797" 
d="M23 1491v-328h45q114 0 139 -108q13 -54 13 -187q0 -122 23 -189q21 -60 57 -95q28 -27 92 -55q-67 -31 -99.5 -65t-55.5 -102t-23 -218q0 -101 -4 -127q-11 -83 -57 -107q-32 -17 -130 -17v-324h126q150 0 228 24q121 37 166 142q35 82 35 245q0 20 -1.5 58.5t-1.5 58.5
q0 191 81 236q40 22 115 24v343q-135 0 -174 98q-20 49 -20 167v34v23q1 15 1 23q0 287 -111 377q-85 69 -309 69h-135z" />
    <glyph glyph-name="asciitilde" unicode="~" horiz-adv-x="1352" 
d="M1246 972v-326q-192 -154 -333 -154q-108 0 -299 97q-125 63 -197 63q-154 0 -318 -160v329q171 153 351 153q93 0 262 -82q157 -77 231 -77q134 0 303 157z" />
    <glyph glyph-name="nonbreakingspace" unicode="&#xa0;" horiz-adv-x="683" 
 />
    <glyph glyph-name="exclamdown" unicode="&#xa1;" horiz-adv-x="682" 
d="M124 -404h435v334l-84 671h-269l-82 -671v-334zM139 703h406v359h-406v-359z" />
    <glyph glyph-name="cent" unicode="&#xa2;" 
d="M932 412l370 -41q-21 -99 -60 -158q-161 -245 -498 -245q-45 0 -179 8l-129 -366l-131 46l122 352q-175 55 -266 198q-87 134 -87 323q0 257 161 411t419 154q39 0 149 -8l129 360l129 -47l-120 -337q184 -58 276 -197q32 -48 65 -143l-364 -49q-21 70 -71 115l-194 -555
q36 -5 57 -5q170 0 222 184zM529 299l182 529q-13 1 -20 1q-123 0 -183 -106q-47 -84 -47 -217q0 -127 68 -207z" />
    <glyph glyph-name="sterling" unicode="&#xa3;" 
d="M676 845h303v-239h-268q-9 -156 -101 -261q56 13 96 13q49 0 133 -20q110 -26 179 -26q94 0 202 49l136 -298q-174 -88 -335 -88q-95 0 -215 33q-211 58 -279 58q-129 0 -285 -91l-129 284q210 151 210 302q0 8 -2 45h-208v239h149q-20 69 -43 153q-6 29 -6 79
q0 122 65 222.5t177 146.5q108 45 292 45q152 0 244 -29q121 -38 199 -137q69 -90 95 -217l-382 -60q-48 177 -152 177q-130 0 -130 -146q0 -62 55 -234z" />
    <glyph glyph-name="currency" unicode="&#xa4;" horiz-adv-x="1352" 
d="M305 1147l144 -142q112 57 222 57q111 0 223 -57l140 142l211 -209l-141 -143q52 -108 52 -218q0 -108 -52 -224l141 -140l-211 -213l-140 143q-122 -54 -226 -54q-105 0 -219 54l-137 -143l-214 213l141 140q-54 104 -54 216q0 114 54 226l-141 143zM863 574
q0 81 -55.5 136.5t-136.5 55.5q-80 0 -135.5 -56t-55.5 -136t55.5 -135.5t135.5 -55.5t136 55.5t56 135.5z" />
    <glyph glyph-name="yen" unicode="&#xa5;" 
d="M-2 1466h457l229 -498l226 498h458l-349 -632h297v-221h-421v-121h421v-224h-421v-268h-416v268h-428v224h428v121h-428v221h306z" />
    <glyph glyph-name="brokenbar" unicode="&#xa6;" horiz-adv-x="569" 
d="M160 1466h255v-776h-255v776zM160 373h255v-777h-255v777z" />
    <glyph glyph-name="section" unicode="&#xa7;" 
d="M1211 1159l-382 -44q-35 105 -142 105q-129 0 -129 -92q0 -34 28 -60q50 -46 234 -113q223 -81 312 -145q156 -112 156 -286q0 -166 -165 -308q104 -114 104 -252q0 -235 -222 -341q-115 -54 -309 -54q-246 0 -379 79q-114 67 -164 178q-20 45 -36 121l376 39
q70 -141 195 -141q138 0 138 111q0 40 -41 81q-64 63 -314 160q-240 93 -323 190t-83 206q0 168 197 307q-97 107 -97 231q0 175 146 272q65 43 132 62q91 26 234 26q153 0 239 -21q127 -31 201 -120q60 -72 94 -191zM446 764q-52 -69 -52 -111q0 -26 17 -45q29 -33 138 -82
l385 -173q45 68 45 109q0 33 -27 59q-40 39 -235 122q-235 101 -271 121z" />
    <glyph glyph-name="dieresis" unicode="&#xa8;" horiz-adv-x="682" 
d="M-2 1446h260v-250h-260v250zM422 1446h263v-250h-263v250z" />
    <glyph glyph-name="copyright" unicode="&#xa9;" horiz-adv-x="1638" 
d="M1585 728q0 -205 -102 -382t-279.5 -279t-382.5 -102t-381.5 102t-279 279t-102.5 382t102.5 382t279.5 279t381 102q206 0 382.5 -102t279 -279.5t102.5 -381.5zM1437 728q0 257 -179.5 436.5t-436.5 179.5t-436.5 -179.5t-179.5 -436.5t179.5 -436.5t436.5 -179.5
t436.5 179.5t179.5 436.5zM999 634l206 -49q-38 -121 -105 -186q-105 -101 -274 -101q-189 0 -304 122q-112 119 -112 310q0 183 117 304.5t300 121.5q137 0 236 -71q105 -75 133 -205l-197 -30q-36 160 -181 160q-100 0 -147 -93q-37 -72 -37 -182q0 -144 36 -204
q53 -88 150 -88q139 0 179 191z" />
    <glyph glyph-name="ordfeminine" unicode="&#xaa;" horiz-adv-x="819" 
d="M761 761h-218q-15 31 -24 67q-46 -43 -90 -60q-62 -24 -144 -24q-112 0 -178 50q-74 57 -74 165q0 112 87 166q57 35 190 59q107 19 190 49q0 56 -22.5 77.5t-78.5 21.5q-92 0 -115 -78l-221 43q35 132 145 173q56 21 167 21q174 0 245 -34q106 -52 106 -203v-337
q0 -97 35 -156zM500 1096q-3 -1 -112 -28q-78 -20 -98 -39q-24 -22 -24 -52q0 -84 97 -84q137 0 137 164v39z" />
    <glyph glyph-name="guillemotleft" unicode="&#xab;" 
d="M932 996h313l-277 -463l277 -462h-313l-318 462zM414 996h312l-277 -463l277 -462h-312l-319 462z" />
    <glyph glyph-name="logicalnot" unicode="&#xac;" horiz-adv-x="1352" 
d="M126 1133h1092v-817h-326v492h-766v325z" />
    <glyph glyph-name="minus" unicode="&#xad;" horiz-adv-x="1352" 
d="M127 895h1091v-324h-1091v324z" />
    <glyph glyph-name="minus" unicode="&#x2212;" horiz-adv-x="1352" 
d="M127 895h1091v-324h-1091v324z" />
    <glyph glyph-name="registered" unicode="&#xae;" horiz-adv-x="1638" 
d="M1585 728q0 -205 -102 -382t-279.5 -279t-382.5 -102t-381.5 102t-279 279t-102.5 382t102.5 382t279.5 279t381 102q206 0 382.5 -102t279 -279.5t102.5 -381.5zM1437 728q0 257 -179.5 436.5t-436.5 179.5t-436.5 -179.5t-179.5 -436.5t179.5 -436.5t436.5 -179.5
t436.5 179.5t179.5 436.5zM475 1136h365q294 0 294 -230q0 -177 -220 -229q47 -18 69 -38q31 -28 65 -83q2 -4 132 -236h-240q-89 178 -94 186q-82 138 -143 138q-9 0 -25 -3v-321h-203v816zM678 790h88q160 0 160 102t-152 102h-96v-204z" />
    <glyph glyph-name="overscore" unicode="&#xaf;" horiz-adv-x="1024" 
d="M-12 1701h1048v-102h-1048v102z" />
    <glyph glyph-name="degree" unicode="&#xb0;" horiz-adv-x="819" 
d="M692 1206q0 -119 -84 -202.5t-203 -83.5t-202.5 83.5t-83.5 202.5t83.5 202.5t202.5 83.5q120 0 203.5 -83t83.5 -203zM506 1207q0 42 -29.5 72t-71.5 30t-72 -30t-30 -72t30 -71.5t72 -29.5t71.5 29.5t29.5 71.5z" />
    <glyph glyph-name="plusminus" unicode="&#xb1;" horiz-adv-x="1352" 
d="M127 1072h383v373h323v-373h385v-315h-385v-356h-323v356h-383v315zM127 307h1091v-307h-1091v307z" />
    <glyph glyph-name="twosuperior" unicode="&#xb2;" horiz-adv-x="819" 
d="M791 741h-769q31 114 129 204q48 44 199 145q170 113 170 175q0 68 -92 68q-102 0 -130 -113l-246 21q18 79 48 120q96 130 339 130q136 0 228 -44q121 -58 121 -180q0 -136 -184 -244q-100 -58 -162 -99h349v-183z" />
    <glyph glyph-name="threesuperior" unicode="&#xb3;" horiz-adv-x="819" 
d="M301 1258l-258 40q57 110 156 155q83 38 221 38q181 0 272 -67q65 -48 65 -124q0 -53 -36 -98q-25 -31 -90 -62q156 -51 156 -195q0 -224 -376 -224q-191 0 -293 78q-59 45 -87 134l254 29q30 -90 122 -90q47 0 81 22q38 26 38 71q0 51 -56 79q-32 16 -149 18l28 141
q146 0 146 77q0 61 -81 61q-84 0 -113 -83z" />
    <glyph glyph-name="acute" unicode="&#xb4;" horiz-adv-x="682" 
d="M331 1491h350l-323 -299h-195z" />
    <glyph glyph-name="mu1" unicode="&#xb5;" 
d="M120 1062h408v-534q0 -113 30 -156q45 -65 127 -65q153 0 153 232v523h406v-1062h-382v84q-33 -56 -64 -76q-49 -32 -101 -32q-48 0 -101 29q-35 19 -68 72v-479h-408v1464z" />
    <glyph glyph-name="paragraph" unicode="&#xb6;" horiz-adv-x="1741" 
d="M1617 1466v-317h-131v-1556h-297v1556h-167v-1556h-297v1022h-69q-169 0 -265 34q-131 46 -198 169q-58 103 -58 232q0 416 510 416h972z" />
    <glyph glyph-name="middot" unicode="&#xb7;" horiz-adv-x="683" 
d="M637 937h435v-408h-435v408z" />
    <glyph glyph-name="cedilla" unicode="&#xb8;" horiz-adv-x="682" 
d="M116 -165l30 118q94 23 176 23q301 0 301 -195q0 -126 -135 -181q-76 -31 -202 -31q-114 0 -268 26v123q104 -20 221 -20q147 0 147 83q0 71 -103 71q-71 0 -167 -17z" />
    <glyph glyph-name="onesuperior" unicode="&#xb9;" horiz-adv-x="819" 
d="M627 1491v-750h-260v448q-94 -55 -226 -82v207q184 45 288 177h198z" />
    <glyph glyph-name="ordmasculine" unicode="&#xba;" horiz-adv-x="819" 
d="M23 1117q0 226 176 324q90 50 214 50q172 0 273.5 -102.5t101.5 -274.5q0 -167 -103.5 -269t-270.5 -102q-266 0 -352 199q-39 90 -39 175zM271 1117q0 -200 140 -200q131 0 131 200q0 203 -135 203q-136 0 -136 -203z" />
    <glyph glyph-name="guillemotright" unicode="&#xbb;" 
d="M434 996h-313l277 -463l-277 -462h313l318 462zM952 996h-312l277 -463l-277 -462h312l319 462z" />
    <glyph glyph-name="onequarter" unicode="&#xbc;" horiz-adv-x="2048" 
d="M643 1491v-750h-260v448q-94 -55 -226 -82v207q184 45 288 177h198zM1400 1491h215l-922 -1544h-213zM1648 71h-408v189l418 461h214v-484h99v-166h-99v-121h-224v121zM1648 237v219l-204 -219h204z" />
    <glyph glyph-name="onehalf" unicode="&#xbd;" horiz-adv-x="2048" 
d="M643 1491v-750h-260v448q-94 -55 -226 -82v207q184 45 288 177h198zM1369 1491h215l-922 -1544h-213zM1990 -29h-769q31 114 129 204q48 44 199 145q170 113 170 175q0 68 -92 68q-102 0 -130 -113l-246 21q18 79 48 120q96 130 339 130q136 0 228 -44q121 -58 121 -180
q0 -136 -184 -244q-100 -58 -162 -99h349v-183z" />
    <glyph glyph-name="threequarters" unicode="&#xbe;" horiz-adv-x="2048" 
d="M340 1258l-258 40q57 110 156 155q83 38 221 38q181 0 272 -67q65 -48 65 -124q0 -53 -36 -98q-25 -31 -90 -62q156 -51 156 -195q0 -224 -376 -224q-191 0 -293 78q-59 45 -87 134l254 29q30 -90 122 -90q47 0 81 22q38 26 38 71q0 51 -56 79q-32 16 -149 18l28 141
q146 0 146 77q0 61 -81 61q-84 0 -113 -83zM1425 1491h215l-922 -1544h-213zM1648 71h-408v189l418 461h214v-484h99v-166h-99v-121h-224v121zM1648 237v219l-204 -219h204z" />
    <glyph glyph-name="questiondown" unicode="&#xbf;" horiz-adv-x="1251" 
d="M466 602h380v-38q0 -167 -88 -268q-45 -53 -195 -176q-81 -67 -81 -121q0 -116 131 -116q154 0 177 211l388 -48q-44 -475 -571 -475q-218 0 -352 91q-182 123 -182 328q0 108 76 204q49 63 163 153q86 68 114 108q40 58 40 147zM859 703h-407v359h407v-359z" />
    <glyph glyph-name="Agrave" unicode="&#xc0;" horiz-adv-x="1593" 
d="M1052 242h-516l-71 -242h-463l551 1466h494l551 -1466h-474zM957 559l-162 527l-161 -527h323zM457 1854h347l164 -298h-192z" />
    <glyph glyph-name="Aacute" unicode="&#xc1;" horiz-adv-x="1593" 
d="M1052 242h-516l-71 -242h-463l551 1466h494l551 -1466h-474zM957 559l-162 527l-161 -527h323zM787 1854h350l-323 -299h-195z" />
    <glyph glyph-name="Acircumflex" unicode="&#xc2;" horiz-adv-x="1593" 
d="M1052 242h-516l-71 -242h-463l551 1466h494l551 -1466h-474zM957 559l-162 527l-161 -527h323zM657 1841h289l222 -286h-248l-122 153l-122 -153h-248z" />
    <glyph glyph-name="Atilde" unicode="&#xc3;" horiz-adv-x="1593" 
d="M1052 242h-516l-71 -242h-463l551 1466h494l551 -1466h-474zM957 559l-162 527l-161 -527h323zM999 1829h158q1 -26 1 -45q0 -101 -49 -164q-53 -69 -151 -69q-64 0 -194 53q-79 32 -109 32q-60 0 -62 -82h-156q-1 24 -1 42q0 95 51 161q56 72 148 72q59 0 181 -51
q83 -35 121 -35q58 0 62 86z" />
    <glyph glyph-name="Adieresis" unicode="&#xc4;" horiz-adv-x="1593" 
d="M1052 242h-516l-71 -242h-463l551 1466h494l551 -1466h-474zM957 559l-162 527l-161 -527h323zM454 1809h260v-250h-260v250zM878 1809h263v-250h-263v250z" />
    <glyph glyph-name="Aring" unicode="&#xc5;" horiz-adv-x="1593" 
d="M587 1466q-32 56 -32 121q0 100 70 170.5t170 70.5q101 0 171 -70t70 -171q0 -65 -33 -121h44l551 -1466h-474l-77 242h-506l-76 -242h-463l551 1466h34zM692 1588q0 -44 29.5 -74t73.5 -30q43 0 72.5 30t29.5 73t-29.5 73t-72.5 30t-73 -29.5t-30 -72.5zM945 577
l-150 485l-149 -485h299z" />
    <glyph glyph-name="AE" unicode="&#xc6;" horiz-adv-x="2048" 
d="M556 1466h1400v-313h-618v-233h562v-299h-562v-289h637v-332h-1063v263h-435l-97 -263h-456zM811 1169l-211 -572h312v572h-101z" />
    <glyph glyph-name="Ccedilla" unicode="&#xc7;" horiz-adv-x="1593" 
d="M1126 599l397 -120q-79 -332 -339 -448q-128 -57 -325 -57q-231 0 -374 63q-165 72 -278 251q-110 175 -110 448q0 360 191 557.5t550 197.5q263 0 422 -103q168 -110 249 -353l-400 -89q-21 66 -44 98q-79 108 -216 108q-153 0 -236 -124q-62 -93 -62 -289
q0 -192 47 -289q66 -136 235 -136q231 0 293 285zM572 -165l30 118q94 23 176 23q301 0 301 -195q0 -126 -135 -181q-76 -31 -202 -31q-114 0 -268 26v123q104 -20 221 -20q147 0 147 83q0 71 -103 71q-71 0 -167 -17z" />
    <glyph glyph-name="Egrave" unicode="&#xc8;" horiz-adv-x="1479" 
d="M149 1466h1214v-313h-760v-233h705v-299h-705v-289h782v-332h-1236v1466zM400 1854h347l164 -298h-192z" />
    <glyph glyph-name="Eacute" unicode="&#xc9;" horiz-adv-x="1479" 
d="M149 1466h1214v-313h-760v-233h705v-299h-705v-289h782v-332h-1236v1466zM730 1854h350l-323 -299h-195z" />
    <glyph glyph-name="Ecircumflex" unicode="&#xca;" horiz-adv-x="1479" 
d="M149 1466h1214v-313h-760v-233h705v-299h-705v-289h782v-332h-1236v1466zM600 1841h289l222 -286h-248l-122 153l-122 -153h-248z" />
    <glyph glyph-name="Edieresis" unicode="&#xcb;" horiz-adv-x="1479" 
d="M149 1466h1214v-313h-760v-233h705v-299h-705v-289h782v-332h-1236v1466zM397 1809h260v-250h-260v250zM821 1809h263v-250h-263v250z" />
    <glyph glyph-name="Igrave" unicode="&#xcc;" horiz-adv-x="797" 
d="M168 1466h454v-1466h-454v1466zM59 1854h347l164 -298h-192z" />
    <glyph glyph-name="Iacute" unicode="&#xcd;" horiz-adv-x="797" 
d="M168 1466h454v-1466h-454v1466zM389 1854h350l-323 -299h-195z" />
    <glyph glyph-name="Icircumflex" unicode="&#xce;" horiz-adv-x="797" 
d="M168 1466h454v-1466h-454v1466zM259 1841h289l222 -286h-248l-122 153l-122 -153h-248z" />
    <glyph glyph-name="Idieresis" unicode="&#xcf;" horiz-adv-x="797" 
d="M168 1466h454v-1466h-454v1466zM56 1809h260v-250h-260v250zM480 1809h263v-250h-263v250z" />
    <glyph glyph-name="Eth" unicode="&#xd0;" horiz-adv-x="1706" 
d="M887 531v305h700v-625q-191 -130 -341 -181q-162 -55 -381 -55q-498 0 -680 354q-91 176 -91 404q0 501 389 687q148 71 401 71q196 0 305 -27q161 -40 259 -153q79 -93 119 -235l-437 -78q-56 171 -256 171q-326 0 -326 -431q0 -442 339 -442q140 0 303 97v138h-303z
M1030 1854h165q-12 -188 -163 -263q-79 -39 -171 -39q-149 0 -240 77q-94 79 -109 225h172q37 -107 168 -107q76 0 113 18q47 24 65 89z" />
    <glyph glyph-name="Ntilde" unicode="&#xd1;" horiz-adv-x="1706" 
d="M153 1466h423l552 -811v811h427v-1466h-427l-549 805v-805h-426v1466zM1055 1829h158q1 -26 1 -45q0 -101 -49 -164q-53 -69 -151 -69q-64 0 -194 53q-79 32 -109 32q-60 0 -62 -82h-156q-1 24 -1 42q0 95 51 161q56 72 148 72q59 0 181 -51q83 -35 121 -35q58 0 62 86z
" />
    <glyph glyph-name="Ograve" unicode="&#xd2;" horiz-adv-x="1706" 
d="M93 732q0 359 199 559t558 200q361 0 560 -192q202 -195 202 -555q0 -489 -336 -677q-164 -92 -408 -92q-480 0 -674 329q-101 171 -101 428zM546 730q0 -416 307 -416q180 0 252 136q54 101 54 300q0 398 -310 398q-303 0 -303 -418zM513 1854h347l164 -298h-192z" />
    <glyph glyph-name="Oacute" unicode="&#xd3;" horiz-adv-x="1706" 
d="M93 732q0 359 199 559t558 200q361 0 560 -192q202 -195 202 -555q0 -489 -336 -677q-164 -92 -408 -92q-480 0 -674 329q-101 171 -101 428zM546 730q0 -416 307 -416q180 0 252 136q54 101 54 300q0 398 -310 398q-303 0 -303 -418zM843 1854h350l-323 -299h-195z" />
    <glyph glyph-name="Ocircumflex" unicode="&#xd4;" horiz-adv-x="1706" 
d="M93 732q0 359 199 559t558 200q361 0 560 -192q202 -195 202 -555q0 -489 -336 -677q-164 -92 -408 -92q-480 0 -674 329q-101 171 -101 428zM546 730q0 -416 307 -416q180 0 252 136q54 101 54 300q0 398 -310 398q-303 0 -303 -418zM713 1841h289l222 -286h-248
l-122 153l-122 -153h-248z" />
    <glyph glyph-name="Otilde" unicode="&#xd5;" horiz-adv-x="1706" 
d="M93 732q0 359 199 559t558 200q361 0 560 -192q202 -195 202 -555q0 -489 -336 -677q-164 -92 -408 -92q-480 0 -674 329q-101 171 -101 428zM546 730q0 -416 307 -416q180 0 252 136q54 101 54 300q0 398 -310 398q-303 0 -303 -418zM1055 1829h158q1 -26 1 -45
q0 -101 -49 -164q-53 -69 -151 -69q-64 0 -194 53q-79 32 -109 32q-60 0 -62 -82h-156q-1 24 -1 42q0 95 51 161q56 72 148 72q59 0 181 -51q83 -35 121 -35q58 0 62 86z" />
    <glyph glyph-name="Odieresis" unicode="&#xd6;" horiz-adv-x="1706" 
d="M93 732q0 359 199 559t558 200q361 0 560 -192q202 -195 202 -555q0 -489 -336 -677q-164 -92 -408 -92q-480 0 -674 329q-101 171 -101 428zM546 730q0 -416 307 -416q180 0 252 136q54 101 54 300q0 398 -310 398q-303 0 -303 -418zM510 1809h260v-250h-260v250z
M934 1809h263v-250h-263v250z" />
    <glyph glyph-name="multiply" unicode="&#xd7;" horiz-adv-x="1352" 
d="M355 1280l318 -315l315 315l232 -231l-317 -315l317 -319l-232 -229l-315 319l-318 -319l-230 229l318 319l-318 315z" />
    <glyph glyph-name="Oslash" unicode="&#xd8;" horiz-adv-x="1706" 
d="M1346 1352l174 164l151 -161l-173 -164q113 -171 113 -456q0 -490 -347 -674q-163 -86 -410 -86q-176 0 -315 45q-90 29 -178 95l-175 -167l-151 159l176 168q-119 185 -119 454q0 359 198 560.5t556 201.5q315 0 500 -139zM1054 1075q-75 73 -206 73q-303 0 -303 -410
q0 -68 10 -137zM1150 861l-501 -474q73 -73 203 -73q306 0 306 420q0 64 -8 127z" />
    <glyph glyph-name="Ugrave" unicode="&#xd9;" horiz-adv-x="1706" 
d="M1104 1466h452v-874q0 -280 -167 -447q-87 -87 -182 -122q-132 -49 -317 -49q-303 0 -445 75q-85 44 -155 125t-97 170q-42 140 -42 248v874h452v-895q0 -119 66 -187t185 -68t184.5 67.5t65.5 187.5v895zM513 1854h347l164 -298h-192z" />
    <glyph glyph-name="Uacute" unicode="&#xda;" horiz-adv-x="1706" 
d="M1104 1466h452v-874q0 -280 -167 -447q-87 -87 -182 -122q-132 -49 -317 -49q-303 0 -445 75q-85 44 -155 125t-97 170q-42 140 -42 248v874h452v-895q0 -119 66 -187t185 -68t184.5 67.5t65.5 187.5v895zM843 1854h350l-323 -299h-195z" />
    <glyph glyph-name="Ucircumflex" unicode="&#xdb;" horiz-adv-x="1706" 
d="M1104 1466h452v-874q0 -280 -167 -447q-87 -87 -182 -122q-132 -49 -317 -49q-303 0 -445 75q-85 44 -155 125t-97 170q-42 140 -42 248v874h452v-895q0 -119 66 -187t185 -68t184.5 67.5t65.5 187.5v895zM713 1841h289l222 -286h-248l-122 153l-122 -153h-248z" />
    <glyph glyph-name="Udieresis" unicode="&#xdc;" horiz-adv-x="1706" 
d="M1104 1466h452v-874q0 -280 -167 -447q-87 -87 -182 -122q-132 -49 -317 -49q-303 0 -445 75q-85 44 -155 125t-97 170q-42 140 -42 248v874h452v-895q0 -119 66 -187t185 -68t184.5 67.5t65.5 187.5v895zM510 1809h260v-250h-260v250zM934 1809h263v-250h-263v250z" />
    <glyph glyph-name="Yacute" unicode="&#xdd;" horiz-adv-x="797" 
d="M168 1466h454v-1466h-454v1466zM242 1855h314v-300h-314v300z" />
    <glyph glyph-name="Thorn" unicode="&#xde;" horiz-adv-x="1479" 
d="M71 485l431 27q14 -105 57 -160q70 -89 200 -89q79 0 135 35q67 42 67 116q0 85 -105 135q-51 24 -177 52q-243 54 -369 137q-184 120 -184 324q0 125 74 225q69 94 189 147q131 57 360 57q262 0 405 -89q169 -105 199 -348l-427 -25q-32 189 -222 189q-159 0 -159 -115
q0 -78 185 -117q228 -49 337 -91q201 -77 276 -201q58 -97 58 -217q0 -146 -80 -263.5t-216 -176.5q-140 -62 -353 -62q-302 0 -465 104q-192 124 -216 406zM515 -165l30 118q94 23 176 23q301 0 301 -195q0 -126 -135 -181q-76 -31 -202 -31q-114 0 -268 26v123
q104 -20 221 -20q147 0 147 83q0 71 -103 71q-71 0 -167 -17z" />
    <glyph glyph-name="germandbls" unicode="&#xdf;" 
d="M119 0v1017q0 302 224 414q119 60 317 60q183 0 301 -58q156 -76 156 -240q0 -75 -58.5 -198t-58.5 -154q0 -52 70 -116q131 -120 186 -233q38 -78 38 -178q0 -156 -105 -249q-101 -89 -259 -89q-123 0 -212 42q-66 31 -132 108l233 138q35 -44 69 -44q81 0 81 80
q0 48 -86 141q-6 6 -121 118q-78 75 -109 135q-20 38 -20 86q0 58 59 175.5t59 175.5q0 47 -31.5 75.5t-79.5 28.5q-132 0 -132 -210v-1025h-389z" />
    <glyph glyph-name="agrave" unicode="&#xe0;" 
d="M494 718l-389 41q39 183 183 262q118 65 366 65q169 0 251 -13q147 -22 228 -93q52 -46 84 -131q28 -78 28 -154v-469q0 -121 51 -226h-382q-33 59 -44 130q-81 -78 -159 -110q-107 -44 -251 -44q-161 0 -265 70q-122 82 -122 235q0 145 98 223q76 60 235 92
q169 34 223 47q125 29 218 66q0 76 -31.5 105.5t-108.5 29.5q-100 0 -150 -32q-39 -25 -63 -94zM847 504q-77 -27 -175 -53q-86 -23 -122 -42q-69 -37 -69 -98q0 -109 132 -109q62 0 120 29q63 32 90 85q24 47 24 123v65zM343 1491h347l164 -298h-192z" />
    <glyph glyph-name="aacute" unicode="&#xe1;" 
d="M494 718l-389 41q39 183 183 262q118 65 366 65q169 0 251 -13q147 -22 228 -93q52 -46 84 -131q28 -78 28 -154v-469q0 -121 51 -226h-382q-33 59 -44 130q-81 -78 -159 -110q-107 -44 -251 -44q-161 0 -265 70q-122 82 -122 235q0 145 98 223q76 60 235 92
q169 34 223 47q125 29 218 66q0 76 -31.5 105.5t-108.5 29.5q-100 0 -150 -32q-39 -25 -63 -94zM847 504q-77 -27 -175 -53q-86 -23 -122 -42q-69 -37 -69 -98q0 -109 132 -109q62 0 120 29q63 32 90 85q24 47 24 123v65zM673 1491h350l-323 -299h-195z" />
    <glyph glyph-name="acircumflex" unicode="&#xe2;" 
d="M494 718l-389 41q39 183 183 262q118 65 366 65q169 0 251 -13q147 -22 228 -93q52 -46 84 -131q28 -78 28 -154v-469q0 -121 51 -226h-382q-33 59 -44 130q-81 -78 -159 -110q-107 -44 -251 -44q-161 0 -265 70q-122 82 -122 235q0 145 98 223q76 60 235 92
q169 34 223 47q125 29 218 66q0 76 -31.5 105.5t-108.5 29.5q-100 0 -150 -32q-39 -25 -63 -94zM847 504q-77 -27 -175 -53q-86 -23 -122 -42q-69 -37 -69 -98q0 -109 132 -109q62 0 120 29q63 32 90 85q24 47 24 123v65zM543 1478h289l222 -286h-248l-122 153l-122 -153
h-248z" />
    <glyph glyph-name="atilde" unicode="&#xe3;" 
d="M494 718l-389 41q39 183 183 262q118 65 366 65q169 0 251 -13q147 -22 228 -93q52 -46 84 -131q28 -78 28 -154v-469q0 -121 51 -226h-382q-33 59 -44 130q-81 -78 -159 -110q-107 -44 -251 -44q-161 0 -265 70q-122 82 -122 235q0 145 98 223q76 60 235 92
q169 34 223 47q125 29 218 66q0 76 -31.5 105.5t-108.5 29.5q-100 0 -150 -32q-39 -25 -63 -94zM847 504q-77 -27 -175 -53q-86 -23 -122 -42q-69 -37 -69 -98q0 -109 132 -109q62 0 120 29q63 32 90 85q24 47 24 123v65zM885 1466h158q1 -26 1 -45q0 -101 -49 -164
q-53 -69 -151 -69q-64 0 -194 53q-79 32 -109 32q-60 0 -62 -82h-156q-1 24 -1 42q0 95 51 161q56 72 148 72q59 0 181 -51q83 -35 121 -35q58 0 62 86z" />
    <glyph glyph-name="adieresis" unicode="&#xe4;" 
d="M494 718l-389 41q39 183 183 262q118 65 366 65q169 0 251 -13q147 -22 228 -93q52 -46 84 -131q28 -78 28 -154v-469q0 -121 51 -226h-382q-33 59 -44 130q-81 -78 -159 -110q-107 -44 -251 -44q-161 0 -265 70q-122 82 -122 235q0 145 98 223q76 60 235 92
q169 34 223 47q125 29 218 66q0 76 -31.5 105.5t-108.5 29.5q-100 0 -150 -32q-39 -25 -63 -94zM847 504q-77 -27 -175 -53q-86 -23 -122 -42q-69 -37 -69 -98q0 -109 132 -109q62 0 120 29q63 32 90 85q24 47 24 123v65zM340 1446h260v-250h-260v250zM764 1446h263v-250
h-263v250z" />
    <glyph glyph-name="aring" unicode="&#xe5;" 
d="M494 718l-389 41q39 183 183 262q118 65 366 65q169 0 251 -13q147 -22 228 -93q52 -46 84 -131q28 -78 28 -154v-469q0 -121 51 -226h-382q-33 59 -44 130q-81 -78 -159 -110q-107 -44 -251 -44q-161 0 -265 70q-122 82 -122 235q0 145 98 223q76 60 235 92
q169 34 223 47q125 29 218 66q0 76 -31.5 105.5t-108.5 29.5q-100 0 -150 -32q-39 -25 -63 -94zM847 504q-77 -27 -175 -53q-86 -23 -122 -42q-69 -37 -69 -98q0 -109 132 -109q62 0 120 29q63 32 90 85q24 47 24 123v65zM923 1403q0 -100 -70 -170t-170 -70
q-101 0 -171 69.5t-70 170.5t70 171t171 70q100 0 170 -70.5t70 -170.5zM785 1404q0 43 -30 73t-73 30t-73 -30t-30 -73t30 -73t73 -30t73 30t30 73z" />
    <glyph glyph-name="ae" unicode="&#xe6;" horiz-adv-x="2048" 
d="M1990 431h-771q11 -96 47 -143q55 -71 144 -71q94 0 158 100l397 -35q-89 -165 -228 -238q-129 -68 -325 -68q-165 0 -284 48q-90 36 -173 120q-230 -168 -479 -168q-172 0 -279 67q-128 80 -128 242q0 145 113 227q64 47 141 73q61 21 172 40q132 23 174 34
q68 17 156 47q-2 80 -33 109t-111 29q-153 0 -186 -127l-391 45q29 106 68 160q119 165 467 165q158 0 260 -28q73 -20 161 -77q165 104 346 104q293 0 445 -163q70 -76 100 -151q39 -98 39 -274v-67zM1584 626q-17 217 -178 217t-190 -217h368zM825 507l-125 -41
q-20 -7 -42 -11q-178 -33 -178 -136q0 -50 35 -80t85 -30q140 0 202 113q23 42 23 109v76z" />
    <glyph glyph-name="ccedilla" unicode="&#xe7;" 
d="M915 415l387 -44q-66 -250 -291 -347q-114 -49 -289 -49q-322 0 -475 134q-173 150 -173 417q0 266 168 417q71 63 146 94q119 49 305 49q229 0 366 -75q160 -88 222 -290l-383 -51q-36 137 -193 137q-118 0 -177 -91q-49 -76 -49 -201q0 -115 52 -186q58 -81 168 -81
q163 0 216 167zM458 -165l30 118q94 23 176 23q301 0 301 -195q0 -126 -135 -181q-76 -31 -202 -31q-114 0 -268 26v123q104 -20 221 -20q147 0 147 83q0 71 -103 71q-71 0 -167 -17z" />
    <glyph glyph-name="egrave" unicode="&#xe8;" 
d="M1302 430h-816q11 -97 53 -146q60 -69 154 -69q61 0 114 30q32 18 71 67l401 -37q-100 -175 -248 -242q-127 -57 -347 -57q-189 0 -305 48q-140 57 -227 201q-80 129 -80 304q0 263 170 414q163 143 430 143q419 0 561 -269q69 -131 69 -341v-46zM888 625
q-22 220 -199 220q-96 0 -155 -77q-37 -49 -47 -143h401zM343 1491h347l164 -298h-192z" />
    <glyph glyph-name="eacute" unicode="&#xe9;" 
d="M1302 430h-816q11 -97 53 -146q60 -69 154 -69q61 0 114 30q32 18 71 67l401 -37q-100 -175 -248 -242q-127 -57 -347 -57q-189 0 -305 48q-140 57 -227 201q-80 129 -80 304q0 263 170 414q163 143 430 143q419 0 561 -269q69 -131 69 -341v-46zM888 625
q-22 220 -199 220q-96 0 -155 -77q-37 -49 -47 -143h401zM673 1491h350l-323 -299h-195z" />
    <glyph glyph-name="ecircumflex" unicode="&#xea;" 
d="M1302 430h-816q11 -97 53 -146q60 -69 154 -69q61 0 114 30q32 18 71 67l401 -37q-100 -175 -248 -242q-127 -57 -347 -57q-189 0 -305 48q-140 57 -227 201q-80 129 -80 304q0 263 170 414q163 143 430 143q419 0 561 -269q69 -131 69 -341v-46zM888 625
q-22 220 -199 220q-96 0 -155 -77q-37 -49 -47 -143h401zM543 1478h289l222 -286h-248l-122 153l-122 -153h-248z" />
    <glyph glyph-name="edieresis" unicode="&#xeb;" 
d="M1302 430h-816q11 -97 53 -146q60 -69 154 -69q61 0 114 30q32 18 71 67l401 -37q-100 -175 -248 -242q-127 -57 -347 -57q-189 0 -305 48q-140 57 -227 201q-80 129 -80 304q0 263 170 414q163 143 430 143q419 0 561 -269q69 -131 69 -341v-46zM888 625
q-22 220 -199 220q-96 0 -155 -77q-37 -49 -47 -143h401zM340 1446h260v-250h-260v250zM764 1446h263v-250h-263v250z" />
    <glyph glyph-name="igrave" unicode="&#xec;" horiz-adv-x="682" 
d="M138 1062h407v-1062h-407v1062zM1 1491h347l164 -298h-192z" />
    <glyph glyph-name="iacute" unicode="&#xed;" horiz-adv-x="682" 
d="M138 1062h407v-1062h-407v1062zM331 1491h350l-323 -299h-195z" />
    <glyph glyph-name="icircumflex" unicode="&#xee;" horiz-adv-x="682" 
d="M138 1062h407v-1062h-407v1062zM201 1478h289l222 -286h-248l-122 153l-122 -153h-248z" />
    <glyph glyph-name="idieresis" unicode="&#xef;" horiz-adv-x="682" 
d="M138 1062h407v-1062h-407v1062zM-2 1446h260v-250h-260v250zM422 1446h263v-250h-263v250z" />
    <glyph glyph-name="eth" unicode="&#xf0;" 
d="M862 1062h381l1 -1050q2 -96 -42 -191q-85 -179 -292 -227q-109 -25 -249 -25q-243 0 -372 58q-187 84 -187 295q0 20 2 54l395 -45q15 -55 46 -76q45 -31 113 -31q175 0 175 211v161q-60 -71 -120 -103q-94 -50 -203 -50q-213 0 -344 186q-93 132 -93 349q0 223 103 358
q115 150 331 150q121 0 202.5 -41.5t152.5 -139.5v157zM479 547q0 -226 178 -226q91 0 139 73q40 61 40 158q0 98 -43 163q-50 76 -143 76q-171 0 -171 -244zM860 1491h165q-12 -188 -163 -263q-79 -39 -171 -39q-149 0 -240 77q-94 79 -109 225h172q37 -107 168 -107
q76 0 113 18q47 24 65 89z" />
    <glyph glyph-name="ntilde" unicode="&#xf1;" 
d="M123 1062h379v-173q83 104 167 149q91 48 217 48q360 0 360 -411v-675h-409v584q0 183 -141 183q-166 0 -166 -257v-510h-407v1062zM885 1466h158q1 -26 1 -45q0 -101 -49 -164q-53 -69 -151 -69q-64 0 -194 53q-79 32 -109 32q-60 0 -62 -82h-156q-1 24 -1 42
q0 95 51 161q56 72 148 72q59 0 181 -51q83 -35 121 -35q58 0 62 86z" />
    <glyph glyph-name="ograve" unicode="&#xf2;" 
d="M73 528q0 259 176 412q168 146 431 146q319 0 482 -185q131 -149 131 -367q0 -264 -177 -415q-167 -143 -435 -143q-257 0 -414 130q-194 160 -194 422zM481 529q0 -115 43 -188q52 -90 159 -90q201 0 201 282q0 111 -42 184q-52 89 -156 89q-108 0 -161 -89
q-44 -73 -44 -188zM343 1491h347l164 -298h-192z" />
    <glyph glyph-name="oacute" unicode="&#xf3;" 
d="M73 528q0 259 176 412q168 146 431 146q319 0 482 -185q131 -149 131 -367q0 -264 -177 -415q-167 -143 -435 -143q-257 0 -414 130q-194 160 -194 422zM481 529q0 -115 43 -188q52 -90 159 -90q201 0 201 282q0 111 -42 184q-52 89 -156 89q-108 0 -161 -89
q-44 -73 -44 -188zM673 1491h350l-323 -299h-195z" />
    <glyph glyph-name="ocircumflex" unicode="&#xf4;" 
d="M73 528q0 259 176 412q168 146 431 146q319 0 482 -185q131 -149 131 -367q0 -264 -177 -415q-167 -143 -435 -143q-257 0 -414 130q-194 160 -194 422zM481 529q0 -115 43 -188q52 -90 159 -90q201 0 201 282q0 111 -42 184q-52 89 -156 89q-108 0 -161 -89
q-44 -73 -44 -188zM543 1478h289l222 -286h-248l-122 153l-122 -153h-248z" />
    <glyph glyph-name="otilde" unicode="&#xf5;" 
d="M73 528q0 259 176 412q168 146 431 146q319 0 482 -185q131 -149 131 -367q0 -264 -177 -415q-167 -143 -435 -143q-257 0 -414 130q-194 160 -194 422zM481 529q0 -115 43 -188q52 -90 159 -90q201 0 201 282q0 111 -42 184q-52 89 -156 89q-108 0 -161 -89
q-44 -73 -44 -188zM885 1466h158q1 -26 1 -45q0 -101 -49 -164q-53 -69 -151 -69q-64 0 -194 53q-79 32 -109 32q-60 0 -62 -82h-156q-1 24 -1 42q0 95 51 161q56 72 148 72q59 0 181 -51q83 -35 121 -35q58 0 62 86z" />
    <glyph glyph-name="odieresis" unicode="&#xf6;" 
d="M73 528q0 259 176 412q168 146 431 146q319 0 482 -185q131 -149 131 -367q0 -264 -177 -415q-167 -143 -435 -143q-257 0 -414 130q-194 160 -194 422zM481 529q0 -115 43 -188q52 -90 159 -90q201 0 201 282q0 111 -42 184q-52 89 -156 89q-108 0 -161 -89
q-44 -73 -44 -188zM340 1446h260v-250h-260v250zM764 1446h263v-250h-263v250z" />
    <glyph glyph-name="divide" unicode="&#xf7;" horiz-adv-x="1352" 
d="M470 1356h401v-369h-401v369zM127 896h1091v-326h-1091v326zM470 478h401v-373h-401v373z" />
    <glyph glyph-name="oslash" unicode="&#xf8;" 
d="M1153 1156l104 -94l-124 -136q78 -65 120 -180q39 -103 39 -214q0 -259 -172 -411q-164 -145 -427 -145q-113 0 -199 19q-59 13 -149 56l-133 -148l-105 97l127 135q-161 172 -161 391q0 259 173 413q166 147 428 147q112 0 200 -21q59 -14 146 -58zM821 785
q-28 27 -48 35q-39 16 -88 16q-122 0 -183 -101q-49 -82 -49 -213q0 -53 17 -126zM545 270q34 -27 54 -34q39 -14 88 -14q122 0 180 105q45 83 45 216q0 51 -17 117z" />
    <glyph glyph-name="ugrave" unicode="&#xf9;" 
d="M1242 0h-380v172q-83 -104 -167 -148q-90 -48 -217 -48q-359 0 -359 410v676h409v-584q0 -184 141 -184q166 0 166 257v511h407v-1062zM343 1491h347l164 -298h-192z" />
    <glyph glyph-name="uacute" unicode="&#xfa;" 
d="M1242 0h-380v172q-83 -104 -167 -148q-90 -48 -217 -48q-359 0 -359 410v676h409v-584q0 -184 141 -184q166 0 166 257v511h407v-1062zM673 1491h350l-323 -299h-195z" />
    <glyph glyph-name="ucircumflex" unicode="&#xfb;" 
d="M1242 0h-380v172q-83 -104 -167 -148q-90 -48 -217 -48q-359 0 -359 410v676h409v-584q0 -184 141 -184q166 0 166 257v511h407v-1062zM543 1478h289l222 -286h-248l-122 153l-122 -153h-248z" />
    <glyph glyph-name="udieresis" unicode="&#xfc;" 
d="M1242 0h-380v172q-83 -104 -167 -148q-90 -48 -217 -48q-359 0 -359 410v676h409v-584q0 -184 141 -184q166 0 166 257v511h407v-1062zM340 1446h260v-250h-260v250zM764 1446h263v-250h-263v250z" />
    <glyph glyph-name="yacute" unicode="&#xfd;" horiz-adv-x="682" 
d="M138 1062h407v-1062h-407v1062z" />
    <glyph glyph-name="thorn" unicode="&#xfe;" horiz-adv-x="1251" 
d="M51 294l404 38q47 -134 190 -134q59 0 104 21q58 27 58 79q0 44 -46 68q-33 17 -175 42q-187 33 -236 48q-133 41 -197 127q-57 75 -57 171q0 214 229 295q107 37 287 37q150 0 230 -17q126 -26 202 -102q60 -61 100 -165l-386 -38q-31 107 -166 107q-132 0 -132 -84
q0 -53 87 -76q27 -7 127 -19q166 -19 248 -45q142 -44 206 -136q52 -76 52 -167q0 -218 -230 -317q-120 -52 -326 -52q-231 0 -356 53q-173 74 -217 266zM401 -165l30 118q94 23 176 23q301 0 301 -195q0 -126 -135 -181q-76 -31 -202 -31q-114 0 -268 26v123
q104 -20 221 -20q147 0 147 83q0 71 -103 71q-71 0 -167 -17z" />
    <glyph glyph-name="ydieresis" unicode="&#xff;" horiz-adv-x="1251" 
d="M5 1062h430l219 -707l203 707h401l-421 -1135q-72 -194 -147 -262q-106 -96 -323 -96q-88 0 -272 24l-32 284q88 -28 196 -28q137 0 192 151zM283 1446h260v-250h-260v250zM707 1446h263v-250h-263v250z" />
    <glyph glyph-name="Amacron" unicode="&#x100;" horiz-adv-x="1593" 
d="M1052 242h-516l-71 -242h-463l551 1466h494l551 -1466h-474zM957 559l-162 527l-161 -527h323zM470 1786h647v-217h-647v217z" />
    <glyph glyph-name="amacron" unicode="&#x101;" 
d="M494 718l-389 41q39 183 183 262q118 65 366 65q169 0 251 -13q147 -22 228 -93q52 -46 84 -131q28 -78 28 -154v-469q0 -121 51 -226h-382q-33 59 -44 130q-81 -78 -159 -110q-107 -44 -251 -44q-161 0 -265 70q-122 82 -122 235q0 145 98 223q76 60 235 92
q169 34 223 47q125 29 218 66q0 76 -31.5 105.5t-108.5 29.5q-100 0 -150 -32q-39 -25 -63 -94zM847 504q-77 -27 -175 -53q-86 -23 -122 -42q-69 -37 -69 -98q0 -109 132 -109q62 0 120 29q63 32 90 85q24 47 24 123v65zM362 1446h647v-217h-647v217z" />
    <glyph glyph-name="Abreve" unicode="&#x102;" horiz-adv-x="1593" 
d="M1052 242h-516l-71 -242h-463l551 1466h494l551 -1466h-474zM957 559l-162 527l-161 -527h323zM971 1862h165q-12 -188 -163 -263q-79 -39 -171 -39q-149 0 -240 77q-94 79 -109 225h172q37 -107 168 -107q76 0 113 18q47 24 65 89z" />
    <glyph glyph-name="abreve" unicode="&#x103;" 
d="M494 718l-389 41q39 183 183 262q118 65 366 65q169 0 251 -13q147 -22 228 -93q52 -46 84 -131q28 -78 28 -154v-469q0 -121 51 -226h-382q-33 59 -44 130q-81 -78 -159 -110q-107 -44 -251 -44q-161 0 -265 70q-122 82 -122 235q0 145 98 223q76 60 235 92
q169 34 223 47q125 29 218 66q0 76 -31.5 105.5t-108.5 29.5q-100 0 -150 -32q-39 -25 -63 -94zM847 504q-77 -27 -175 -53q-86 -23 -122 -42q-69 -37 -69 -98q0 -109 132 -109q62 0 120 29q63 32 90 85q24 47 24 123v65zM861 1491h165q-12 -188 -163 -263q-79 -39 -171 -39
q-149 0 -240 77q-94 79 -109 225h172q37 -107 168 -107q76 0 113 18q47 24 65 89z" />
    <glyph glyph-name="Aogonek" unicode="&#x104;" horiz-adv-x="1593" 
d="M1052 242h-516l-71 -242h-463l551 1466h494l551 -1466h-474zM957 559l-162 527l-161 -527h323zM1223 26h169q-20 -87 -20 -144q0 -154 140 -154q47 0 128 26v-155q-124 -46 -212 -46q-114 0 -182 59q-71 63 -71 175q0 89 48 239z" />
    <glyph glyph-name="aogonek" unicode="&#x105;" 
d="M494 718l-389 41q39 183 183 262q118 65 366 65q169 0 251 -13q147 -22 228 -93q52 -46 84 -131q28 -78 28 -154v-469q0 -121 51 -226h-382q-33 59 -44 130q-81 -78 -159 -110q-107 -44 -251 -44q-161 0 -265 70q-122 82 -122 235q0 145 98 223q76 60 235 92
q169 34 223 47q125 29 218 66q0 76 -31.5 105.5t-108.5 29.5q-100 0 -150 -32q-39 -25 -63 -94zM847 504q-77 -27 -175 -53q-86 -23 -122 -42q-69 -37 -69 -98q0 -109 132 -109q62 0 120 29q63 32 90 85q24 47 24 123v65zM920 26h169q-20 -87 -20 -144q0 -154 140 -154
q47 0 128 26v-155q-124 -46 -212 -46q-114 0 -182 59q-71 63 -71 175q0 89 48 239z" />
    <glyph glyph-name="Cacute" unicode="&#x106;" horiz-adv-x="1593" 
d="M1126 599l397 -120q-79 -332 -339 -448q-128 -57 -325 -57q-231 0 -374 63q-165 72 -278 251q-110 175 -110 448q0 360 191 557.5t550 197.5q263 0 422 -103q168 -110 249 -353l-400 -89q-21 66 -44 98q-79 108 -216 108q-153 0 -236 -124q-62 -93 -62 -289
q0 -192 47 -289q66 -136 235 -136q231 0 293 285zM831 1854h350l-323 -299h-195z" />
    <glyph glyph-name="cacute" unicode="&#x107;" 
d="M915 415l387 -44q-66 -250 -291 -347q-114 -49 -289 -49q-322 0 -475 134q-173 150 -173 417q0 266 168 417q71 63 146 94q119 49 305 49q229 0 366 -75q160 -88 222 -290l-383 -51q-36 137 -193 137q-118 0 -177 -91q-49 -76 -49 -201q0 -115 52 -186q58 -81 168 -81
q163 0 216 167zM773 1491h350l-323 -299h-195z" />
    <glyph glyph-name="Ccircumflex" unicode="&#x108;" horiz-adv-x="1593" 
d="M1126 599l397 -120q-79 -332 -339 -448q-128 -57 -325 -57q-231 0 -374 63q-165 72 -278 251q-110 175 -110 448q0 360 191 557.5t550 197.5q263 0 422 -103q168 -110 249 -353l-400 -89q-21 66 -44 98q-79 108 -216 108q-153 0 -236 -124q-62 -93 -62 -289
q0 -192 47 -289q66 -136 235 -136q231 0 293 285zM681 1858h289l222 -286h-248l-122 153l-122 -153h-248z" />
    <glyph glyph-name="ccircumflex" unicode="&#x109;" 
d="M915 415l387 -44q-66 -250 -291 -347q-114 -49 -289 -49q-322 0 -475 134q-173 150 -173 417q0 266 168 417q71 63 146 94q119 49 305 49q229 0 366 -75q160 -88 222 -290l-383 -51q-36 137 -193 137q-118 0 -177 -91q-49 -76 -49 -201q0 -115 52 -186q58 -81 168 -81
q163 0 216 167zM561 1478h289l222 -286h-248l-122 153l-122 -153h-248z" />
    <glyph glyph-name="Cdot" unicode="&#x10a;" horiz-adv-x="1593" 
d="M1126 599l397 -120q-79 -332 -339 -448q-128 -57 -325 -57q-231 0 -374 63q-165 72 -278 251q-110 175 -110 448q0 360 191 557.5t550 197.5q263 0 422 -103q168 -110 249 -353l-400 -89q-21 66 -44 98q-79 108 -216 108q-153 0 -236 -124q-62 -93 -62 -289
q0 -192 47 -289q66 -136 235 -136q231 0 293 285zM660 1868h314v-300h-314v300z" />
    <glyph glyph-name="cdot" unicode="&#x10b;" 
d="M915 415l387 -44q-66 -250 -291 -347q-114 -49 -289 -49q-322 0 -475 134q-173 150 -173 417q0 266 168 417q71 63 146 94q119 49 305 49q229 0 366 -75q160 -88 222 -290l-383 -51q-36 137 -193 137q-118 0 -177 -91q-49 -76 -49 -201q0 -115 52 -186q58 -81 168 -81
q163 0 216 167zM536 1496h314v-300h-314v300z" />
    <glyph glyph-name="Ccaron" unicode="&#x10c;" horiz-adv-x="1593" 
d="M1126 599l397 -120q-79 -332 -339 -448q-128 -57 -325 -57q-231 0 -374 63q-165 72 -278 251q-110 175 -110 448q0 360 191 557.5t550 197.5q263 0 422 -103q168 -110 249 -353l-400 -89q-21 66 -44 98q-79 108 -216 108q-153 0 -236 -124q-62 -93 -62 -289
q0 -192 47 -289q66 -136 235 -136q231 0 293 285zM982 1555h-288l-222 286h247l122 -153l122 153h249z" />
    <glyph glyph-name="ccaron" unicode="&#x10d;" 
d="M915 415l387 -44q-66 -250 -291 -347q-114 -49 -289 -49q-322 0 -475 134q-173 150 -173 417q0 266 168 417q71 63 146 94q119 49 305 49q229 0 366 -75q160 -88 222 -290l-383 -51q-36 137 -193 137q-118 0 -177 -91q-49 -76 -49 -201q0 -115 52 -186q58 -81 168 -81
q163 0 216 167zM844 1192h-288l-222 286h247l122 -153l122 153h249z" />
    <glyph glyph-name="Dcaron" unicode="&#x10e;" horiz-adv-x="1593" 
d="M156 1466h673q358 0 524 -209q152 -192 152 -519q0 -191 -37 -315q-47 -158 -165 -266q-95 -88 -204 -117q-150 -40 -270 -40h-673v1466zM609 1134v-801h111q120 0 176 21q81 30 120 121q34 78 34 254q0 208 -60 296q-73 109 -268 109h-113zM916 1562h-288l-222 286h247
l122 -153l122 153h249z" />
    <glyph glyph-name="dcaron" unicode="&#x10f;" horiz-adv-x="1728" 
d="M1241 1466v-1466h-381v157q-80 -100 -146 -135q-87 -46 -196 -46q-222 0 -342 179q-104 154 -104 387q0 232 106 378q119 166 342 166q190 0 310 -128v508h411zM833 534q0 104 -41 169q-49 79 -146 79q-167 0 -167 -257q0 -251 172 -251q182 0 182 260zM1423 1466h270
v-196q0 -111 -49 -175q-44 -60 -150 -106l-71 104q121 54 122 137h-122v236z" />
    <glyph glyph-name="Dslash" unicode="&#x110;" horiz-adv-x="1593" 
d="M887 531v305h700v-625q-191 -130 -341 -181q-162 -55 -381 -55q-498 0 -680 354q-91 176 -91 404q0 501 389 687q148 71 401 71q196 0 305 -27q161 -40 259 -153q79 -93 119 -235l-437 -78q-56 171 -256 171q-326 0 -326 -431q0 -442 339 -442q140 0 303 97v138h-303z
M1030 1854h165q-12 -188 -163 -263q-79 -39 -171 -39q-149 0 -240 77q-94 79 -109 225h172q37 -107 168 -107q76 0 113 18q47 24 65 89z" />
    <glyph glyph-name="dcroat" unicode="&#x111;" 
d="M1241 1350h184v-163h-184v-1187h-381v157q-80 -100 -146 -135q-87 -46 -196 -46q-222 0 -342 179q-104 154 -104 387q0 232 106 378q119 166 342 166q190 0 310 -128v229h-306v163h306v116h411v-116zM833 534q0 104 -41 169q-49 79 -146 79q-167 0 -167 -257
q0 -251 172 -251q182 0 182 260z" />
    <glyph glyph-name="Emacron" unicode="&#x112;" horiz-adv-x="1479" 
d="M149 1466h1214v-313h-760v-233h705v-299h-705v-289h782v-332h-1236v1466zM450 1786h647v-217h-647v217z" />
    <glyph glyph-name="emacron" unicode="&#x113;" 
d="M1302 430h-816q11 -97 53 -146q60 -69 154 -69q61 0 114 30q32 18 71 67l401 -37q-100 -175 -248 -242q-127 -57 -347 -57q-189 0 -305 48q-140 57 -227 201q-80 129 -80 304q0 263 170 414q163 143 430 143q419 0 561 -269q69 -131 69 -341v-46zM888 625
q-22 220 -199 220q-96 0 -155 -77q-37 -49 -47 -143h401zM378 1446h647v-217h-647v217z" />
    <glyph glyph-name="Ebreve" unicode="&#x114;" horiz-adv-x="1479" 
d="M149 1466h1214v-313h-760v-233h705v-299h-705v-289h782v-332h-1236v1466zM934 1871h165q-12 -188 -163 -263q-79 -39 -171 -39q-149 0 -240 77q-94 79 -109 225h172q37 -107 168 -107q76 0 113 18q47 24 65 89z" />
    <glyph glyph-name="ebreve" unicode="&#x115;" 
d="M1302 430h-816q11 -97 53 -146q60 -69 154 -69q61 0 114 30q32 18 71 67l401 -37q-100 -175 -248 -242q-127 -57 -347 -57q-189 0 -305 48q-140 57 -227 201q-80 129 -80 304q0 263 170 414q163 143 430 143q419 0 561 -269q69 -131 69 -341v-46zM888 625
q-22 220 -199 220q-96 0 -155 -77q-37 -49 -47 -143h401zM846 1491h165q-12 -188 -163 -263q-79 -39 -171 -39q-149 0 -240 77q-94 79 -109 225h172q37 -107 168 -107q76 0 113 18q47 24 65 89z" />
    <glyph glyph-name="Edot" unicode="&#x116;" horiz-adv-x="1479" 
d="M149 1466h1214v-313h-760v-233h705v-299h-705v-289h782v-332h-1236v1466zM616 1868h314v-300h-314v300z" />
    <glyph glyph-name="edot" unicode="&#x117;" 
d="M1302 430h-816q11 -97 53 -146q60 -69 154 -69q61 0 114 30q32 18 71 67l401 -37q-100 -175 -248 -242q-127 -57 -347 -57q-189 0 -305 48q-140 57 -227 201q-80 129 -80 304q0 263 170 414q163 143 430 143q419 0 561 -269q69 -131 69 -341v-46zM888 625
q-22 220 -199 220q-96 0 -155 -77q-37 -49 -47 -143h401zM536 1496h314v-300h-314v300z" />
    <glyph glyph-name="Eogonek" unicode="&#x118;" horiz-adv-x="1479" 
d="M149 1466h1214v-313h-760v-233h705v-299h-705v-289h782v-332h-1236v1466zM923 26h169q-20 -87 -20 -144q0 -154 140 -154q47 0 128 26v-155q-124 -46 -212 -46q-114 0 -182 59q-71 63 -71 175q0 89 48 239z" />
    <glyph glyph-name="eogonek" unicode="&#x119;" 
d="M1302 430h-816q11 -97 53 -146q60 -69 154 -69q61 0 114 30q32 18 71 67l401 -37q-100 -175 -248 -242q-127 -57 -347 -57q-189 0 -305 48q-140 57 -227 201q-80 129 -80 304q0 263 170 414q163 143 430 143q419 0 561 -269q69 -131 69 -341v-46zM888 625
q-22 220 -199 220q-96 0 -155 -77q-37 -49 -47 -143h401zM622 26h169q-20 -87 -20 -144q0 -154 140 -154q47 0 128 26v-155q-124 -46 -212 -46q-114 0 -182 59q-71 63 -71 175q0 89 48 239z" />
    <glyph glyph-name="Ecaron" unicode="&#x11a;" horiz-adv-x="1479" 
d="M149 1466h1214v-313h-760v-233h705v-299h-705v-289h782v-332h-1236v1466zM913 1562h-288l-222 286h247l122 -153l122 153h249z" />
    <glyph glyph-name="ecaron" unicode="&#x11b;" 
d="M1302 430h-816q11 -97 53 -146q60 -69 154 -69q61 0 114 30q32 18 71 67l401 -37q-100 -175 -248 -242q-127 -57 -347 -57q-189 0 -305 48q-140 57 -227 201q-80 129 -80 304q0 263 170 414q163 143 430 143q419 0 561 -269q69 -131 69 -341v-46zM888 625
q-22 220 -199 220q-96 0 -155 -77q-37 -49 -47 -143h401zM824 1192h-288l-222 286h247l122 -153l122 153h249z" />
    <glyph glyph-name="Gcircumflex" unicode="&#x11c;" horiz-adv-x="1706" 
d="M887 531v305h700v-625q-191 -130 -341 -181q-162 -55 -381 -55q-498 0 -680 354q-91 176 -91 404q0 501 389 687q148 71 401 71q196 0 305 -27q161 -40 259 -153q79 -93 119 -235l-437 -78q-56 171 -256 171q-326 0 -326 -431q0 -442 339 -442q140 0 303 97v138h-303z
M737 1858h289l222 -286h-248l-122 153l-122 -153h-248z" />
    <glyph glyph-name="gcircumflex" unicode="&#x11d;" 
d="M862 1062h381l1 -1050q2 -96 -42 -191q-85 -179 -292 -227q-109 -25 -249 -25q-243 0 -372 58q-187 84 -187 295q0 20 2 54l395 -45q15 -55 46 -76q45 -31 113 -31q175 0 175 211v161q-60 -71 -120 -103q-94 -50 -203 -50q-213 0 -344 186q-93 132 -93 349q0 223 103 358
q115 150 331 150q121 0 202.5 -41.5t152.5 -139.5v157zM479 547q0 -226 178 -226q91 0 139 73q40 61 40 158q0 98 -43 163q-50 76 -143 76q-171 0 -171 -244zM541 1478h289l222 -286h-248l-122 153l-122 -153h-248z" />
    <glyph glyph-name="Gbreve" unicode="&#x11e;" horiz-adv-x="1706" 
d="M887 531v305h700v-625q-191 -130 -341 -181q-162 -55 -381 -55q-498 0 -680 354q-91 176 -91 404q0 501 389 687q148 71 401 71q196 0 305 -27q161 -40 259 -153q79 -93 119 -235l-437 -78q-56 171 -256 171q-326 0 -326 -431q0 -442 339 -442q140 0 303 97v138h-303z
M1030 1854h165q-12 -188 -163 -263q-79 -39 -171 -39q-149 0 -240 77q-94 79 -109 225h172q37 -107 168 -107q76 0 113 18q47 24 65 89z" />
    <glyph glyph-name="gbreve" unicode="&#x11f;" 
d="M862 1062h381l1 -1050q2 -96 -42 -191q-85 -179 -292 -227q-109 -25 -249 -25q-243 0 -372 58q-187 84 -187 295q0 20 2 54l395 -45q15 -55 46 -76q45 -31 113 -31q175 0 175 211v161q-60 -71 -120 -103q-94 -50 -203 -50q-213 0 -344 186q-93 132 -93 349q0 223 103 358
q115 150 331 150q121 0 202.5 -41.5t152.5 -139.5v157zM479 547q0 -226 178 -226q91 0 139 73q40 61 40 158q0 98 -43 163q-50 76 -143 76q-171 0 -171 -244zM860 1491h165q-12 -188 -163 -263q-79 -39 -171 -39q-149 0 -240 77q-94 79 -109 225h172q37 -107 168 -107
q76 0 113 18q47 24 65 89z" />
    <glyph glyph-name="Gdot" unicode="&#x120;" horiz-adv-x="1706" 
d="M887 531v305h700v-625q-191 -130 -341 -181q-162 -55 -381 -55q-498 0 -680 354q-91 176 -91 404q0 501 389 687q148 71 401 71q196 0 305 -27q161 -40 259 -153q79 -93 119 -235l-437 -78q-56 171 -256 171q-326 0 -326 -431q0 -442 339 -442q140 0 303 97v138h-303z
M720 1868h314v-300h-314v300z" />
    <glyph glyph-name="gdot" unicode="&#x121;" 
d="M862 1062h381l1 -1050q2 -96 -42 -191q-85 -179 -292 -227q-109 -25 -249 -25q-243 0 -372 58q-187 84 -187 295q0 20 2 54l395 -45q15 -55 46 -76q45 -31 113 -31q175 0 175 211v161q-60 -71 -120 -103q-94 -50 -203 -50q-213 0 -344 186q-93 132 -93 349q0 223 103 358
q115 150 331 150q121 0 202.5 -41.5t152.5 -139.5v157zM479 547q0 -226 178 -226q91 0 139 73q40 61 40 158q0 98 -43 163q-50 76 -143 76q-171 0 -171 -244zM524 1496h314v-300h-314v300z" />
    <glyph glyph-name="Gcedilla" unicode="&#x122;" horiz-adv-x="1706" 
d="M887 531v305h700v-625q-191 -130 -341 -181q-162 -55 -381 -55q-498 0 -680 354q-91 176 -91 404q0 501 389 687q148 71 401 71q196 0 305 -27q161 -40 259 -153q79 -93 119 -235l-437 -78q-56 171 -256 171q-326 0 -326 -431q0 -442 339 -442q140 0 303 97v138h-303z
M708 -165l30 118q94 23 176 23q301 0 301 -195q0 -126 -135 -181q-76 -31 -202 -31q-114 0 -268 26v123q104 -20 221 -20q147 0 147 83q0 71 -103 71q-71 0 -167 -17z" />
    <glyph glyph-name="gcedilla" unicode="&#x123;" 
d="M862 1062h381l1 -1050q2 -96 -42 -191q-85 -179 -292 -227q-109 -25 -249 -25q-243 0 -372 58q-187 84 -187 295q0 20 2 54l395 -45q15 -55 46 -76q45 -31 113 -31q175 0 175 211v161q-60 -71 -120 -103q-94 -50 -203 -50q-213 0 -344 186q-93 132 -93 349q0 223 103 358
q115 150 331 150q121 0 202.5 -41.5t152.5 -139.5v157zM479 547q0 -226 178 -226q91 0 139 73q40 61 40 158q0 98 -43 163q-50 76 -143 76q-171 0 -171 -244zM831 1193h-270v196q0 111 48 175q45 60 151 106l71 -104q-121 -54 -122 -137h122v-236z" />
    <glyph glyph-name="Hcircumflex" unicode="&#x124;" horiz-adv-x="1706" 
d="M152 1466h453v-513h495v513h455v-1466h-455v593h-495v-593h-453v1466zM713 1858h289l222 -286h-248l-122 153l-122 -153h-248z" />
    <glyph glyph-name="hcircumflex" unicode="&#x125;" 
d="M123 1466h407v-540q154 160 359 160q357 0 357 -411v-675h-409v584q0 183 -141 183q-166 0 -166 -257v-510h-407v1466zM545 1854h289l222 -286h-248l-122 153l-122 -153h-248z" />
    <glyph glyph-name="Hbar" unicode="&#x126;" horiz-adv-x="1706" 
d="M1688 1102h-134v-1102h-452v592h-498v-592h-452v1102h-134v221h134v143h452v-143h498v143h452v-143h134v-221zM1102 952v150h-498v-150h498z" />
    <glyph glyph-name="hbar" unicode="&#x127;" 
d="M1247 0h-407v584q0 184 -144 184q-166 0 -166 -258v-510h-407v1186h-103v186h103v94h407v-94h261v-186h-261v-260q144 159 361 159q356 0 356 -409v-676z" />
    <glyph glyph-name="Itilde" unicode="&#x128;" horiz-adv-x="797" 
d="M168 1466h454v-1466h-454v1466zM607 1846h158q1 -26 1 -45q0 -101 -49 -164q-53 -69 -151 -69q-64 0 -194 53q-79 32 -109 32q-60 0 -62 -82h-156q-1 24 -1 42q0 95 51 161q56 72 148 72q59 0 181 -51q83 -35 121 -35q58 0 62 86z" />
    <glyph glyph-name="itilde" unicode="&#x129;" horiz-adv-x="682" 
d="M138 1062h407v-1062h-407v1062zM555 1466h158q1 -26 1 -45q0 -101 -49 -164q-53 -69 -151 -69q-64 0 -194 53q-79 32 -109 32q-60 0 -62 -82h-156q-1 24 -1 42q0 95 51 161q56 72 148 72q59 0 181 -51q83 -35 121 -35q58 0 62 86z" />
    <glyph glyph-name="Imacron" unicode="&#x12a;" horiz-adv-x="797" 
d="M168 1466h454v-1466h-454v1466zM78 1786h647v-217h-647v217z" />
    <glyph glyph-name="imacron" unicode="&#x12b;" horiz-adv-x="682" 
d="M138 1062h407v-1062h-407v1062zM18 1446h647v-217h-647v217z" />
    <glyph glyph-name="Ibreve" unicode="&#x12c;" horiz-adv-x="797" 
d="M168 1466h454v-1466h-454v1466zM578 1875h165q-12 -188 -163 -263q-79 -39 -171 -39q-149 0 -240 77q-94 79 -109 225h172q37 -107 168 -107q76 0 113 18q47 24 65 89z" />
    <glyph glyph-name="ibreve" unicode="&#x12d;" horiz-adv-x="682" 
d="M138 1062h407v-1062h-407v1062zM518 1491h165q-12 -188 -163 -263q-79 -39 -171 -39q-149 0 -240 77q-94 79 -109 225h172q37 -107 168 -107q76 0 113 18q47 24 65 89z" />
    <glyph glyph-name="Iogonek" unicode="&#x12e;" horiz-adv-x="797" 
d="M698 -401q-113 -45 -211 -45q-114 0 -182 59q-72 62 -72 174q0 87 41 213h-102v1466h453v-1466h-181q-12 -65 -12 -119q0 -153 139 -153q46 0 127 26v-155z" />
    <glyph glyph-name="iogonek" unicode="&#x12f;" horiz-adv-x="682" 
d="M616 -401q-113 -45 -210 -45q-114 0 -182 59q-72 62 -72 174q0 87 41 213h-56v1061h408v-1061h-183q-12 -65 -12 -119q0 -153 139 -153q46 0 127 26v-155zM138 1466h407v-277h-407v277z" />
    <glyph glyph-name="Idotaccent" unicode="&#x130;" horiz-adv-x="797" 
d="M168 1466h454v-1466h-454v1466zM242 1855h314v-300h-314v300z" />
    <glyph glyph-name="dotlessi" unicode="&#x131;" horiz-adv-x="682" 
d="M138 1062h407v-1062h-407v1062z" />
    <glyph glyph-name="IJ" unicode="&#x132;" horiz-adv-x="2105" 
d="M1952 672q0 -328 -90 -473q-110 -175 -320 -211q-80 -13 -158 -13q-579 0 -612 521l432 59q0 -240 148 -240q147 0 147 248v903h453v-794zM625 0h-453v1466h453v-1466z" />
    <glyph glyph-name="ij" unicode="&#x133;" horiz-adv-x="1368" 
d="M1231 1188h-408v278h408v-278zM545 1188h-408v278h408v-278zM1231 33q0 -151 -12 -215q-23 -117 -100.5 -182.5t-241.5 -65.5q-132 0 -293 35l61 295q56 -11 72 -11q106 0 106 179v993h408v-1028zM545 0h-408v1061h408v-1061z" />
    <glyph glyph-name="Jcircumflex" unicode="&#x134;" 
d="M760 1466h454v-797q0 -228 -31 -337q-47 -169 -192 -267q-135 -91 -345 -91q-397 0 -532 236q-67 115 -79 285l433 59q2 -168 71 -220q25 -19 74 -19q147 0 147 247v904zM557 1854h289l222 -286h-248l-122 153l-122 -153h-248z" />
    <glyph glyph-name="jcircumflex" unicode="&#x135;" horiz-adv-x="682" 
d="M707 1192h-248l-121 154l-123 -154h-248l230 287h288zM139 1062h408v-1030q0 -161 -15 -228q-27 -123 -119 -184q-77 -51 -220 -51q-118 0 -293 35l61 296q49 -10 72 -10q106 0 106 177v995z" />
    <glyph glyph-name="Kcedilla" unicode="&#x136;" horiz-adv-x="1706" 
d="M152 1466h453v-554l475 554h602l-534 -553l558 -913h-558l-309 603l-234 -245v-358h-453v1466zM746 -121h270v-196q0 -111 -49 -175q-44 -60 -150 -106l-71 104q121 54 122 137h-122v236z" />
    <glyph glyph-name="kcedilla" unicode="&#x137;" 
d="M123 1466h416v-756l304 352h501l-381 -372l403 -690h-459l-215 426l-153 -150v-276h-416v1466zM574 -121h270v-196q0 -111 -49 -175q-44 -60 -150 -106l-71 104q121 54 122 137h-122v236z" />
    <glyph glyph-name="kgreenlandic" unicode="&#x138;" 
d="M1358 0h-459l-215 426l-154 -150v-276h-407v1061h407v-352l306 352h499l-379 -371z" />
    <glyph glyph-name="Lacute" unicode="&#x139;" 
d="M150 1466h453v-1105h707v-361h-1160v1466zM720 1862h350l-323 -299h-195z" />
    <glyph glyph-name="lacute" unicode="&#x13a;" horiz-adv-x="682" 
d="M137 1466h408v-1466h-408v1466zM348 1862h350l-323 -299h-195z" />
    <glyph glyph-name="Lcedilla" unicode="&#x13b;" 
d="M150 1466h453v-1105h707v-361h-1160v1466zM532 -165l30 118q94 23 176 23q301 0 301 -195q0 -126 -135 -181q-76 -31 -202 -31q-114 0 -268 26v123q104 -20 221 -20q147 0 147 83q0 71 -103 71q-71 0 -167 -17z" />
    <glyph glyph-name="lcedilla" unicode="&#x13c;" horiz-adv-x="682" 
d="M137 1466h408v-1466h-408v1466zM116 -165l30 118q94 23 176 23q301 0 301 -195q0 -126 -135 -181q-76 -31 -202 -31q-114 0 -268 26v123q104 -20 221 -20q147 0 147 83q0 71 -103 71q-71 0 -167 -17z" />
    <glyph glyph-name="Lcaron" unicode="&#x13d;" 
d="M150 1466h453v-1105h707v-361h-1160v1466zM956 1466h270v-196q0 -111 -49 -175q-44 -60 -150 -106l-71 104q121 54 122 137h-122v236z" />
    <glyph glyph-name="lcaron" unicode="&#x13e;" horiz-adv-x="1024" 
d="M137 1466h408v-1466h-408v1466zM717 1466h270v-196q0 -111 -49 -175q-44 -60 -150 -106l-71 104q121 54 122 137h-122v236z" />
    <glyph glyph-name="Ldot" unicode="&#x13f;" 
d="M150 1466h453v-1105h707v-361h-1160v1466zM900 1068h314v-300h-314v300z" />
    <glyph glyph-name="ldot" unicode="&#x140;" horiz-adv-x="1094" 
d="M137 1466h408v-1466h-408v1466zM696 1068h314v-300h-314v300z" />
    <glyph glyph-name="Lslash" unicode="&#x141;" 
d="M150 1466h453v-404l318 239v-280l-318 -240v-420h706v-361h-1159v439l-151 -116v280l151 114v749z" />
    <glyph glyph-name="lslash" unicode="&#x142;" horiz-adv-x="682" 
d="M138 1466h409v-469l136 89v-196l-136 -91v-799h-409v528l-138 -92v196l138 93v741z" />
    <glyph glyph-name="Nacute" unicode="&#x143;" horiz-adv-x="1706" 
d="M153 1466h423l552 -811v811h427v-1466h-427l-549 805v-805h-426v1466zM842 1862h350l-323 -299h-195z" />
    <glyph glyph-name="nacute" unicode="&#x144;" 
d="M123 1062h379v-173q83 104 167 149q91 48 217 48q360 0 360 -411v-675h-409v584q0 183 -141 183q-166 0 -166 -257v-510h-407v1062zM677 1491h350l-323 -299h-195z" />
    <glyph glyph-name="Ncedilla" unicode="&#x145;" horiz-adv-x="1706" 
d="M153 1466h423l552 -811v811h427v-1466h-427l-549 805v-805h-426v1466zM668 -165l30 118q94 23 176 23q301 0 301 -195q0 -126 -135 -181q-76 -31 -202 -31q-114 0 -268 26v123q104 -20 221 -20q147 0 147 83q0 71 -103 71q-71 0 -167 -17z" />
    <glyph glyph-name="ncedilla" unicode="&#x146;" 
d="M123 1062h379v-173q83 104 167 149q91 48 217 48q360 0 360 -411v-675h-409v584q0 183 -141 183q-166 0 -166 -257v-510h-407v1062zM524 -165l30 118q94 23 176 23q301 0 301 -195q0 -126 -135 -181q-76 -31 -202 -31q-114 0 -268 26v123q104 -20 221 -20q147 0 147 83
q0 71 -103 71q-71 0 -167 -17z" />
    <glyph glyph-name="Ncaron" unicode="&#x147;" horiz-adv-x="1706" 
d="M153 1466h423l552 -811v811h427v-1466h-427l-549 805v-805h-426v1466zM992 1562h-288l-222 286h247l122 -153l122 153h249z" />
    <glyph glyph-name="ncaron" unicode="&#x148;" 
d="M123 1062h379v-173q83 104 167 149q91 48 217 48q360 0 360 -411v-675h-409v584q0 183 -141 183q-166 0 -166 -257v-510h-407v1062zM827 1192h-288l-222 286h247l122 -153l122 153h249z" />
    <glyph glyph-name="napostrophe" unicode="&#x149;" horiz-adv-x="1757" 
d="M449 1169q0 -314 -299 -440l-97 129q184 83 189 242h-189v366h396v-297zM1638 0h-407v584q0 184 -144 184q-165 0 -165 -258v-510h-408v1061h381v-172h4q137 196 379 196q360 0 360 -409v-676z" />
    <glyph glyph-name="Eng" unicode="&#x14a;" horiz-adv-x="1667" 
d="M582 1294q71 91 212 147q128 50 255 50q526 0 526 -801q0 -450 -82 -705q-135 -415 -489 -415q-103 0 -242 35l61 336q54 -11 88 -11q211 0 211 744q0 438 -264 438q-90 0 -167 -49q-87 -56 -87 -141v-922h-452v1466h426v-172h4z" />
    <glyph glyph-name="eng" unicode="&#x14b;" horiz-adv-x="1395" 
d="M555 889q132 196 360 196q239 0 323 -238q50 -143 50 -441q0 -336 -53 -519q-91 -317 -344 -317q-129 0 -262 35l61 295q39 -11 72 -11q85 0 110 220q9 83 9 278q0 171 -14 241q-33 160 -142 160q-147 0 -147 -249v-539h-426v1061h399v-172h4z" />
    <glyph glyph-name="Omacron" unicode="&#x14c;" horiz-adv-x="1706" 
d="M93 732q0 359 199 559t558 200q361 0 560 -192q202 -195 202 -555q0 -489 -336 -677q-164 -92 -408 -92q-480 0 -674 329q-101 171 -101 428zM546 730q0 -416 307 -416q180 0 252 136q54 101 54 300q0 398 -310 398q-303 0 -303 -418zM530 1786h647v-217h-647v217z" />
    <glyph glyph-name="omacron" unicode="&#x14d;" 
d="M73 528q0 259 176 412q168 146 431 146q319 0 482 -185q131 -149 131 -367q0 -264 -177 -415q-167 -143 -435 -143q-257 0 -414 130q-194 160 -194 422zM481 529q0 -115 43 -188q52 -90 159 -90q201 0 201 282q0 111 -42 184q-52 89 -156 89q-108 0 -161 -89
q-44 -73 -44 -188zM358 1446h647v-217h-647v217z" />
    <glyph glyph-name="Obreve" unicode="&#x14e;" horiz-adv-x="1706" 
d="M93 732q0 359 199 559t558 200q361 0 560 -192q202 -195 202 -555q0 -489 -336 -677q-164 -92 -408 -92q-480 0 -674 329q-101 171 -101 428zM546 730q0 -416 307 -416q180 0 252 136q54 101 54 300q0 398 -310 398q-303 0 -303 -418zM1018 1875h165q-12 -188 -163 -263
q-79 -39 -171 -39q-149 0 -240 77q-94 79 -109 225h172q37 -107 168 -107q76 0 113 18q47 24 65 89z" />
    <glyph glyph-name="obreve" unicode="&#x14f;" 
d="M73 528q0 259 176 412q168 146 431 146q319 0 482 -185q131 -149 131 -367q0 -264 -177 -415q-167 -143 -435 -143q-257 0 -414 130q-194 160 -194 422zM481 529q0 -115 43 -188q52 -90 159 -90q201 0 201 282q0 111 -42 184q-52 89 -156 89q-108 0 -161 -89
q-44 -73 -44 -188zM850 1491h165q-12 -188 -163 -263q-79 -39 -171 -39q-149 0 -240 77q-94 79 -109 225h172q37 -107 168 -107q76 0 113 18q47 24 65 89z" />
    <glyph glyph-name="Odblacute" unicode="&#x150;" horiz-adv-x="1706" 
d="M93 732q0 359 199 559t558 200q361 0 560 -192q202 -195 202 -555q0 -489 -336 -677q-164 -92 -408 -92q-480 0 -674 329q-101 171 -101 428zM546 730q0 -416 307 -416q180 0 252 136q54 101 54 300q0 398 -310 398q-303 0 -303 -418zM634 1863h325l-296 -295h-197z
M1031 1863h328l-302 -295h-191z" />
    <glyph glyph-name="odblacute" unicode="&#x151;" 
d="M73 528q0 259 176 412q168 146 431 146q319 0 482 -185q131 -149 131 -367q0 -264 -177 -415q-167 -143 -435 -143q-257 0 -414 130q-194 160 -194 422zM481 529q0 -115 43 -188q52 -90 159 -90q201 0 201 282q0 111 -42 184q-52 89 -156 89q-108 0 -161 -89
q-44 -73 -44 -188zM462 1491h325l-296 -295h-197zM859 1491h328l-302 -295h-191z" />
    <glyph glyph-name="OE" unicode="&#x152;" horiz-adv-x="2048" 
d="M1013 1466h941v-313h-542v-233h486v-299h-486v-289h572v-332h-971v162q-64 -93 -138 -134q-98 -54 -236 -54q-249 0 -392 168q-176 207 -176 586q0 382 173 589q146 174 376 174q241 0 393 -180v155zM741 1155q-77 0 -136.5 -49t-81.5 -125q-24 -79 -24 -275
q0 -280 123 -360q60 -39 119 -39q71 0 131 48q57 46 82 115q28 78 28 277q0 284 -112 365q-60 43 -129 43z" />
    <glyph glyph-name="oe" unicode="&#x153;" horiz-adv-x="2048" 
d="M1990 436h-773q17 -218 186 -218q96 0 164 98l392 -36q-137 -304 -540 -304q-244 0 -415 118q-180 -118 -364 -118q-255 0 -418 156.5t-163 410.5q0 274 201 431q144 112 374 112q203 0 387 -123q183 123 397 123q270 0 422 -155t152 -425q0 -23 -2 -70zM1583 629
q-22 215 -180 215q-164 0 -190 -215h370zM466 543q0 -270 170 -270q109 0 149 93q27 62 27 190q0 254 -161 254q-185 0 -185 -267z" />
    <glyph glyph-name="Racute" unicode="&#x154;" horiz-adv-x="1593" 
d="M156 0v1466h755q182 0 275 -23q149 -37 225 -146q68 -98 68 -238q0 -236 -195 -354q-58 -35 -159 -58q81 -27 118 -54q27 -20 73 -77.5t63 -90.5l219 -425h-512l-242 448q-48 89 -82 113q-48 34 -111 34h-40v-595h-455zM611 872h191q28 0 120 20q102 22 102 131
q0 147 -214 147h-199v-298zM823 1858h350l-323 -299h-195z" />
    <glyph glyph-name="racute" unicode="&#x155;" horiz-adv-x="909" 
d="M127 1062h381v-174q48 99 98 143q63 55 160 55q90 0 197 -56l-126 -290q-72 30 -114 30q-187 0 -187 -414v-356h-409v1062zM512 1491h350l-323 -299h-195z" />
    <glyph glyph-name="Rcedilla" unicode="&#x156;" horiz-adv-x="1593" 
d="M156 0v1466h755q182 0 275 -23q149 -37 225 -146q68 -98 68 -238q0 -236 -195 -354q-58 -35 -159 -58q81 -27 118 -54q27 -20 73 -77.5t63 -90.5l219 -425h-512l-242 448q-48 89 -82 113q-48 34 -111 34h-40v-595h-455zM611 872h191q28 0 120 20q102 22 102 131
q0 147 -214 147h-199v-298zM632 -165l30 118q94 23 176 23q301 0 301 -195q0 -126 -135 -181q-76 -31 -202 -31q-114 0 -268 26v123q104 -20 221 -20q147 0 147 83q0 71 -103 71q-71 0 -167 -17z" />
    <glyph glyph-name="rcedilla" unicode="&#x157;" horiz-adv-x="909" 
d="M127 1062h381v-174q48 99 98 143q63 55 160 55q90 0 197 -56l-126 -290q-72 30 -114 30q-187 0 -187 -414v-356h-409v1062zM264 -165l30 118q94 23 176 23q301 0 301 -195q0 -126 -135 -181q-76 -31 -202 -31q-114 0 -268 26v123q104 -20 221 -20q147 0 147 83
q0 71 -103 71q-71 0 -167 -17z" />
    <glyph glyph-name="Rcaron" unicode="&#x158;" horiz-adv-x="1593" 
d="M156 0v1466h755q182 0 275 -23q149 -37 225 -146q68 -98 68 -238q0 -236 -195 -354q-58 -35 -159 -58q81 -27 118 -54q27 -20 73 -77.5t63 -90.5l219 -425h-512l-242 448q-48 89 -82 113q-48 34 -111 34h-40v-595h-455zM611 872h191q28 0 120 20q102 22 102 131
q0 147 -214 147h-199v-298zM973 1562h-288l-222 286h247l122 -153l122 153h249z" />
    <glyph glyph-name="rcaron" unicode="&#x159;" horiz-adv-x="909" 
d="M127 1062h381v-174q48 99 98 143q63 55 160 55q90 0 197 -56l-126 -290q-72 30 -114 30q-187 0 -187 -414v-356h-409v1062zM667 1192h-288l-222 286h247l122 -153l122 153h249z" />
    <glyph glyph-name="Sacute" unicode="&#x15a;" horiz-adv-x="1479" 
d="M71 485l431 27q14 -105 57 -160q70 -89 200 -89q79 0 135 35q67 42 67 116q0 85 -105 135q-51 24 -177 52q-243 54 -369 137q-184 120 -184 324q0 125 74 225q69 94 189 147q131 57 360 57q262 0 405 -89q169 -105 199 -348l-427 -25q-32 189 -222 189q-159 0 -159 -115
q0 -78 185 -117q228 -49 337 -91q201 -77 276 -201q58 -97 58 -217q0 -146 -80 -263.5t-216 -176.5q-140 -62 -353 -62q-302 0 -465 104q-192 124 -216 406zM732 1862h350l-323 -299h-195z" />
    <glyph glyph-name="sacute" unicode="&#x15b;" horiz-adv-x="1251" 
d="M51 294l404 38q47 -134 190 -134q59 0 104 21q58 27 58 79q0 44 -46 68q-33 17 -175 42q-187 33 -236 48q-133 41 -197 127q-57 75 -57 171q0 214 229 295q107 37 287 37q150 0 230 -17q126 -26 202 -102q60 -61 100 -165l-386 -38q-31 107 -166 107q-132 0 -132 -84
q0 -53 87 -76q27 -7 127 -19q166 -19 248 -45q142 -44 206 -136q52 -76 52 -167q0 -218 -230 -317q-120 -52 -326 -52q-231 0 -356 53q-173 74 -217 266zM600 1491h350l-323 -299h-195z" />
    <glyph glyph-name="Scircumflex" unicode="&#x15c;" horiz-adv-x="1479" 
d="M71 485l431 27q14 -105 57 -160q70 -89 200 -89q79 0 135 35q67 42 67 116q0 85 -105 135q-51 24 -177 52q-243 54 -369 137q-184 120 -184 324q0 125 74 225q69 94 189 147q131 57 360 57q262 0 405 -89q169 -105 199 -348l-427 -25q-32 189 -222 189q-159 0 -159 -115
q0 -78 185 -117q228 -49 337 -91q201 -77 276 -201q58 -97 58 -217q0 -146 -80 -263.5t-216 -176.5q-140 -62 -353 -62q-302 0 -465 104q-192 124 -216 406zM597 1862h289l222 -286h-248l-122 153l-122 -153h-248z" />
    <glyph glyph-name="scircumflex" unicode="&#x15d;" horiz-adv-x="1251" 
d="M51 294l404 38q47 -134 190 -134q59 0 104 21q58 27 58 79q0 44 -46 68q-33 17 -175 42q-187 33 -236 48q-133 41 -197 127q-57 75 -57 171q0 214 229 295q107 37 287 37q150 0 230 -17q126 -26 202 -102q60 -61 100 -165l-386 -38q-31 107 -166 107q-132 0 -132 -84
q0 -53 87 -76q27 -7 127 -19q166 -19 248 -45q142 -44 206 -136q52 -76 52 -167q0 -218 -230 -317q-120 -52 -326 -52q-231 0 -356 53q-173 74 -217 266zM465 1478h289l222 -286h-248l-122 153l-122 -153h-248z" />
    <glyph glyph-name="Scedilla" unicode="&#x15e;" horiz-adv-x="1479" 
d="M71 485l431 27q14 -105 57 -160q70 -89 200 -89q79 0 135 35q67 42 67 116q0 85 -105 135q-51 24 -177 52q-243 54 -369 137q-184 120 -184 324q0 125 74 225q69 94 189 147q131 57 360 57q262 0 405 -89q169 -105 199 -348l-427 -25q-32 189 -222 189q-159 0 -159 -115
q0 -78 185 -117q228 -49 337 -91q201 -77 276 -201q58 -97 58 -217q0 -146 -80 -263.5t-216 -176.5q-140 -62 -353 -62q-302 0 -465 104q-192 124 -216 406zM515 -165l30 118q94 23 176 23q301 0 301 -195q0 -126 -135 -181q-76 -31 -202 -31q-114 0 -268 26v123
q104 -20 221 -20q147 0 147 83q0 71 -103 71q-71 0 -167 -17z" />
    <glyph glyph-name="scedilla" unicode="&#x15f;" horiz-adv-x="1251" 
d="M51 294l404 38q47 -134 190 -134q59 0 104 21q58 27 58 79q0 44 -46 68q-33 17 -175 42q-187 33 -236 48q-133 41 -197 127q-57 75 -57 171q0 214 229 295q107 37 287 37q150 0 230 -17q126 -26 202 -102q60 -61 100 -165l-386 -38q-31 107 -166 107q-132 0 -132 -84
q0 -53 87 -76q27 -7 127 -19q166 -19 248 -45q142 -44 206 -136q52 -76 52 -167q0 -218 -230 -317q-120 -52 -326 -52q-231 0 -356 53q-173 74 -217 266zM401 -165l30 118q94 23 176 23q301 0 301 -195q0 -126 -135 -181q-76 -31 -202 -31q-114 0 -268 26v123
q104 -20 221 -20q147 0 147 83q0 71 -103 71q-71 0 -167 -17z" />
    <glyph glyph-name="Scaron" unicode="&#x160;" horiz-adv-x="1479" 
d="M71 485l431 27q14 -105 57 -160q70 -89 200 -89q79 0 135 35q67 42 67 116q0 85 -105 135q-51 24 -177 52q-243 54 -369 137q-184 120 -184 324q0 125 74 225q69 94 189 147q131 57 360 57q262 0 405 -89q169 -105 199 -348l-427 -25q-32 189 -222 189q-159 0 -159 -115
q0 -78 185 -117q228 -49 337 -91q201 -77 276 -201q58 -97 58 -217q0 -146 -80 -263.5t-216 -176.5q-140 -62 -353 -62q-302 0 -465 104q-192 124 -216 406zM881 1555h-288l-222 286h247l122 -153l122 153h249z" />
    <glyph glyph-name="scaron" unicode="&#x161;" horiz-adv-x="1251" 
d="M51 294l404 38q47 -134 190 -134q59 0 104 21q58 27 58 79q0 44 -46 68q-33 17 -175 42q-187 33 -236 48q-133 41 -197 127q-57 75 -57 171q0 214 229 295q107 37 287 37q150 0 230 -17q126 -26 202 -102q60 -61 100 -165l-386 -38q-31 107 -166 107q-132 0 -132 -84
q0 -53 87 -76q27 -7 127 -19q166 -19 248 -45q142 -44 206 -136q52 -76 52 -167q0 -218 -230 -317q-120 -52 -326 -52q-231 0 -356 53q-173 74 -217 266zM767 1192h-288l-222 286h247l122 -153l122 153h249z" />
    <glyph glyph-name="Tcedilla" unicode="&#x162;" horiz-adv-x="1479" 
d="M47 1466h1377v-362h-462v-1104h-453v1104h-462v362zM597 -121h270v-196q0 -111 -49 -175q-44 -60 -150 -106l-71 104q121 54 122 137h-122v236z" />
    <glyph glyph-name="tcedilla" unicode="&#x163;" horiz-adv-x="909" 
d="M614 1466v-404h224v-297h-224v-377q0 -68 13 -90q20 -34 70 -34q45 0 126 26l30 -281q-151 -33 -282 -33q-125 0 -194 26q-95 36 -136 132q-35 79 -35 257v374h-150v297h150v195zM352 -121h270v-196q0 -111 -49 -175q-44 -60 -150 -106l-71 104q121 54 122 137h-122v236z
" />
    <glyph glyph-name="Tcaron" unicode="&#x164;" horiz-adv-x="1479" 
d="M47 1466h1377v-362h-462v-1104h-453v1104h-462v362zM884 1562h-288l-222 286h247l122 -153l122 153h249z" />
    <glyph glyph-name="tcaron" unicode="&#x165;" horiz-adv-x="1280" 
d="M614 1466v-404h224v-297h-224v-377q0 -68 13 -90q20 -34 70 -34q45 0 126 26l30 -281q-151 -33 -282 -33q-125 0 -194 26q-95 36 -136 132q-35 79 -35 257v374h-150v297h150v195zM966 1466h270v-196q0 -111 -49 -175q-44 -60 -150 -106l-71 104q121 54 122 137h-122v236z
" />
    <glyph glyph-name="Tbar" unicode="&#x166;" horiz-adv-x="1479" 
d="M1427 1106h-460v-283h192v-262h-192v-561h-453v561h-182v262h182v283h-461v360h1374v-360z" />
    <glyph glyph-name="tbar" unicode="&#x167;" horiz-adv-x="909" 
d="M850 8q-147 -33 -283 -33q-280 0 -336 172q-28 84 -28 244v31h-150v221h150v121h-150v297h150v196l407 209v-405h224v-297h-224v-121h176v-221h-176v-33q0 -61 12 -87q19 -38 72 -38q51 0 125 27z" />
    <glyph glyph-name="Utilde" unicode="&#x168;" horiz-adv-x="1706" 
d="M1104 1466h452v-874q0 -280 -167 -447q-87 -87 -182 -122q-132 -49 -317 -49q-303 0 -445 75q-85 44 -155 125t-97 170q-42 140 -42 248v874h452v-895q0 -119 66 -187t185 -68t184.5 67.5t65.5 187.5v895zM1055 1850h158q1 -26 1 -45q0 -101 -49 -164q-53 -69 -151 -69
q-64 0 -194 53q-79 32 -109 32q-60 0 -62 -82h-156q-1 24 -1 42q0 95 51 161q56 72 148 72q59 0 181 -51q83 -35 121 -35q58 0 62 86z" />
    <glyph glyph-name="utilde" unicode="&#x169;" 
d="M1242 0h-380v172q-83 -104 -167 -148q-90 -48 -217 -48q-359 0 -359 410v676h409v-584q0 -184 141 -184q166 0 166 257v511h407v-1062zM887 1466h158q1 -26 1 -45q0 -101 -49 -164q-53 -69 -151 -69q-64 0 -194 53q-79 32 -109 32q-60 0 -62 -82h-156q-1 24 -1 42
q0 95 51 161q56 72 148 72q59 0 181 -51q83 -35 121 -35q58 0 62 86z" />
    <glyph glyph-name="Umacron" unicode="&#x16a;" horiz-adv-x="1706" 
d="M1104 1466h452v-874q0 -280 -167 -447q-87 -87 -182 -122q-132 -49 -317 -49q-303 0 -445 75q-85 44 -155 125t-97 170q-42 140 -42 248v874h452v-895q0 -119 66 -187t185 -68t184.5 67.5t65.5 187.5v895zM534 1786h647v-217h-647v217z" />
    <glyph glyph-name="umacron" unicode="&#x16b;" 
d="M1242 0h-380v172q-83 -104 -167 -148q-90 -48 -217 -48q-359 0 -359 410v676h409v-584q0 -184 141 -184q166 0 166 257v511h407v-1062zM354 1446h647v-217h-647v217z" />
    <glyph glyph-name="Ubreve" unicode="&#x16c;" horiz-adv-x="1706" 
d="M1104 1466h452v-874q0 -280 -167 -447q-87 -87 -182 -122q-132 -49 -317 -49q-303 0 -445 75q-85 44 -155 125t-97 170q-42 140 -42 248v874h452v-895q0 -119 66 -187t185 -68t184.5 67.5t65.5 187.5v895zM1026 1875h165q-12 -188 -163 -263q-79 -39 -171 -39
q-149 0 -240 77q-94 79 -109 225h172q37 -107 168 -107q76 0 113 18q47 24 65 89z" />
    <glyph glyph-name="ubreve" unicode="&#x16d;" 
d="M1242 0h-380v172q-83 -104 -167 -148q-90 -48 -217 -48q-359 0 -359 410v676h409v-584q0 -184 141 -184q166 0 166 257v511h407v-1062zM858 1491h165q-12 -188 -163 -263q-79 -39 -171 -39q-149 0 -240 77q-94 79 -109 225h172q37 -107 168 -107q76 0 113 18q47 24 65 89
z" />
    <glyph glyph-name="Uring" unicode="&#x16e;" horiz-adv-x="1706" 
d="M1104 1466h452v-874q0 -280 -167 -447q-87 -87 -182 -122q-132 -49 -317 -49q-303 0 -445 75q-85 44 -155 125t-97 170q-42 140 -42 248v874h452v-895q0 -119 66 -187t185 -68t184.5 67.5t65.5 187.5v895zM1094 1773q0 -100 -70 -170t-170 -70q-101 0 -171 69.5
t-70 170.5t70 171t171 70q100 0 170 -70.5t70 -170.5zM956 1774q0 43 -30 73t-73 30t-73 -30t-30 -73t30 -73t73 -30t73 30t30 73z" />
    <glyph glyph-name="uring" unicode="&#x16f;" 
d="M1242 0h-380v172q-83 -104 -167 -148q-90 -48 -217 -48q-359 0 -359 410v676h409v-584q0 -184 141 -184q166 0 166 257v511h407v-1062zM923 1403q0 -100 -70 -170t-170 -70q-101 0 -171 69.5t-70 170.5t70 171t171 70q100 0 170 -70.5t70 -170.5zM785 1404q0 43 -30 73
t-73 30t-73 -30t-30 -73t30 -73t73 -30t73 30t30 73z" />
    <glyph glyph-name="Udblacute" unicode="&#x170;" horiz-adv-x="1706" 
d="M1104 1466h452v-874q0 -280 -167 -447q-87 -87 -182 -122q-132 -49 -317 -49q-303 0 -445 75q-85 44 -155 125t-97 170q-42 140 -42 248v874h452v-895q0 -119 66 -187t185 -68t184.5 67.5t65.5 187.5v895zM721 1861h325l-296 -295h-197zM1118 1861h328l-302 -295h-191z
" />
    <glyph glyph-name="udblacute" unicode="&#x171;" 
d="M1242 0h-380v172q-83 -104 -167 -148q-90 -48 -217 -48q-359 0 -359 410v676h409v-584q0 -184 141 -184q166 0 166 257v511h407v-1062zM458 1491h325l-296 -295h-197zM855 1491h328l-302 -295h-191z" />
    <glyph glyph-name="Uogonek" unicode="&#x172;" horiz-adv-x="1706" 
d="M1161 -401q-113 -45 -211 -45q-114 0 -182 59q-72 62 -72 174q0 78 35 195q-274 14 -426.5 175t-152.5 435v874h452v-895q0 -256 250 -256q248 0 248 256v895h452v-874q0 -299 -178 -460q-170 -155 -473 -157q-8 -55 -8 -94q0 -153 139 -153q46 0 127 26v-155z" />
    <glyph glyph-name="uogonek" unicode="&#x173;" 
d="M1286 -401q-114 -45 -211 -45q-114 0 -182 59q-72 62 -72 174q0 63 21 140l20 73v172h-4q-137 -197 -379 -197q-360 0 -360 410v676h407v-584q0 -184 144 -184q166 0 166 258v510h407v-1061h-211q-12 -65 -12 -119q0 -153 139 -153q46 0 127 26v-155z" />
    <glyph glyph-name="Wcircumflex" unicode="&#x174;" horiz-adv-x="2048" 
d="M-1 1466h430l155 -819l226 819h429l227 -819l155 819h428l-323 -1466h-444l-257 923l-256 -923h-444zM885 1854h289l222 -286h-248l-122 153l-122 -153h-248z" />
    <glyph glyph-name="wcircumflex" unicode="&#x175;" horiz-adv-x="1933" 
d="M3 1062h394l171 -669l216 669h367l224 -669l171 669h391l-391 -1062h-362l-215 639l-208 -639h-364zM817 1478h289l222 -286h-248l-122 153l-122 -153h-248z" />
    <glyph glyph-name="Ycircumflex" unicode="&#x176;" horiz-adv-x="1593" 
d="M2 1466h503l296 -495l296 495h500l-570 -852v-614h-454v614zM657 1854h289l222 -286h-248l-122 153l-122 -153h-248z" />
    <glyph glyph-name="ycircumflex" unicode="&#x177;" horiz-adv-x="1251" 
d="M5 1062h430l219 -707l203 707h401l-421 -1135q-72 -194 -147 -262q-106 -96 -323 -96q-88 0 -272 24l-32 284q88 -28 196 -28q137 0 192 151zM505 1478h289l222 -286h-248l-122 153l-122 -153h-248z" />
    <glyph glyph-name="Ydieresis" unicode="&#x178;" horiz-adv-x="1593" 
d="M2 1466h503l296 -495l296 495h500l-570 -852v-614h-454v614zM454 1809h260v-250h-260v250zM878 1809h263v-250h-263v250z" />
    <glyph glyph-name="Zacute" unicode="&#x179;" horiz-adv-x="1479" 
d="M113 1466h1282v-293l-822 -858h852v-315h-1391v304l813 849h-734v313zM726 1862h350l-323 -299h-195z" />
    <glyph glyph-name="zacute" unicode="&#x17a;" horiz-adv-x="1139" 
d="M77 1062h985v-238l-536 -546h569v-278h-1058v264l508 520h-468v278zM564 1491h350l-323 -299h-195z" />
    <glyph glyph-name="Zdot" unicode="&#x17b;" horiz-adv-x="1479" 
d="M113 1466h1282v-293l-822 -858h852v-315h-1391v304l813 849h-734v313zM609 1855h314v-300h-314v300z" />
    <glyph glyph-name="zdot" unicode="&#x17c;" horiz-adv-x="1139" 
d="M77 1062h985v-238l-536 -546h569v-278h-1058v264l508 520h-468v278zM416 1496h314v-300h-314v300z" />
    <glyph glyph-name="Zcaron" unicode="&#x17d;" horiz-adv-x="1479" 
d="M113 1466h1282v-293l-822 -858h852v-315h-1391v304l813 849h-734v313zM881 1555h-288l-222 286h247l122 -153l122 153h249z" />
    <glyph glyph-name="zcaron" unicode="&#x17e;" horiz-adv-x="1139" 
d="M77 1062h985v-238l-536 -546h569v-278h-1058v264l508 520h-468v278zM711 1192h-288l-222 286h247l122 -153l122 153h249z" />
    <glyph glyph-name="longs" unicode="&#x17f;" horiz-adv-x="799" 
d="M784 1473l-59 -250q-46 12 -84 12q-131 0 -131 -209v-1026h-391v1016q0 475 543 475q61 0 122 -18z" />
    <glyph glyph-name="florin" unicode="&#x192;" 
d="M986 999h198l-63 -290h-195l-188 -882q-55 -258 -359 -258q-148 0 -342 59l73 260q103 -36 154 -36q50 0 73 39q14 22 27 85l156 733h-191l59 290h195l45 213q39 185 175 245q77 34 187 34q166 0 345 -62l-73 -262q-93 39 -153 39q-51 0 -76 -45q-14 -24 -30 -91z" />
    <glyph glyph-name="Aringacute" unicode="&#x1fa;" horiz-adv-x="1593" 
d="M587 1466q-32 56 -32 121q0 100 70 170.5t170 70.5q101 0 171 -70t70 -171q0 -65 -33 -121h44l551 -1466h-474l-77 242h-506l-76 -242h-463l551 1466h34zM692 1588q0 -44 29.5 -74t73.5 -30q43 0 72.5 30t29.5 73t-29.5 73t-72.5 30t-73 -29.5t-30 -72.5zM945 577
l-150 485l-149 -485h299zM747 2219h350l-323 -299h-195z" />
    <glyph glyph-name="aringacute" unicode="&#x1fb;" 
d="M494 718l-389 41q39 183 183 262q118 65 366 65q169 0 251 -13q147 -22 228 -93q52 -46 84 -131q28 -78 28 -154v-469q0 -121 51 -226h-382q-33 59 -44 130q-81 -78 -159 -110q-107 -44 -251 -44q-161 0 -265 70q-122 82 -122 235q0 145 98 223q76 60 235 92
q169 34 223 47q125 29 218 66q0 76 -31.5 105.5t-108.5 29.5q-100 0 -150 -32q-39 -25 -63 -94zM847 504q-77 -27 -175 -53q-86 -23 -122 -42q-69 -37 -69 -98q0 -109 132 -109q62 0 120 29q63 32 90 85q24 47 24 123v65zM923 1403q0 -100 -70 -170t-170 -70
q-101 0 -171 69.5t-70 170.5t70 171t171 70q100 0 170 -70.5t70 -170.5zM785 1404q0 43 -30 73t-73 30t-73 -30t-30 -73t30 -73t73 -30t73 30t30 73zM619 2031h350l-323 -299h-195z" />
    <glyph glyph-name="AEacute" unicode="&#x1fc;" horiz-adv-x="2048" 
d="M556 1466h1400v-313h-618v-233h562v-299h-562v-289h637v-332h-1063v263h-435l-97 -263h-456zM811 1169l-211 -572h312v572h-101zM1167 1871h350l-323 -299h-195z" />
    <glyph glyph-name="aeacute" unicode="&#x1fd;" horiz-adv-x="2048" 
d="M1990 431h-771q11 -96 47 -143q55 -71 144 -71q94 0 158 100l397 -35q-89 -165 -228 -238q-129 -68 -325 -68q-165 0 -284 48q-90 36 -173 120q-230 -168 -479 -168q-172 0 -279 67q-128 80 -128 242q0 145 113 227q64 47 141 73q61 21 172 40q132 23 174 34
q68 17 156 47q-2 80 -33 109t-111 29q-153 0 -186 -127l-391 45q29 106 68 160q119 165 467 165q158 0 260 -28q73 -20 161 -77q165 104 346 104q293 0 445 -163q70 -76 100 -151q39 -98 39 -274v-67zM1584 626q-17 217 -178 217t-190 -217h368zM825 507l-125 -41
q-20 -7 -42 -11q-178 -33 -178 -136q0 -50 35 -80t85 -30q140 0 202 113q23 42 23 109v76zM995 1491h350l-323 -299h-195z" />
    <glyph glyph-name="Oslashacute" unicode="&#x1fe;" horiz-adv-x="1706" 
d="M1346 1352l174 164l151 -161l-173 -164q113 -171 113 -456q0 -490 -347 -674q-163 -86 -410 -86q-176 0 -315 45q-90 29 -178 95l-175 -167l-151 159l176 168q-119 185 -119 454q0 359 198 560.5t556 201.5q315 0 500 -139zM1054 1075q-75 73 -206 73q-303 0 -303 -410
q0 -68 10 -137zM1150 861l-501 -474q73 -73 203 -73q306 0 306 420q0 64 -8 127zM831 1871h350l-323 -299h-195z" />
    <glyph glyph-name="oslashacute" unicode="&#x1ff;" 
d="M1153 1156l104 -94l-124 -136q78 -65 120 -180q39 -103 39 -214q0 -259 -172 -411q-164 -145 -427 -145q-113 0 -199 19q-59 13 -149 56l-133 -148l-105 97l127 135q-161 172 -161 391q0 259 173 413q166 147 428 147q112 0 200 -21q59 -14 146 -58zM821 785
q-28 27 -48 35q-39 16 -88 16q-122 0 -183 -101q-49 -82 -49 -213q0 -53 17 -126zM545 270q34 -27 54 -34q39 -14 88 -14q122 0 180 105q45 83 45 216q0 51 -17 117zM671 1491h350l-323 -299h-195z" />
    <glyph glyph-name="circumflex" unicode="&#x2c6;" horiz-adv-x="682" 
d="M201 1478h289l222 -286h-248l-122 153l-122 -153h-248z" />
    <glyph glyph-name="caron" unicode="&#x2c7;" horiz-adv-x="682" 
d="M482 1192h-288l-222 286h247l122 -153l122 153h249z" />
    <glyph glyph-name="macron" unicode="&#x2c9;" horiz-adv-x="682" 
d="M18 1446h647v-217h-647v217z" />
    <glyph glyph-name="breve" unicode="&#x2d8;" horiz-adv-x="682" 
d="M518 1491h165q-12 -188 -163 -263q-79 -39 -171 -39q-149 0 -240 77q-94 79 -109 225h172q37 -107 168 -107q76 0 113 18q47 24 65 89z" />
    <glyph glyph-name="dotaccent" unicode="&#x2d9;" horiz-adv-x="683" 
d="M184 1496h314v-300h-314v300z" />
    <glyph glyph-name="ring" unicode="&#x2da;" horiz-adv-x="682" 
d="M581 1403q0 -100 -70 -170t-170 -70q-101 0 -171 69.5t-70 170.5t70 171t171 70q100 0 170 -70.5t70 -170.5zM443 1404q0 43 -30 73t-73 30t-73 -30t-30 -73t30 -73t73 -30t73 30t30 73z" />
    <glyph glyph-name="ogonek" unicode="&#x2db;" horiz-adv-x="682" 
d="M200 26h169q-20 -87 -20 -144q0 -154 140 -154q47 0 128 26v-155q-124 -46 -212 -46q-114 0 -182 59q-71 63 -71 175q0 89 48 239z" />
    <glyph glyph-name="tilde" unicode="&#x2dc;" horiz-adv-x="682" 
d="M543 1466h158q1 -26 1 -45q0 -101 -49 -164q-53 -69 -151 -69q-64 0 -194 53q-79 32 -109 32q-60 0 -62 -82h-156q-1 24 -1 42q0 95 51 161q56 72 148 72q59 0 181 -51q83 -35 121 -35q58 0 62 86z" />
    <glyph glyph-name="hungarumlaut" unicode="&#x2dd;" horiz-adv-x="682" 
d="M214 1491h325l-296 -295h-197zM611 1491h328l-302 -295h-191z" />
    <glyph glyph-name="tonos" unicode="&#x384;" horiz-adv-x="389" 
d="M381 1466l-180 -299h-195l66 299h309z" />
    <glyph glyph-name="dieresistonos" unicode="&#x385;" horiz-adv-x="682" 
d="M557 1819l-180 -299h-195l66 299h309zM684 1196h-262v250h262v-250zM260 1196h-262v250h262v-250z" />
    <glyph glyph-name="Alphatonos" unicode="&#x386;" horiz-adv-x="1593" 
d="M1052 242h-516l-71 -242h-463l551 1466h494l551 -1466h-474zM957 559l-162 527l-161 -527h323zM381 1466l-180 -299h-195l66 299h309z" />
    <glyph glyph-name="anoteleia" unicode="&#x387;" horiz-adv-x="1024" 
d="M184 932h314v-300h-314v300z" />
    <glyph glyph-name="Epsilontonos" unicode="&#x388;" horiz-adv-x="1733" 
d="M405 1466h1214v-313h-760v-233h705v-299h-705v-289h782v-332h-1236v1466zM381 1466l-180 -299h-195l66 299h309z" />
    <glyph glyph-name="Etatonos" unicode="&#x389;" horiz-adv-x="1960" 
d="M404 1466h453v-513h495v513h455v-1466h-455v593h-495v-593h-453v1466zM381 1466l-180 -299h-195l66 299h309z" />
    <glyph glyph-name="Iotatonos" unicode="&#x38a;" horiz-adv-x="1026" 
d="M400 1466h454v-1466h-454v1466zM381 1466l-180 -299h-195l66 299h309z" />
    <glyph glyph-name="Omicrontonos" unicode="&#x38c;" horiz-adv-x="1815" 
d="M201 732q0 359 199 559t558 200q361 0 560 -192q202 -195 202 -555q0 -489 -336 -677q-164 -92 -408 -92q-480 0 -674 329q-101 171 -101 428zM654 730q0 -416 307 -416q180 0 252 136q54 101 54 300q0 398 -310 398q-303 0 -303 -418zM381 1466l-180 -299h-195l66 299
h309z" />
    <glyph glyph-name="Upsilontonos" unicode="&#x38e;" horiz-adv-x="1985" 
d="M390 1466h503l296 -495l296 495h500l-570 -852v-614h-454v614zM381 1466l-180 -299h-195l66 299h309z" />
    <glyph glyph-name="Omegatonos" unicode="&#x38f;" horiz-adv-x="1829" 
d="M448 319q-99 73 -166 227q-64 145 -64 275q0 331 217 507q200 163 539 163q353 0 548 -156q214 -170 214 -514q0 -130 -64 -275q-67 -154 -166 -227h217v-319h-661v319q221 155 221 472q0 360 -309 360q-155 0 -234 -105q-69 -94 -69 -255q0 -297 221 -472v-319h-662v319
h218zM381 1466l-180 -299h-195l66 299h309z" />
    <glyph glyph-name="iotadieresistonos" unicode="&#x390;" horiz-adv-x="797" 
d="M138 1062h407v-1062h-407v1062zM557 1819l-180 -299h-195l66 299h309zM684 1196h-262v250h262v-250zM260 1196h-262v250h262v-250z" />
    <glyph glyph-name="Alpha" unicode="&#x391;" horiz-adv-x="1593" 
d="M1052 242h-516l-71 -242h-463l551 1466h494l551 -1466h-474zM957 559l-162 527l-161 -527h323z" />
    <glyph glyph-name="Beta" unicode="&#x392;" horiz-adv-x="1593" 
d="M151 1466h848q185 0 305 -88q134 -98 134 -277q0 -130 -81 -223q-54 -62 -158 -98q307 -74 307 -363q0 -235 -198 -349q-57 -33 -172 -48q-153 -20 -203 -20h-782v1466zM608 891h197q189 0 189 142q0 136 -186 136h-200v-278zM608 315h231q213 0 213 153q0 144 -214 144
h-230v-297z" />
    <glyph glyph-name="Gamma" unicode="&#x393;" 
d="M1311 1106h-709v-1106h-452v1466h1161v-360z" />
    <glyph glyph-name="Delta" unicode="&#x394;" horiz-adv-x="1593" 
d="M1595 0h-1597l551 1466h495zM1030 315l-235 770l-242 -770h477z" />
    <glyph glyph-name="Epsilon" unicode="&#x395;" horiz-adv-x="1479" 
d="M149 1466h1214v-313h-760v-233h705v-299h-705v-289h782v-332h-1236v1466z" />
    <glyph glyph-name="Zeta" unicode="&#x396;" horiz-adv-x="1479" 
d="M113 1466h1282v-293l-822 -858h852v-315h-1391v304l813 849h-734v313z" />
    <glyph glyph-name="Eta" unicode="&#x397;" horiz-adv-x="1706" 
d="M152 1466h453v-513h495v513h455v-1466h-455v593h-495v-593h-453v1466z" />
    <glyph glyph-name="Theta" unicode="&#x398;" horiz-adv-x="1706" 
d="M850 1491q363 0 561 -192q201 -195 201 -556q0 -364 -189 -564q-194 -204 -555 -204q-369 0 -570 193q-204 196 -204 563q0 360 198 560t558 200zM852 315q181 0 253 135q54 100 54 300q0 401 -309 401q-303 0 -303 -422q0 -414 305 -414zM1057 604h-400v277h400v-277z
" />
    <glyph glyph-name="Theta" unicode="&#x472;" horiz-adv-x="1706" 
d="M850 1491q363 0 561 -192q201 -195 201 -556q0 -364 -189 -564q-194 -204 -555 -204q-369 0 -570 193q-204 196 -204 563q0 360 198 560t558 200zM852 315q181 0 253 135q54 100 54 300q0 401 -309 401q-303 0 -303 -422q0 -414 305 -414zM1057 604h-400v277h400v-277z
" />
    <glyph glyph-name="Iota" unicode="&#x399;" horiz-adv-x="797" 
d="M168 1466h454v-1466h-454v1466z" />
    <glyph glyph-name="Kappa" unicode="&#x39a;" horiz-adv-x="1706" 
d="M152 1466h453v-554l475 554h602l-534 -553l558 -913h-558l-309 603l-234 -245v-358h-453v1466z" />
    <glyph glyph-name="Lambda" unicode="&#x39b;" horiz-adv-x="1593" 
d="M1591 0h-473l-332 1057l-323 -1057h-461l545 1466h491z" />
    <glyph glyph-name="Mu" unicode="&#x39c;" horiz-adv-x="1933" 
d="M145 1466h596l230 -892l229 892h594v-1466h-370v1118l-287 -1118h-335l-286 1118v-1118h-371v1466z" />
    <glyph glyph-name="Nu" unicode="&#x39d;" horiz-adv-x="1706" 
d="M153 1466h423l552 -811v811h427v-1466h-427l-549 805v-805h-426v1466z" />
    <glyph glyph-name="Xi" unicode="&#x39e;" horiz-adv-x="1479" 
d="M1335 1151h-1194v315h1194v-315zM1174 621h-865v297h865v-297zM1358 0h-1237v332h1237v-332z" />
    <glyph glyph-name="Omicron" unicode="&#x39f;" horiz-adv-x="1706" 
d="M93 732q0 359 199 559t558 200q361 0 560 -192q202 -195 202 -555q0 -489 -336 -677q-164 -92 -408 -92q-480 0 -674 329q-101 171 -101 428zM546 730q0 -416 307 -416q180 0 252 136q54 101 54 300q0 398 -310 398q-303 0 -303 -418z" />
    <glyph glyph-name="Pi" unicode="&#x3a0;" horiz-adv-x="1706" 
d="M1554 0h-452v1106h-498v-1106h-452v1466h1402v-1466z" />
    <glyph glyph-name="Rho" unicode="&#x3a1;" horiz-adv-x="1479" 
d="M148 1466h753q491 0 491 -450q0 -472 -541 -472h-248v-544h-455v1466zM603 841h111q237 0 237 162q0 165 -219 165h-129v-327z" />
    <glyph glyph-name="Sigma" unicode="&#x3a3;" horiz-adv-x="1479" 
d="M1389 0h-1237v317l434 441l-434 405v303h1214v-315h-725l430 -393l-430 -426h748v-332z" />
    <glyph glyph-name="Tau" unicode="&#x3a4;" horiz-adv-x="1479" 
d="M47 1466h1377v-362h-462v-1104h-453v1104h-462v362z" />
    <glyph glyph-name="Upsilon" unicode="&#x3a5;" horiz-adv-x="1593" 
d="M2 1466h503l296 -495l296 495h500l-570 -852v-614h-454v614z" />
    <glyph glyph-name="Phi" unicode="&#x3a6;" horiz-adv-x="1892" 
d="M1153 1354q668 -70 668 -600q0 -541 -668 -602v-172h-412v176q-667 57 -667 598q0 531 667 600v133h412v-133zM1153 459q225 65 225 301q0 108 -61 191.5t-164 117.5v-610zM741 455v606q-103 -29 -164 -115t-61 -194q0 -104 62 -184t163 -113z" />
    <glyph glyph-name="Chi" unicode="&#x3a7;" horiz-adv-x="1593" 
d="M49 1466h499l260 -451l252 451h494l-456 -710l499 -756h-509l-289 471l-290 -471h-506l506 764z" />
    <glyph glyph-name="Psi" unicode="&#x3a8;" horiz-adv-x="1937" 
d="M1853 1001q0 -302 -181 -462q-172 -154 -478 -154v-385h-453v381q-306 0 -478 154q-181 160 -181 462v465h453v-485q0 -162 66 -218q45 -38 140 -38v745h453v-741q170 0 197 127q10 50 10 129v485h452v-465z" />
    <glyph glyph-name="Psi" unicode="&#x470;" horiz-adv-x="1937" 
d="M1853 1001q0 -302 -181 -462q-172 -154 -478 -154v-385h-453v381q-306 0 -478 154q-181 160 -181 462v465h453v-485q0 -162 66 -218q45 -38 140 -38v745h453v-741q170 0 197 127q10 50 10 129v485h452v-465z" />
    <glyph glyph-name="Omega" unicode="&#x3a9;" horiz-adv-x="1706" 
d="M324 319q-99 73 -166 227q-64 145 -64 275q0 331 217 507q200 163 539 163q353 0 548 -156q214 -170 214 -514q0 -130 -64 -275q-67 -154 -166 -227h217v-319h-661v319q221 155 221 472q0 360 -309 360q-155 0 -234 -105q-69 -94 -69 -255q0 -297 221 -472v-319h-662v319
h218z" />
    <glyph glyph-name="Iotadieresis" unicode="&#x3aa;" horiz-adv-x="797" 
d="M168 1466h454v-1466h-454v1466zM56 1809h260v-250h-260v250zM480 1809h263v-250h-263v250z" />
    <glyph glyph-name="Upsilondieresis" unicode="&#x3ab;" horiz-adv-x="1593" 
d="M2 1466h503l296 -495l296 495h500l-570 -852v-614h-454v614zM454 1809h260v-250h-260v250zM878 1809h263v-250h-263v250z" />
    <glyph glyph-name="alphatonos" unicode="&#x3ac;" horiz-adv-x="1389" 
d="M1352 1063q-138 -242 -138 -545q0 -258 123 -518h-372q-26 52 -47 119q-99 -144 -318 -144q-232 0 -381 173q-141 165 -141 401t145 386t381 150q193 0 324 -137q11 53 43 115h381zM653 240q156 0 156 288q0 293 -160 293t-160 -293q0 -288 164 -288zM909 1466l-180 -299
h-195l66 299h309z" />
    <glyph glyph-name="epsilontonos" unicode="&#x3ad;" horiz-adv-x="1122" 
d="M1114 104q-164 -129 -452 -129q-218 0 -373 62q-215 87 -215 274q0 158 188 240q-147 71 -147 233q0 171 204 248q142 53 347 53q252 0 405 -77l-153 -222q-111 58 -242 58q-158 0 -158 -80q0 -102 246 -102v-228q-279 0 -279 -123q0 -94 193 -94q145 0 248 82zM837 1466
l-180 -299h-195l66 299h309z" />
    <glyph glyph-name="etatonos" unicode="&#x3ae;" 
d="M1247 -406h-407v990q0 184 -144 184q-166 0 -166 -258v-510h-407v1061h381v-172h4q137 196 379 196q360 0 360 -409v-1082zM917 1466l-180 -299h-195l66 299h309z" />
    <glyph glyph-name="iotatonos" unicode="&#x3af;" horiz-adv-x="682" 
d="M138 1062h407v-1062h-407v1062zM561 1466l-180 -299h-195l66 299h309z" />
    <glyph glyph-name="upsilondieresistonos" unicode="&#x3b0;" 
d="M1243 430q0 -231 -174 -351q-151 -104 -393 -104q-241 0 -388 105q-169 119 -169 350v631h407v-572q0 -196 154 -196q156 0 156 196v572h407v-631zM901 1819l-180 -299h-195l66 299h309zM1028 1196h-262v250h262v-250zM604 1196h-262v250h262v-250z" />
    <glyph glyph-name="alpha" unicode="&#x3b1;" horiz-adv-x="1389" 
d="M1352 1063q-138 -242 -138 -545q0 -258 123 -518h-372q-26 52 -47 119q-99 -144 -318 -144q-232 0 -381 173q-141 165 -141 401t145 386t381 150q193 0 324 -137q11 53 43 115h381zM653 240q156 0 156 288q0 293 -160 293t-160 -293q0 -288 164 -288z" />
    <glyph glyph-name="beta" unicode="&#x3b2;" horiz-adv-x="1319" 
d="M942 838q136 -31 220 -156q79 -117 79 -262q0 -207 -107 -324q-110 -121 -315 -121q-203 0 -309 123v-504h-391v1422q0 236 143 359q135 116 375 116q211 0 341 -80q157 -98 157 -295q0 -191 -193 -278zM592 891q77 13 126.5 65.5t49.5 128.5q0 150 -127 150
q-131 0 -131 -199v-639q68 -155 201 -155q161 0 161 174q0 235 -280 260v215z" />
    <glyph glyph-name="gamma" unicode="&#x3b3;" horiz-adv-x="1251" 
d="M1253 1061l-428 -1008v-459h-407v459l-420 1008h424l203 -672l217 672h411z" />
    <glyph glyph-name="delta" unicode="&#x3b4;" 
d="M655 1182l303 -166q334 -183 334 -498q0 -261 -179 -407q-166 -136 -433 -136q-261 0 -427 136q-179 146 -179 401q0 183 97 316t271 190l-274 162v284h981v-282h-494zM682 254q203 0 203 262q0 258 -199 258q-205 0 -205 -262q0 -258 201 -258zM680 1086z" />
    <glyph glyph-name="epsilon" unicode="&#x3b5;" horiz-adv-x="1122" 
d="M1114 104q-164 -129 -452 -129q-218 0 -373 62q-215 87 -215 274q0 158 188 240q-147 71 -147 233q0 171 204 248q142 53 347 53q252 0 405 -77l-153 -222q-111 58 -242 58q-158 0 -158 -80q0 -102 246 -102v-228q-279 0 -279 -123q0 -94 193 -94q145 0 248 82z" />
    <glyph glyph-name="zeta" unicode="&#x3b6;" horiz-adv-x="942" 
d="M924 1229q-210 -228 -286 -334q-165 -228 -165 -395q0 -133 162 -208q97 -45 131 -68q64 -43 97.5 -106.5t33.5 -164.5q0 -176 -127 -283q-120 -100 -299 -100h-113l70 264q170 0 170 76q0 48 -59 79q-23 13 -99 36q-119 36 -177 71q-80 48 -131 134q-54 92 -54 251
q0 307 457 703h-412v282h801v-237z" />
    <glyph glyph-name="eta" unicode="&#x3b7;" 
d="M1247 -406h-407v990q0 184 -144 184q-166 0 -166 -258v-510h-407v1061h381v-172h4q137 196 379 196q360 0 360 -409v-1082z" />
    <glyph glyph-name="theta" unicode="&#x3b8;" 
d="M692 1491q305 0 459 -230q131 -197 131 -518q0 -341 -127 -535q-152 -233 -473 -233q-315 0 -469 234q-129 197 -129 530q0 752 608 752zM870 891q-8 138 -36 207q-46 114 -154 114q-171 0 -184 -321h374zM872 594h-376q15 -340 186 -340q177 0 190 340z" />
    <glyph glyph-name="theta" unicode="&#x473;" 
d="M692 1491q305 0 459 -230q131 -197 131 -518q0 -341 -127 -535q-152 -233 -473 -233q-315 0 -469 234q-129 197 -129 530q0 752 608 752zM870 891q-8 138 -36 207q-46 114 -154 114q-171 0 -184 -321h374zM872 594h-376q15 -340 186 -340q177 0 190 340z" />
    <glyph glyph-name="iota" unicode="&#x3b9;" horiz-adv-x="682" 
d="M138 1062h407v-1062h-407v1062z" />
    <glyph glyph-name="kappa" unicode="&#x3ba;" 
d="M1358 0h-459l-215 426l-154 -150v-276h-407v1061h407v-352l306 352h499l-379 -371z" />
    <glyph glyph-name="lambda" unicode="&#x3bb;" horiz-adv-x="1251" 
d="M1249 0h-399l-221 662l-203 -662h-430l473 1083l-164 383h393z" />
    <glyph glyph-name="mu" unicode="&#x3bc;" 
d="M1243 0h-383v84q-65 -109 -164 -109q-121 0 -170 101v-477h-407v1462h407v-533q0 -145 52 -197q34 -36 106 -36q97 0 131 79q21 50 21 165v522h407v-1061z" />
    <glyph glyph-name="nu" unicode="&#x3bd;" horiz-adv-x="1251" 
d="M2 1062h424l206 -673l213 673h411l-451 -1062h-361z" />
    <glyph glyph-name="xi" unicode="&#x3be;" horiz-adv-x="942" 
d="M829 745q-150 -9 -244 -75q-112 -78 -112 -219q0 -110 157 -177q96 -42 132 -65q65 -41 100 -104t35 -164q0 -175 -128 -277q-118 -94 -298 -94h-113l70 264q164 0 164 76q0 45 -59 74q-23 11 -98 32q-116 32 -172 61q-82 44 -132 123q-53 83 -53 228q0 161 97 271
q94 104 255 139q-289 64 -289 311q0 185 181 271q135 63 344 63h161v-271q-79 5 -133 5q-202 0 -202 -111q0 -64 89 -94q61 -21 140 -21h108v-246z" />
    <glyph glyph-name="omicron" unicode="&#x3bf;" 
d="M73 528q0 259 176 412q168 146 431 146q319 0 482 -185q131 -149 131 -367q0 -264 -177 -415q-167 -143 -435 -143q-257 0 -414 130q-194 160 -194 422zM481 529q0 -115 43 -188q52 -90 159 -90q201 0 201 282q0 111 -42 184q-52 89 -156 89q-108 0 -161 -89
q-44 -73 -44 -188z" />
    <glyph glyph-name="pi" unicode="&#x3c0;" horiz-adv-x="1448" 
d="M1430 764h-134v-764h-407v764h-309v-764h-408v764h-152v297h1410v-297z" />
    <glyph glyph-name="rho" unicode="&#x3c1;" 
d="M125 -406v918q0 266 157.5 419.5t424.5 153.5q266 0 424.5 -153t158.5 -418q0 -229 -107 -375q-120 -164 -341 -164q-204 0 -310 117v-498h-407zM717 276q166 0 166 246q0 262 -172 262q-183 0 -183 -258q0 -103 42 -170q50 -80 147 -80z" />
    <glyph glyph-name="sigma1" unicode="&#x3c2;" horiz-adv-x="1081" 
d="M1069 1044l-86 -294q-143 34 -223 34q-119 0 -203 -79t-84 -197q0 -76 107 -148q38 -26 171 -91q140 -69 202 -121q106 -89 106 -199q0 -199 -163 -298q-134 -81 -347 -81q-82 0 -215 8l51 266q96 -10 150 -10q163 0 163 68q0 71 -204 152q-136 53 -195 86
q-102 58 -161.5 136.5t-59.5 196.5q0 284 207 454q193 158 483 158q170 0 301 -41z" />
    <glyph glyph-name="sigma" unicode="&#x3c3;" horiz-adv-x="1532" 
d="M1487 764h-240q45 -108 45 -229q0 -265 -176 -416q-167 -144 -436 -144q-262 0 -429 144q-177 152 -177 409q0 261 175 413q166 144 431 144q81 0 146 -12l65 -12h596v-297zM682 254q203 0 203 278q0 113 -42 186q-52 89 -157 89q-108 0 -161 -90q-44 -73 -44 -189
q0 -274 201 -274z" />
    <glyph glyph-name="tau" unicode="&#x3c4;" horiz-adv-x="1040" 
d="M1018 764h-295v-764h-408v764h-295v297h998v-297z" />
    <glyph glyph-name="upsilon" unicode="&#x3c5;" 
d="M1243 430q0 -231 -174 -351q-151 -104 -393 -104q-241 0 -388 105q-169 119 -169 350v631h407v-572q0 -196 154 -196q156 0 156 196v572h407v-631z" />
    <glyph glyph-name="phi" unicode="&#x3c6;" horiz-adv-x="1819" 
d="M700 281v346q0 247 104 352.5t351 105.5q276 0 426 -141q154 -144 154 -418q0 -255 -200 -405q-176 -133 -443 -144v-383h-392v386q-259 12 -433 147q-195 151 -195 399q0 282 163 419q146 122 439 140l-64 -301q-72 -16 -112 -88q-35 -63 -35 -143q0 -110 64.5 -185
t172.5 -87zM1092 276q108 14 176 77q75 68 75 173q0 89 -30 161q-40 97 -117 97q-104 0 -104 -184v-324z" />
    <glyph glyph-name="chi" unicode="&#x3c7;" horiz-adv-x="1327" 
d="M1313 -406h-445l-200 523l-244 -523h-410l379 766l-358 701h448l181 -488l202 488h420l-354 -701z" />
    <glyph glyph-name="psi" unicode="&#x3c8;" horiz-adv-x="1876" 
d="M1757 596q0 -301 -156.5 -458.5t-457.5 -157.5v-386h-408v383q-303 0 -459.5 158t-156.5 461v465h407v-486q0 -282 209 -282v768h408v-768q207 0 207 282v486h407v-465z" />
    <glyph glyph-name="psi" unicode="&#x471;" horiz-adv-x="1876" 
d="M1757 596q0 -301 -156.5 -458.5t-457.5 -157.5v-386h-408v383q-303 0 -459.5 158t-156.5 461v465h407v-486q0 -282 209 -282v768h408v-768q207 0 207 282v486h407v-465z" />
    <glyph glyph-name="omega" unicode="&#x3c9;" horiz-adv-x="1937" 
d="M1743 1061q123 -224 123 -506q0 -255 -128 -411q-139 -169 -388 -169q-122 0 -227 61q-114 65 -156 173q-41 -112 -152 -175q-102 -59 -227 -59q-249 0 -388 169q-128 156 -128 411q0 282 123 506h409q-41 -105 -70 -253q-30 -152 -30 -261q0 -252 145 -252q57 0 90 78
q27 61 27 125v336h408v-336q0 -64 26 -125q32 -78 88 -78q146 0 146 252q0 109 -30 260t-71 254h410z" />
    <glyph glyph-name="iotadieresis" unicode="&#x3ca;" horiz-adv-x="682" 
d="M138 1062h407v-1062h-407v1062zM-2 1446h260v-250h-260v250zM422 1446h263v-250h-263v250z" />
    <glyph glyph-name="upsilondieresis" unicode="&#x3cb;" 
d="M1243 430q0 -231 -174 -351q-151 -104 -393 -104q-241 0 -388 105q-169 119 -169 350v631h407v-572q0 -196 154 -196q156 0 156 196v572h407v-631zM342 1446h260v-250h-260v250zM766 1446h263v-250h-263v250z" />
    <glyph glyph-name="omicrontonos" unicode="&#x3cc;" 
d="M73 528q0 259 176 412q168 146 431 146q319 0 482 -185q131 -149 131 -367q0 -264 -177 -415q-167 -143 -435 -143q-257 0 -414 130q-194 160 -194 422zM481 529q0 -115 43 -188q52 -90 159 -90q201 0 201 282q0 111 -42 184q-52 89 -156 89q-108 0 -161 -89
q-44 -73 -44 -188zM921 1466l-180 -299h-195l66 299h309z" />
    <glyph glyph-name="upsilontonos" unicode="&#x3cd;" 
d="M1243 430q0 -231 -174 -351q-151 -104 -393 -104q-241 0 -388 105q-169 119 -169 350v631h407v-572q0 -196 154 -196q156 0 156 196v572h407v-631zM925 1466l-180 -299h-195l66 299h309z" />
    <glyph glyph-name="omegatonos" unicode="&#x3ce;" horiz-adv-x="1937" 
d="M1743 1061q123 -224 123 -506q0 -255 -128 -411q-139 -169 -388 -169q-122 0 -227 61q-114 65 -156 173q-41 -112 -152 -175q-102 -59 -227 -59q-249 0 -388 169q-128 156 -128 411q0 282 123 506h409q-41 -105 -70 -253q-30 -152 -30 -261q0 -252 145 -252q57 0 90 78
q27 61 27 125v336h408v-336q0 -64 26 -125q32 -78 88 -78q146 0 146 252q0 109 -30 260t-71 254h410zM1193 1466l-180 -299h-195l66 299h309z" />
    <glyph glyph-name="afii10023" unicode="&#x401;" horiz-adv-x="1479" 
d="M149 1466h1214v-313h-760v-233h705v-299h-705v-289h782v-332h-1236v1466zM397 1809h260v-250h-260v250zM821 1809h263v-250h-263v250z" />
    <glyph glyph-name="afii10051" unicode="&#x402;" horiz-adv-x="2056" 
d="M967 901q200 72 364 72q284 0 449 -109q196 -129 196 -397q0 -259 -196 -380q-161 -99 -437 -99q-57 0 -172 16l62 309q72 -14 110 -14q75 0 126 38q57 42 57 114q0 155 -228 155q-152 0 -331 -74v-532h-453v1106h-461v360h1374v-360h-460v-205z" />
    <glyph glyph-name="afii10052" unicode="&#x403;" 
d="M1311 1106h-709v-1106h-452v1466h1161v-360zM663 1875h350l-323 -299h-195z" />
    <glyph glyph-name="afii10053" unicode="&#x404;" horiz-adv-x="1630" 
d="M1565 426q-153 -451 -727 -451q-361 0 -555 204q-189 200 -189 564q0 361 201 556q198 192 561 192q494 0 676 -369l-408 -155q-67 184 -268 184q-258 0 -301 -283h444v-272h-442q37 -281 297 -281q223 0 285 226z" />
    <glyph glyph-name="afii10054" unicode="&#x405;" horiz-adv-x="1479" 
d="M71 485l431 27q14 -105 57 -160q70 -89 200 -89q79 0 135 35q67 42 67 116q0 85 -105 135q-51 24 -177 52q-243 54 -369 137q-184 120 -184 324q0 125 74 225q69 94 189 147q131 57 360 57q262 0 405 -89q169 -105 199 -348l-427 -25q-32 189 -222 189q-159 0 -159 -115
q0 -78 185 -117q228 -49 337 -91q201 -77 276 -201q58 -97 58 -217q0 -146 -80 -263.5t-216 -176.5q-140 -62 -353 -62q-302 0 -465 104q-192 124 -216 406z" />
    <glyph glyph-name="afii10055" unicode="&#x406;" horiz-adv-x="797" 
d="M168 1466h454v-1466h-454v1466z" />
    <glyph glyph-name="afii10056" unicode="&#x407;" horiz-adv-x="797" 
d="M168 1466h454v-1466h-454v1466zM56 1809h260v-250h-260v250zM480 1809h263v-250h-263v250z" />
    <glyph glyph-name="afii10057" unicode="&#x408;" 
d="M760 1466h454v-797q0 -228 -31 -337q-47 -169 -192 -267q-135 -91 -345 -91q-397 0 -532 236q-67 115 -79 285l433 59q2 -168 71 -220q25 -19 74 -19q147 0 147 247v904z" />
    <glyph glyph-name="afii10058" unicode="&#x409;" horiz-adv-x="2478" 
d="M1497 901h242q655 0 655 -483q0 -163 -99 -270.5t-262 -126.5q-175 -21 -210 -21h-779v1106h-354v-451q0 -249 -13 -329q-32 -202 -154 -271q-109 -61 -351 -61q-74 0 -170 16v297h68q97 0 135 47q33 41 33 142v970h1259v-565zM1497 315h232q213 0 213 154
q0 135 -213 135h-232v-289z" />
    <glyph glyph-name="afii10059" unicode="&#x40a;" horiz-adv-x="2478" 
d="M1497 901h242q655 0 655 -483q0 -163 -99 -270.5t-262 -126.5q-175 -21 -210 -21h-779v592h-440v-592h-452v1466h452v-514h440v514h453v-565zM1497 315h232q213 0 213 154q0 135 -213 135h-232v-289z" />
    <glyph glyph-name="afii10060" unicode="&#x40b;" horiz-adv-x="1999" 
d="M1878 0h-453v389q0 223 -198 223q-147 0 -260 -106v-506h-453v1106h-461v360h1374v-360h-460v-246q199 115 397 115q229 0 370 -133q144 -136 144 -363v-479z" />
    <glyph glyph-name="afii10061" unicode="&#x40c;" horiz-adv-x="1495" 
d="M1483 0h-510l-176 379q-50 108 -70 134q-49 67 -125 67v-580h-452v1466h452v-563q78 4 130 101q9 15 65 165q83 222 250 278q89 30 389 30v-310h-23q-110 0 -168 -41.5t-96 -144.5q-63 -174 -191 -225q112 -37 198 -142q58 -71 128 -213zM735 1871h350l-323 -299h-195z
" />
    <glyph glyph-name="afii10062" unicode="&#x40e;" horiz-adv-x="1376" 
d="M12 1466h492l203 -604l200 604h461l-481 -1132q-56 -132 -88 -181q-58 -90 -145 -134t-238 -44q-80 0 -275 23v303q115 -12 168 -12q157 0 191 117zM1030 1872q-2 -140 -99 -223q-93 -78 -235 -78q-151 0 -241 75q-94 78 -107 226h172q30 -107 168 -107q153 0 178 107
h164z" />
    <glyph glyph-name="afii10145" unicode="&#x40f;" horiz-adv-x="1706" 
d="M1554 0h-520v-319h-364v319h-518v1466h452v-1106h498v1106h452v-1466z" />
    <glyph glyph-name="afii10017" unicode="&#x410;" horiz-adv-x="1593" 
d="M1052 242h-516l-71 -242h-463l551 1466h494l551 -1466h-474zM957 559l-162 527l-161 -527h323z" />
    <glyph glyph-name="afii10018" unicode="&#x411;" horiz-adv-x="1593" 
d="M604 901h242q655 0 655 -483q0 -227 -181 -333q-146 -85 -390 -85h-778v1466h1234v-297h-782v-268zM604 315h232q213 0 213 154q0 135 -213 135h-232v-289z" />
    <glyph glyph-name="afii10019" unicode="&#x412;" horiz-adv-x="1593" 
d="M151 1466h848q185 0 305 -88q134 -98 134 -277q0 -130 -81 -223q-54 -62 -158 -98q307 -74 307 -363q0 -235 -198 -349q-57 -33 -172 -48q-153 -20 -203 -20h-782v1466zM608 891h197q189 0 189 142q0 136 -186 136h-200v-278zM608 315h231q213 0 213 153q0 144 -214 144
h-230v-297z" />
    <glyph glyph-name="afii10020" unicode="&#x413;" 
d="M1311 1106h-709v-1106h-452v1466h1161v-360z" />
    <glyph glyph-name="afii10021" unicode="&#x414;" horiz-adv-x="1716" 
d="M1688 -319h-365v319h-936v-319h-364v657h151q127 355 127 801v327h1229v-1128h158v-657zM1077 338v768h-364v-19q0 -304 -103 -749h467z" />
    <glyph glyph-name="afii10022" unicode="&#x415;" horiz-adv-x="1479" 
d="M149 1466h1214v-313h-760v-233h705v-299h-705v-289h782v-332h-1236v1466z" />
    <glyph glyph-name="afii10024" unicode="&#x416;" horiz-adv-x="2224" 
d="M2210 0h-510l-176 379q-50 108 -70 134q-49 67 -125 67v-580h-452v580q-77 0 -126 -66q-18 -25 -69 -135l-176 -379h-510l199 401q70 142 128 213q85 106 197 142q-129 52 -190 225q-38 103 -96 144.5t-168 41.5h-23v310q190 0 281 -11q189 -24 255 -100q52 -61 103 -197
q58 -154 64 -166q52 -96 131 -100v563h452v-563q78 4 130 101q9 15 65 165q83 222 250 278q89 30 389 30v-310h-23q-110 0 -168 -41.5t-96 -144.5q-63 -173 -190 -225q112 -37 197 -143q58 -71 128 -212z" />
    <glyph glyph-name="afii10025" unicode="&#x417;" horiz-adv-x="1409" 
d="M1069 797q264 -71 264 -332q0 -247 -201 -378q-171 -112 -432 -112q-516 0 -641 433l428 32q36 -153 205 -153q191 0 191 178q0 90 -71 139q-62 43 -157 43h-123v262h97q186 0 186 172q0 119 -149 119q-154 0 -179 -137l-405 47q99 381 592 381q230 0 385 -80
q198 -103 198 -311q0 -216 -188 -303z" />
    <glyph glyph-name="afii10026" unicode="&#x418;" horiz-adv-x="1706" 
d="M1553 1466v-1466h-426v805l-549 -805h-427v1466h427v-811l552 811h423z" />
    <glyph glyph-name="afii10027" unicode="&#x419;" horiz-adv-x="1706" 
d="M1553 1466v-1466h-426v805l-549 -805h-427v1466h427v-811l552 811h423zM1221 1827q-22 -130 -126 -208q-100 -73 -235 -73q-134 0 -234 74q-105 78 -126 207h174q42 -125 182 -125q150 0 191 125h174z" />
    <glyph glyph-name="afii10028" unicode="&#x41a;" horiz-adv-x="1495" 
d="M1483 0h-510l-176 379q-50 108 -70 134q-49 67 -125 67v-580h-452v1466h452v-563q78 4 130 101q9 15 65 165q83 222 250 278q89 30 389 30v-310h-23q-110 0 -168 -41.5t-96 -144.5q-63 -174 -191 -225q112 -37 198 -142q58 -71 128 -213z" />
    <glyph glyph-name="afii10029" unicode="&#x41b;" horiz-adv-x="1647" 
d="M1497 0h-453v1106h-354v-451q0 -249 -13 -329q-32 -202 -154 -271q-109 -61 -351 -61q-74 0 -170 16v297h68q97 0 135 47q33 41 33 142v970h1259v-1466z" />
    <glyph glyph-name="afii10030" unicode="&#x41c;" horiz-adv-x="1933" 
d="M145 1466h596l230 -892l229 892h594v-1466h-370v1118l-287 -1118h-335l-286 1118v-1118h-371v1466z" />
    <glyph glyph-name="afii10031" unicode="&#x41d;" horiz-adv-x="1706" 
d="M152 1466h453v-513h495v513h455v-1466h-455v593h-495v-593h-453v1466z" />
    <glyph glyph-name="afii10032" unicode="&#x41e;" horiz-adv-x="1706" 
d="M93 732q0 359 199 559t558 200q361 0 560 -192q202 -195 202 -555q0 -489 -336 -677q-164 -92 -408 -92q-480 0 -674 329q-101 171 -101 428zM546 730q0 -416 307 -416q180 0 252 136q54 101 54 300q0 398 -310 398q-303 0 -303 -418z" />
    <glyph glyph-name="afii10033" unicode="&#x41f;" horiz-adv-x="1706" 
d="M1554 0h-452v1106h-498v-1106h-452v1466h1402v-1466z" />
    <glyph glyph-name="afii10034" unicode="&#x420;" horiz-adv-x="1479" 
d="M148 1466h753q491 0 491 -450q0 -472 -541 -472h-248v-544h-455v1466zM603 841h111q237 0 237 162q0 165 -219 165h-129v-327z" />
    <glyph glyph-name="afii10035" unicode="&#x421;" horiz-adv-x="1593" 
d="M1126 599l397 -120q-79 -332 -339 -448q-128 -57 -325 -57q-231 0 -374 63q-165 72 -278 251q-110 175 -110 448q0 360 191 557.5t550 197.5q263 0 422 -103q168 -110 249 -353l-400 -89q-21 66 -44 98q-79 108 -216 108q-153 0 -236 -124q-62 -93 -62 -289
q0 -192 47 -289q66 -136 235 -136q231 0 293 285z" />
    <glyph glyph-name="afii10036" unicode="&#x422;" horiz-adv-x="1479" 
d="M47 1466h1377v-362h-462v-1104h-453v1104h-462v362z" />
    <glyph glyph-name="afii10037" unicode="&#x423;" horiz-adv-x="1376" 
d="M12 1466h492l203 -604l200 604h461l-481 -1132q-56 -132 -88 -181q-58 -90 -145 -134t-238 -44q-80 0 -275 23v303q115 -12 168 -12q157 0 191 117z" />
    <glyph glyph-name="afii10038" unicode="&#x424;" horiz-adv-x="1892" 
d="M1153 1354q668 -70 668 -600q0 -541 -668 -602v-152h-412v156q-667 57 -667 598q0 531 667 600v112h412v-112zM1153 459q225 65 225 301q0 108 -61 191.5t-164 117.5v-610zM741 455v606q-103 -29 -164 -115t-61 -194q0 -104 62 -184t163 -113z" />
    <glyph glyph-name="afii10039" unicode="&#x425;" horiz-adv-x="1593" 
d="M49 1466h499l260 -451l252 451h494l-456 -710l499 -756h-509l-289 471l-290 -471h-506l506 764z" />
    <glyph glyph-name="afii10040" unicode="&#x426;" horiz-adv-x="1761" 
d="M1712 -319h-364v319h-1196v1466h452v-1106h498v1106h452v-1128h158v-657z" />
    <glyph glyph-name="afii10041" unicode="&#x427;" horiz-adv-x="1647" 
d="M1497 0h-453v545q-208 -115 -395 -115q-229 0 -370 133q-144 135 -144 363v540h453v-450q0 -223 198 -223q178 0 258 106v567h453v-1466z" />
    <glyph glyph-name="afii10042" unicode="&#x428;" horiz-adv-x="2273" 
d="M2124 0h-1972v1466h452v-1106h305v1106h453v-1106h309v1106h453v-1466z" />
    <glyph glyph-name="afii10043" unicode="&#x429;" horiz-adv-x="2331" 
d="M2281 -319h-364v319h-1765v1466h452v-1106h305v1106h453v-1106h309v1106h453v-1128h157v-657z" />
    <glyph glyph-name="afii10044" unicode="&#x42a;" horiz-adv-x="2052" 
d="M1071 891h242q655 0 655 -473q0 -163 -99 -270.5t-262 -126.5q-175 -21 -210 -21h-779v1169h-567v297h1020v-575zM1071 315h232q213 0 213 154q0 145 -213 145h-232v-299z" />
    <glyph glyph-name="afii10045" unicode="&#x42b;" horiz-adv-x="2216" 
d="M604 901h242q655 0 655 -483q0 -227 -181 -333q-146 -85 -390 -85h-778v1466h452v-565zM604 315h232q213 0 213 154q0 135 -213 135h-232v-289zM1612 1466h454v-1466h-454v1466z" />
    <glyph glyph-name="afii10046" unicode="&#x42c;" horiz-adv-x="1585" 
d="M604 901h242q655 0 655 -483q0 -227 -181 -333q-146 -85 -390 -85h-778v1466h452v-565zM604 315h232q213 0 213 154q0 135 -213 135h-232v-289z" />
    <glyph glyph-name="afii10047" unicode="&#x42d;" horiz-adv-x="1630" 
d="M96 1122q182 369 676 369q363 0 561 -192q201 -195 201 -556q0 -364 -189 -564q-193 -204 -554 -204q-575 0 -728 451l426 115q62 -226 285 -226q260 0 297 281h-442v272h444q-43 283 -301 283q-201 0 -268 -184z" />
    <glyph glyph-name="afii10048" unicode="&#x42e;" horiz-adv-x="2372" 
d="M780 952q61 272 259 410q186 129 474 129q363 0 561 -192q201 -195 201 -556q0 -364 -189 -564q-193 -204 -554 -204q-322 0 -518 148q-212 159 -248 469h-162v-592h-452v1466h452v-514h176zM1516 315q180 0 253 135q54 101 54 300q0 401 -310 401q-303 0 -303 -422
q0 -414 306 -414z" />
    <glyph glyph-name="afii10049" unicode="&#x42f;" horiz-adv-x="1597" 
d="M1446 0v1466h-755q-182 0 -275 -23q-149 -37 -225 -146q-68 -98 -68 -238q0 -236 195 -354q58 -35 159 -58q-81 -27 -118 -54q-27 -20 -73 -77.5t-63 -90.5l-219 -425h512l242 448q48 89 82 113q48 34 111 34h40v-595h455zM991 872h-191q-28 0 -120 20q-102 22 -102 131
q0 147 214 147h199v-298z" />
    <glyph glyph-name="afii10065" unicode="&#x430;" 
d="M494 718l-389 41q39 183 183 262q118 65 366 65q169 0 251 -13q147 -22 228 -93q52 -46 84 -131q28 -78 28 -154v-469q0 -121 51 -226h-382q-33 59 -44 130q-81 -78 -159 -110q-107 -44 -251 -44q-161 0 -265 70q-122 82 -122 235q0 145 98 223q76 60 235 92
q169 34 223 47q125 29 218 66q0 76 -31.5 105.5t-108.5 29.5q-100 0 -150 -32q-39 -25 -63 -94zM847 504q-77 -27 -175 -53q-86 -23 -122 -42q-69 -37 -69 -98q0 -109 132 -109q62 0 120 29q63 32 90 85q24 47 24 123v65z" />
    <glyph glyph-name="afii10066" unicode="&#x431;" 
d="M479 1030q73 55 201 55q269 0 435 -138q177 -148 177 -412q0 -265 -176 -416q-167 -144 -436 -144q-328 0 -475 191q-131 170 -131 510q0 305 104 508q133 259 408 268l123 4q164 5 182 43h323q0 -291 -327 -303q-175 -6 -237 -23q-135 -34 -171 -143zM682 254
q203 0 203 278q0 113 -42 186q-52 89 -157 89q-108 0 -161 -90q-44 -73 -44 -189q0 -274 201 -274z" />
    <glyph glyph-name="afii10067" unicode="&#x432;" horiz-adv-x="1260" 
d="M924 565q119 -12 189 -76q75 -70 75 -186q0 -184 -147 -254q-102 -49 -312 -49h-606v1061h655q365 0 365 -258q0 -90 -66 -155q-60 -59 -153 -79v-4zM530 657h103q102 0 102 93q0 75 -108 75h-97v-168zM530 250h134q112 0 112 90q0 96 -112 96h-134v-186z" />
    <glyph glyph-name="afii10068" unicode="&#x433;" horiz-adv-x="1040" 
d="M997 764h-452v-764h-408v1061h860v-297z" />
    <glyph glyph-name="afii10069" unicode="&#x434;" horiz-adv-x="1356" 
d="M1331 -303h-282v303h-752v-303h-283v600h103q112 200 112 524v240h990v-764h112v-600zM811 297v467h-195v-12q0 -221 -96 -455h291z" />
    <glyph glyph-name="afii10070" unicode="&#x435;" 
d="M1302 430h-816q11 -97 53 -146q60 -69 154 -69q61 0 114 30q32 18 71 67l401 -37q-100 -175 -248 -242q-127 -57 -347 -57q-189 0 -305 48q-140 57 -227 201q-80 129 -80 304q0 263 170 414q163 143 430 143q419 0 561 -269q69 -131 69 -341v-46zM888 625
q-22 220 -199 220q-96 0 -155 -77q-37 -49 -47 -143h401z" />
    <glyph glyph-name="afii10072" unicode="&#x436;" horiz-adv-x="1892" 
d="M1882 0h-459l-143 293q-30 62 -48 79q-28 27 -83 27v-399h-408v399q-55 0 -83 -27q-18 -18 -48 -79l-143 -293h-459l180 319q67 118 109 156q62 55 174 64q-97 18 -164 142q-38 70 -87 90q-36 15 -126 15h-18v289q175 0 231 -7q149 -17 209 -82q39 -44 85 -148t75 -135
q19 -21 65 -25v383h408v-383q55 5 85 51q5 8 45 98q46 103 87 149q58 64 149 81.5t300 17.5v-289h-19q-90 0 -126 -15q-49 -21 -87 -90q-67 -124 -164 -142q113 -10 174 -64q42 -37 109 -156z" />
    <glyph glyph-name="afii10073" unicode="&#x437;" horiz-adv-x="1389" 
d="M1106 549q87 -27 143 -85q64 -65 64 -149q0 -340 -623 -340q-484 0 -614 379l387 43q23 -64 90 -105q64 -38 135 -38q205 0 205 102q0 78 -141 78h-177v209h181q45 0 87 17q54 22 54 61q0 86 -195 86q-74 0 -137 -29q-73 -35 -94 -98l-375 51q108 354 604 354
q201 0 354 -58q216 -81 216 -249q0 -160 -164 -229z" />
    <glyph glyph-name="afii10074" unicode="&#x438;" horiz-adv-x="1446" 
d="M1309 0h-385v522l-400 -522h-387v1061h385v-529l404 529h383v-1061z" />
    <glyph glyph-name="afii10075" unicode="&#x439;" horiz-adv-x="1446" 
d="M1309 0h-385v522l-400 -522h-387v1061h385v-529l404 529h383v-1061zM1051 1491q-3 -140 -100 -222q-92 -79 -234 -79q-323 0 -348 301h172q30 -107 168 -107q153 0 178 107h164z" />
    <glyph glyph-name="afii10076" unicode="&#x43a;" horiz-adv-x="1315" 
d="M1305 0h-459l-156 293q-32 59 -62 81q-35 25 -98 25v-399h-407v1061h407v-383q56 6 92 55q11 16 52 101q80 169 173 205q87 34 390 34v-289h-18q-152 0 -194 -34q-24 -20 -59 -84q-39 -71 -57 -92q-23 -26 -67 -35q107 -10 165 -66q29 -29 105 -154z" />
    <glyph glyph-name="afii10077" unicode="&#x43b;" horiz-adv-x="1466" 
d="M1343 0h-407v764h-309v-445q0 -350 -295 -350q-170 0 -305 31v301q72 -22 110 -22q82 0 82 122v660h1124v-1061z" />
    <glyph glyph-name="afii10078" unicode="&#x43c;" horiz-adv-x="1733" 
d="M1595 0h-344v666l-252 -666h-245l-273 666v-666h-344v1061h486l254 -610l233 610h485v-1061z" />
    <glyph glyph-name="afii10079" unicode="&#x43d;" horiz-adv-x="1460" 
d="M1323 0h-408v401h-370v-401h-408v1061h408v-363h370v363h408v-1061z" />
    <glyph glyph-name="afii10080" unicode="&#x43e;" 
d="M73 528q0 259 176 412q168 146 431 146q319 0 482 -185q131 -149 131 -367q0 -264 -177 -415q-167 -143 -435 -143q-257 0 -414 130q-194 160 -194 422zM481 529q0 -115 43 -188q52 -90 159 -90q201 0 201 282q0 111 -42 184q-52 89 -156 89q-108 0 -161 -89
q-44 -73 -44 -188z" />
    <glyph glyph-name="afii10081" unicode="&#x43f;" 
d="M1243 0h-407v764h-310v-764h-407v1061h1124v-1061z" />
    <glyph glyph-name="afii10082" unicode="&#x440;" 
d="M125 -404v1466h381v-157q79 99 145 134q89 47 197 47q221 0 342 -179q104 -155 104 -387t-106 -378q-119 -166 -342 -166q-187 0 -310 127v-507h-411zM533 528q0 -104 40 -169q49 -79 147 -79q167 0 167 257q0 100 -35 166q-45 84 -137 84q-182 0 -182 -259z" />
    <glyph glyph-name="afii10083" unicode="&#x441;" 
d="M915 415l387 -44q-66 -250 -291 -347q-114 -49 -289 -49q-322 0 -475 134q-173 150 -173 417q0 266 168 417q71 63 146 94q119 49 305 49q229 0 366 -75q160 -88 222 -290l-383 -51q-36 137 -193 137q-118 0 -177 -91q-49 -76 -49 -201q0 -115 52 -186q58 -81 168 -81
q163 0 216 167z" />
    <glyph glyph-name="afii10084" unicode="&#x442;" horiz-adv-x="1040" 
d="M1018 764h-295v-764h-408v764h-295v297h998v-297z" />
    <glyph glyph-name="afii10085" unicode="&#x443;" horiz-adv-x="1251" 
d="M5 1062h430l219 -707l203 707h401l-421 -1135q-72 -194 -147 -262q-106 -96 -323 -96q-88 0 -272 24l-32 284q88 -28 196 -28q137 0 192 151z" />
    <glyph glyph-name="afii10086" unicode="&#x444;" horiz-adv-x="2075" 
d="M1241 954q122 131 311 131q222 0 343 -181q104 -156 104 -390q0 -230 -107 -375q-121 -164 -342 -164q-196 0 -309 127v-508h-407v506q-128 -125 -312 -125q-222 0 -342 182q-104 156 -104 390q0 229 107 375q120 163 341 163q195 0 310 -135v516h407v-512zM1425 276
q166 0 166 246q0 262 -172 262q-182 0 -182 -258q0 -102 42 -170q50 -80 146 -80zM655 276q183 0 183 259q0 103 -42 170q-50 79 -147 79q-89 0 -132 -83q-34 -64 -34 -162q0 -263 172 -263z" />
    <glyph glyph-name="afii10087" unicode="&#x445;" 
d="M31 1062h483l169 -296l196 296h449l-362 -506l388 -556h-475l-196 342l-231 -342h-441l386 556z" />
    <glyph glyph-name="afii10088" unicode="&#x446;" horiz-adv-x="1413" 
d="M1397 -303h-283v303h-997v1061h407v-764h310v764h407v-764h156v-600z" />
    <glyph glyph-name="afii10089" unicode="&#x447;" horiz-adv-x="1356" 
d="M1239 0h-408v391q-154 -92 -333 -92q-383 0 -383 408v354h407v-291q0 -154 125 -154q114 0 184 93v352h408v-1061z" />
    <glyph glyph-name="afii10090" unicode="&#x448;" horiz-adv-x="1944" 
d="M1794 0h-1677v1061h407v-764h228v764h407v-764h227v764h408v-1061z" />
    <glyph glyph-name="afii10091" unicode="&#x449;" horiz-adv-x="1970" 
d="M1950 -303h-283v303h-1550v1061h407v-764h228v764h407v-764h227v764h408v-764h156v-600z" />
    <glyph glyph-name="afii10092" unicode="&#x44a;" horiz-adv-x="1579" 
d="M848 684h186q471 0 471 -344q0 -340 -458 -340h-607v764h-432v297h840v-377zM848 250h133q113 0 113 90q0 96 -113 96h-133v-186z" />
    <glyph glyph-name="afii10093" unicode="&#x44b;" horiz-adv-x="1862" 
d="M545 684h186q471 0 471 -344q0 -340 -459 -340h-606v1061h408v-377zM545 250h133q113 0 113 90q0 96 -113 96h-133v-186zM1318 1062h407v-1062h-407v1062z" />
    <glyph glyph-name="afii10094" unicode="&#x44c;" horiz-adv-x="1272" 
d="M545 684h186q471 0 471 -344q0 -340 -459 -340h-606v1061h408v-377zM545 250h133q113 0 113 90q0 96 -113 96h-133v-186z" />
    <glyph glyph-name="afii10095" unicode="&#x44d;" 
d="M84 721q62 202 222 289q137 75 366 75q179 0 292 -43q133 -51 232 -179q96 -126 96 -337q0 -551 -649 -551q-471 0 -580 400l388 43q49 -164 217 -164q171 0 209 170h-314v209h307q-44 174 -211 174q-160 0 -192 -137z" />
    <glyph glyph-name="afii10096" unicode="&#x44e;" horiz-adv-x="1997" 
d="M729 698q58 195 220 295q149 92 362 92q269 0 435 -139q177 -148 177 -411q0 -264 -176 -416q-167 -144 -436 -144q-225 0 -378 104q-164 111 -214 322h-174v-401h-408v1061h408v-363h184zM1313 254q203 0 203 278q0 113 -42 186q-52 89 -157 89q-108 0 -161 -90
q-44 -73 -44 -189q0 -274 201 -274z" />
    <glyph glyph-name="afii10097" unicode="&#x44f;" horiz-adv-x="1278" 
d="M1155 0h-407v412h-15q-68 0 -117 -95l-163 -317h-451l158 307q71 137 184 150q-117 18 -190.5 100t-73.5 199q0 105 50 180q54 82 152 103.5t248 21.5h625v-1061zM748 653v166h-127q-67 0 -92 -10q-42 -17 -42 -72q0 -84 148 -84h113z" />
    <glyph glyph-name="afii10071" unicode="&#x451;" 
d="M1302 430h-816q11 -97 53 -146q60 -69 154 -69q61 0 114 30q32 18 71 67l401 -37q-100 -175 -248 -242q-127 -57 -347 -57q-189 0 -305 48q-140 57 -227 201q-80 129 -80 304q0 263 170 414q163 143 430 143q419 0 561 -269q69 -131 69 -341v-46zM888 625
q-22 220 -199 220q-96 0 -155 -77q-37 -49 -47 -143h401zM340 1446h260v-250h-260v250zM764 1446h263v-250h-263v250z" />
    <glyph glyph-name="afii10099" unicode="&#x452;" horiz-adv-x="1384" 
d="M1264 53q0 -156 -13 -220q-24 -121 -107 -184q-79 -59 -235 -59q-124 0 -293 35l62 295q54 -10 72 -10q106 0 106 178v496q0 184 -143 184q-166 0 -166 -258v-510h-408v1186h-119v186h119v94h408v-94h244v-186h-244v-260q143 159 360 159q357 0 357 -409v-623z" />
    <glyph glyph-name="afii10100" unicode="&#x453;" horiz-adv-x="909" 
d="M127 1062h381v-174q48 99 98 143q63 55 160 55q90 0 197 -56l-126 -290q-72 30 -114 30q-187 0 -187 -414v-356h-409v1062zM512 1491h350l-323 -299h-195z" />
    <glyph glyph-name="afii10101" unicode="&#x454;" 
d="M1303 375q-109 -400 -580 -400q-649 0 -649 551q0 361 293 501q122 58 327 58q229 0 366 -75q160 -87 222 -289l-383 -51q-32 137 -192 137q-167 0 -211 -174h307v-209h-314q38 -170 209 -170q168 0 217 164z" />
    <glyph glyph-name="afii10102" unicode="&#x455;" horiz-adv-x="1251" 
d="M51 294l404 38q47 -134 190 -134q59 0 104 21q58 27 58 79q0 44 -46 68q-33 17 -175 42q-187 33 -236 48q-133 41 -197 127q-57 75 -57 171q0 214 229 295q107 37 287 37q150 0 230 -17q126 -26 202 -102q60 -61 100 -165l-386 -38q-31 107 -166 107q-132 0 -132 -84
q0 -53 87 -76q27 -7 127 -19q166 -19 248 -45q142 -44 206 -136q52 -76 52 -167q0 -218 -230 -317q-120 -52 -326 -52q-231 0 -356 53q-173 74 -217 266z" />
    <glyph glyph-name="afii10103" unicode="&#x456;" horiz-adv-x="682" 
d="M138 1466h407v-277h-407v277zM138 1062h407v-1062h-407v1062z" />
    <glyph glyph-name="afii10104" unicode="&#x457;" horiz-adv-x="682" 
d="M138 1062h407v-1062h-407v1062zM-2 1446h260v-250h-260v250zM422 1446h263v-250h-263v250z" />
    <glyph glyph-name="afii10105" unicode="&#x458;" horiz-adv-x="682" 
d="M139 1466h408v-280h-408v280zM139 1062h408v-1030q0 -161 -15 -228q-27 -123 -119 -184q-77 -51 -220 -51q-118 0 -293 35l61 296q49 -10 72 -10q106 0 106 177v995z" />
    <glyph glyph-name="afii10106" unicode="&#x459;" horiz-adv-x="2071" 
d="M1343 684h187q471 0 471 -344q0 -340 -459 -340h-606v764h-309v-445q0 -350 -295 -350q-170 0 -305 31v301q72 -22 110 -22q82 0 82 122v660h1124v-377zM1343 250h134q112 0 112 90q0 96 -112 96h-134v-186z" />
    <glyph glyph-name="afii10107" unicode="&#x45a;" horiz-adv-x="2095" 
d="M1364 684h186q471 0 471 -344q0 -340 -458 -340h-607v401h-411v-401h-408v1061h408v-363h411v363h408v-377zM1364 250h133q113 0 113 90q0 96 -113 96h-133v-186z" />
    <glyph glyph-name="afii10108" unicode="&#x45b;" horiz-adv-x="1384" 
d="M1264 0h-408v584q0 184 -143 184q-166 0 -166 -258v-510h-408v1186h-119v186h119v94h408v-94h244v-186h-244v-260q143 159 360 159q357 0 357 -409v-676z" />
    <glyph glyph-name="afii10109" unicode="&#x45c;" horiz-adv-x="1315" 
d="M1305 0h-459l-156 293q-32 59 -62 81q-35 25 -98 25v-399h-407v1061h407v-383q56 6 92 55q11 16 52 101q80 169 173 205q87 34 390 34v-289h-18q-152 0 -194 -34q-24 -20 -59 -84q-39 -71 -57 -92q-23 -26 -67 -35q107 -10 165 -66q29 -29 105 -154zM675 1491h350
l-323 -299h-195z" />
    <glyph glyph-name="afii10110" unicode="&#x45e;" horiz-adv-x="1251" 
d="M5 1062h430l219 -707l203 707h401l-421 -1135q-72 -194 -147 -262q-106 -96 -323 -96q-88 0 -272 24l-32 284q88 -28 196 -28q137 0 192 151zM952 1491q-2 -140 -99 -223q-92 -78 -235 -78q-151 0 -241 75q-94 78 -107 226h172q30 -107 168 -107q153 0 178 107h164z" />
    <glyph glyph-name="afii10193" unicode="&#x45f;" 
d="M1243 0h-422v-303h-282v303h-420v1061h407v-764h310v764h407v-1061z" />
    <glyph glyph-name="afii10050" unicode="&#x490;" horiz-adv-x="1137" 
d="M1102 1106h-500v-1106h-452v1466h587v297h365v-657z" />
    <glyph glyph-name="afii10098" unicode="&#x491;" horiz-adv-x="958" 
d="M924 764h-379v-764h-408v1061h525v303h262v-600z" />
    <glyph glyph-name="Wgrave" unicode="&#x1e80;" horiz-adv-x="2048" 
d="M-1 1466h430l155 -819l226 819h429l227 -819l155 819h428l-323 -1466h-444l-257 923l-256 -923h-444zM753 1871h347l164 -298h-192z" />
    <glyph glyph-name="wgrave" unicode="&#x1e81;" horiz-adv-x="1933" 
d="M3 1062h394l171 -669l216 669h367l224 -669l171 669h391l-391 -1062h-362l-215 639l-208 -639h-364zM677 1491h347l164 -298h-192z" />
    <glyph glyph-name="Wacute" unicode="&#x1e82;" horiz-adv-x="2048" 
d="M-1 1466h430l155 -819l226 819h429l227 -819l155 819h428l-323 -1466h-444l-257 923l-256 -923h-444zM979 1867h350l-323 -299h-195z" />
    <glyph glyph-name="wacute" unicode="&#x1e83;" horiz-adv-x="1933" 
d="M3 1062h394l171 -669l216 669h367l224 -669l171 669h391l-391 -1062h-362l-215 639l-208 -639h-364zM947 1491h350l-323 -299h-195z" />
    <glyph glyph-name="Wdieresis" unicode="&#x1e84;" horiz-adv-x="2048" 
d="M-1 1466h430l155 -819l226 819h429l227 -819l155 819h428l-323 -1466h-444l-257 923l-256 -923h-444zM686 1818h260v-250h-260v250zM1110 1818h263v-250h-263v250z" />
    <glyph glyph-name="wdieresis" unicode="&#x1e85;" horiz-adv-x="1933" 
d="M3 1062h394l171 -669l216 669h367l224 -669l171 669h391l-391 -1062h-362l-215 639l-208 -639h-364zM622 1446h260v-250h-260v250zM1046 1446h263v-250h-263v250z" />
    <glyph glyph-name="Ygrave" unicode="&#x1ef2;" horiz-adv-x="1593" 
d="M2 1466h503l296 -495l296 495h500l-570 -852v-614h-454v614zM469 1867h347l164 -298h-192z" />
    <glyph glyph-name="ygrave" unicode="&#x1ef3;" horiz-adv-x="1251" 
d="M5 1062h430l219 -707l203 707h401l-421 -1135q-72 -194 -147 -262q-106 -96 -323 -96q-88 0 -272 24l-32 284q88 -28 196 -28q137 0 192 151zM341 1491h347l164 -298h-192z" />
    <glyph glyph-name="endash" unicode="&#x2013;" horiz-adv-x="1024" 
d="M-12 646h1048v-222h-1048v222z" />
    <glyph glyph-name="emdash" unicode="&#x2014;" horiz-adv-x="2048" 
d="M-12 646h2072v-222h-2072v222z" />
    <glyph glyph-name="afii00208" unicode="&#x2015;" horiz-adv-x="1536" 
d="M-12 646h1559v-222h-1559v222z" />
    <glyph glyph-name="underscoredbl" unicode="&#x2017;" horiz-adv-x="1024" 
d="M1036 -154h-1048v102h1048v-102zM1036 -358h-1048v102h1048v-102z" />
    <glyph glyph-name="quoteleft" unicode="&#x2018;" horiz-adv-x="569" 
d="M505 675h-435v335q0 189 84 300q76 102 257 181l94 -178q-198 -93 -208 -234h208v-404z" />
    <glyph glyph-name="quoteright" unicode="&#x2019;" horiz-adv-x="569" 
d="M70 1491h435v-335q0 -189 -83 -300q-76 -102 -257 -181l-95 178q96 45 141 88q61 59 67 146h-208v404z" />
    <glyph glyph-name="quotesinglbase" unicode="&#x201a;" horiz-adv-x="569" 
d="M70 404h435v-335q0 -188 -83 -300q-76 -101 -257 -181l-95 178q96 45 141 88q61 59 67 146h-208v404z" />
    <glyph glyph-name="quotereversed" unicode="&#x201b;" horiz-adv-x="569" 
d="M505 1491v-404h-208q6 -87 67 -146q45 -43 141 -88l-95 -178q-181 79 -257 181q-83 111 -83 300v335h435z" />
    <glyph glyph-name="quotedblleft" unicode="&#x201c;" horiz-adv-x="1024" 
d="M490 675h-435v335q0 189 84 300q76 102 257 181l94 -178q-198 -93 -208 -234h208v-404zM997 675h-435v335q0 189 84 300q76 102 257 181l94 -178q-198 -93 -208 -234h208v-404z" />
    <glyph glyph-name="quotedblright" unicode="&#x201d;" horiz-adv-x="1024" 
d="M55 1491h435v-335q0 -189 -83 -300q-76 -102 -257 -181l-95 178q96 45 141 88q61 59 67 146h-208v404zM562 1491h435v-335q0 -189 -83 -300q-76 -102 -257 -181l-95 178q96 45 141 88q61 59 67 146h-208v404z" />
    <glyph glyph-name="quotedblbase" unicode="&#x201e;" horiz-adv-x="1024" 
d="M55 404h435v-335q0 -188 -83 -300q-76 -101 -257 -181l-95 178q96 45 141 88q61 59 67 146h-208v404zM562 404h435v-335q0 -188 -83 -300q-76 -101 -257 -181l-95 178q96 45 141 88q61 59 67 146h-208v404z" />
    <glyph glyph-name="dagger" unicode="&#x2020;" 
d="M511 1466h352v-380h374v-296h-374v-1197h-352v1197h-370v296h370v380z" />
    <glyph glyph-name="daggerdbl" unicode="&#x2021;" 
d="M511 1466h352v-334h374v-297h-374v-612h374v-296h-374v-334h-352v334h-370v296h370v612h-370v297h370v334z" />
    <glyph glyph-name="bullet" unicode="&#x2022;" horiz-adv-x="1024" 
d="M844 721q0 -138 -97 -235t-235 -97t-235 97t-97 235q0 139 96.5 235.5t235.5 96.5t235.5 -96.5t96.5 -235.5z" />
    <glyph glyph-name="ellipsis" unicode="&#x2026;" horiz-adv-x="2048" 
d="M124 408h435v-408h-435v408zM807 408h435v-408h-435v408zM1489 408h435v-408h-435v408z" />
    <glyph glyph-name="perthousand" unicode="&#x2030;" horiz-adv-x="2048" 
d="M0 1105q0 386 303 386q157 0 236 -113q68 -97 68 -262q0 -396 -304 -396q-303 0 -303 385zM211 1105q0 -228 91 -228q92 0 92 228t-92 228q-91 0 -91 -228zM874 1491h180l-572 -1565h-178zM743 312q0 386 303 386q157 0 236 -113q68 -98 68 -263q0 -396 -304 -396
q-303 0 -303 386zM954 311q0 -228 92 -228q91 0 91 228q0 229 -91 229q-92 0 -92 -229zM1442 312q0 386 303 386q157 0 235 -114q68 -98 68 -262q0 -396 -303 -396t-303 386zM1652 311q0 -228 92 -228t92 228q0 229 -92 229t-92 -229z" />
    <glyph glyph-name="minute" unicode="&#x2032;" horiz-adv-x="623" 
d="M520 1491l-201 -401h-194l45 401h350z" />
    <glyph glyph-name="second" unicode="&#x2033;" horiz-adv-x="1073" 
d="M973 1491l-201 -401h-194l45 401h350zM514 1491l-201 -401h-194l45 401h350z" />
    <glyph glyph-name="guilsinglleft" unicode="&#x2039;" horiz-adv-x="682" 
d="M342 996h312l-277 -463l277 -462h-312l-319 462z" />
    <glyph glyph-name="guilsinglright" unicode="&#x203a;" horiz-adv-x="682" 
d="M340 996h-312l277 -463l-277 -462h312l319 462z" />
    <glyph glyph-name="exclamdbl" unicode="&#x203c;" horiz-adv-x="1237" 
d="M1116 1133l-84 -672h-266l-84 672v333h434v-333zM559 1133l-84 -672h-266l-84 672v333h434v-333zM1102 0h-406v358h406v-358zM545 0h-406v358h406v-358z" />
    <glyph glyph-name="radicalex" unicode="&#x203e;" horiz-adv-x="1024" 
d="M1036 1768h-1048v102h1048v-102z" />
    <glyph glyph-name="fraction" unicode="&#x2044;" horiz-adv-x="342" 
d="M523 1491h215l-922 -1544h-213z" />
    <glyph glyph-name="foursuperior" unicode="&#x2074;" horiz-adv-x="811" 
d="M449 841h-408v189l418 461h214v-484h99v-166h-99v-121h-224v121zM449 1007v219l-204 -219h204z" />
    <glyph glyph-name="fivesuperior" unicode="&#x2075;" horiz-adv-x="819" 
d="M287 1204q75 33 178 33q123 0 212 -56q103 -66 103 -182q0 -146 -117 -217q-97 -59 -253 -59q-309 0 -375 207l246 35q17 -93 127 -93q52 0 90.5 29t38.5 80q0 106 -134 106q-85 0 -137 -57l-196 29l65 428h604v-172h-434z" />
    <glyph glyph-name="sevensuperior" unicode="&#x2077;" horiz-adv-x="819" 
d="M743 1348q-225 -208 -260 -627h-262q38 312 271 594h-412v176h663v-143z" />
    <glyph glyph-name="eightsuperior" unicode="&#x2078;" horiz-adv-x="819" 
d="M792 1133q129 -40 129 -168q0 -244 -383 -244q-381 0 -381 244q0 127 127 168q-105 43 -105 149q0 209 359 209q138 0 230 -38q128 -53 128 -171q0 -105 -104 -149zM538 1196q118 0 118 74q0 73 -116 73q-121 0 -121 -73q0 -74 119 -74zM538 872q131 0 131 101
q0 98 -131 98t-131 -98q0 -101 131 -101z" />
    <glyph glyph-name="nsuperior" unicode="&#x207f;" horiz-adv-x="893" 
d="M831 745h-274v396q0 127 -96 127q-115 0 -115 -178v-345h-276v721h256v-118h8q89 135 256 135q241 0 241 -279v-459z" />
    <glyph glyph-name="franc" unicode="&#x20a3;" horiz-adv-x="1707" 
d="M917 895v73h381v-174q50 100 99 143q63 55 160 55q89 0 196 -56l-126 -290q-72 30 -114 30q-187 0 -187 -414v-262h-409v599h-307v-599h-455v1466h1120v-315h-665v-256h307z" />
    <glyph glyph-name="afii08941" unicode="&#x20a4;" 
d="M1356 63q-165 -88 -336 -88q-84 0 -202 30q-99 25 -198 51q-46 10 -92 10q-135 0 -286 -91l-127 283q155 114 198 244h-209v139h207q-6 75 -16 102h-191v140h150q-41 99 -41 194q0 128 72.5 233t193.5 147q101 34 269 34q134 0 216 -22q104 -27 190 -102q96 -85 132 -259
l-383 -59q-45 176 -151 176q-129 0 -129 -146q0 -84 43 -196h305v-140h-260q0 -43 -6 -102h266v-139h-293q-25 -105 -68 -154l4 -4q53 14 93 14q39 0 178 -30q75 -17 135 -17q100 0 201 49z" />
    <glyph glyph-name="peseta" unicode="&#x20a7;" horiz-adv-x="3527" 
d="M148 1466h753q491 0 491 -450q0 -472 -541 -472h-248v-544h-455v1466zM603 841h111q237 0 237 162q0 165 -219 165h-129v-327zM2014 1466v-404h224v-297h-224v-377q0 -68 13 -90q20 -34 70 -34q45 0 126 26l30 -281q-151 -33 -282 -33q-125 0 -194 26q-95 36 -136 132
q-35 79 -35 257v374h-150v297h150v195zM2327 294l404 38q47 -134 190 -134q59 0 104 21q58 27 58 79q0 44 -46 68q-33 17 -175 42q-187 33 -236 48q-133 41 -197 127q-57 75 -57 171q0 214 229 295q107 37 287 37q150 0 230 -17q126 -26 202 -102q60 -61 100 -165l-386 -38
q-31 107 -166 107q-132 0 -132 -84q0 -53 87 -76q27 -7 127 -19q166 -19 248 -45q142 -44 206 -136q52 -76 52 -167q0 -218 -230 -317q-120 -52 -326 -52q-231 0 -356 53q-173 74 -217 266z" />
    <glyph glyph-name="afii61248" unicode="&#x2105;" horiz-adv-x="2048" 
d="M1554 1491l-845 -1565h-209l843 1565h211zM877 963q-72 -242 -357 -242q-422 0 -422 385t418 385q301 0 361 -236l-242 -43q-22 86 -119 86q-137 0 -137 -192q0 -188 137 -188q103 0 133 94zM1552 698q180 0 289 -103t109 -282q0 -178 -109 -281.5t-289 -103.5t-287 102
q-110 104 -110 283t110 283q107 102 287 102zM1552 117q117 0 117 196q0 197 -117 197q-116 0 -116 -197q0 -196 116 -196z" />
    <glyph glyph-name="afii61289" unicode="&#x2113;" horiz-adv-x="1201" 
d="M623 542q-56 -292 -56 -372q0 -55 29 -55q38 0 83 96q20 42 47 42q38 0 38 -45q0 -89 -71 -164.5t-159 -75.5q-166 0 -166 300q0 34 3 91q-52 -55 -68 -55q-40 0 -40 57q0 27 27 57q73 82 97 112q147 853 431 853q80 0 125 -58q41 -52 41 -135q0 -288 -361 -648zM653 729
q82 91 139 206q66 132 66 237q0 74 -35 74q-77 0 -170 -517z" />
    <glyph glyph-name="afii61352" unicode="&#x2116;" horiz-adv-x="2755" 
d="M1554 0h-428l-548 805v-805h-426v1466h423l553 -811v811h426v-1466zM2154 1262q215 0 348 -111q142 -120 142 -330q0 -213 -141 -334q-133 -114 -349 -114q-209 0 -343 115q-142 121 -142 327q0 208 140 330q134 117 345 117zM2157 610q141 0 141 209q0 205 -137 205
q-144 0 -144 -209q0 -205 140 -205zM2607 45h-868v242h868v-242z" />
    <glyph glyph-name="trademark" unicode="&#x2122;" horiz-adv-x="1946" 
d="M36 1466h801v-194h-285v-621h-235v621h-281v194zM930 1466h357l113 -445l119 445h346v-815h-221v576l-153 -576h-185l-151 576v-576h-225v815z" />
    <glyph glyph-name="Ohm" unicode="&#x2126;" horiz-adv-x="1749" 
d="M551 206q-114 48 -185 112q-200 180 -200 493q0 314 192.5 503t507.5 189q457 0 640 -323q93 -166 93 -367q0 -437 -382 -605l330 23h72v-231h-642v243q98 47 153 105q153 160 153 436q0 214 -94 348q-108 152 -313 152q-196 0 -304 -155q-95 -135 -95 -340
q0 -283 168 -451q52 -52 144 -95v-243h-645v230h98z" />
    <glyph glyph-name="estimated" unicode="&#x212e;" horiz-adv-x="1229" 
d="M321 531v-371q120 -121 298 -121q254 0 395 246l72 -43q-96 -139 -197 -203q-115 -73 -270 -73q-239 0 -387 164q-142 159 -142 401q0 243 142 401q147 164 387 164q244 0 386 -163q133 -152 143 -402h-827zM917 605v297q-124 121 -300 121q-174 0 -296 -121v-297h596z
" />
    <glyph glyph-name="oneeighth" unicode="&#x215b;" horiz-adv-x="2048" 
d="M643 1491v-750h-260v448q-94 -55 -226 -82v207q184 45 288 177h198zM1329 1491h215l-922 -1544h-213zM2314 363q129 -40 129 -168q0 -244 -383 -244q-381 0 -381 244q0 127 127 168q-105 43 -105 149q0 209 359 209q138 0 230 -38q128 -53 128 -171q0 -105 -104 -149z
M2060 426q118 0 118 74q0 73 -116 73q-121 0 -121 -73q0 -74 119 -74zM2060 102q131 0 131 101q0 98 -131 98t-131 -98q0 -101 131 -101z" />
    <glyph glyph-name="threeeighths" unicode="&#x215c;" horiz-adv-x="2048" 
d="M349 1258l-258 40q57 110 156 155q83 38 221 38q181 0 272 -67q65 -48 65 -124q0 -53 -36 -98q-25 -31 -90 -62q156 -51 156 -195q0 -224 -376 -224q-191 0 -293 78q-59 45 -87 134l254 29q30 -90 122 -90q47 0 81 22q38 26 38 71q0 51 -56 79q-32 16 -149 18l28 141
q146 0 146 77q0 61 -81 61q-84 0 -113 -83zM1329 1491h215l-922 -1544h-213zM2322 363q129 -40 129 -168q0 -244 -383 -244q-381 0 -381 244q0 127 127 168q-105 43 -105 149q0 209 359 209q138 0 230 -38q128 -53 128 -171q0 -105 -104 -149zM2068 426q118 0 118 74
q0 73 -116 73q-121 0 -121 -73q0 -74 119 -74zM2068 102q131 0 131 101q0 98 -131 98t-131 -98q0 -101 131 -101z" />
    <glyph glyph-name="fiveeighths" unicode="&#x215d;" horiz-adv-x="2048" 
d="M347 1204q75 33 178 33q123 0 212 -56q103 -66 103 -182q0 -146 -117 -217q-97 -59 -253 -59q-309 0 -375 207l246 35q17 -93 127 -93q52 0 90.5 29t38.5 80q0 106 -134 106q-85 0 -137 -57l-196 29l65 428h604v-172h-434zM1335 1491h215l-922 -1544h-213zM2318 363
q129 -40 129 -168q0 -244 -383 -244q-381 0 -381 244q0 127 127 168q-105 43 -105 149q0 209 359 209q138 0 230 -38q128 -53 128 -171q0 -105 -104 -149zM2064 426q118 0 118 74q0 73 -116 73q-121 0 -121 -73q0 -74 119 -74zM2064 102q131 0 131 101q0 98 -131 98
t-131 -98q0 -101 131 -101z" />
    <glyph glyph-name="seveneighths" unicode="&#x215e;" horiz-adv-x="2048" 
d="M795 1348q-225 -208 -260 -627h-262q38 312 271 594h-412v176h663v-143zM1271 1491h215l-922 -1544h-213zM2314 363q129 -40 129 -168q0 -244 -383 -244q-381 0 -381 244q0 127 127 168q-105 43 -105 149q0 209 359 209q138 0 230 -38q128 -53 128 -171q0 -105 -104 -149
zM2060 426q118 0 118 74q0 73 -116 73q-121 0 -121 -73q0 -74 119 -74zM2060 102q131 0 131 101q0 98 -131 98t-131 -98q0 -101 131 -101z" />
    <glyph glyph-name="arrowleft" unicode="&#x2190;" horiz-adv-x="2048" 
d="M492 876h76q-81 -170 -195 -309h1595v-101h-1595q102 -102 198 -309h-78q-223 253 -414 341v45q177 71 413 333z" />
    <glyph glyph-name="arrowup" unicode="&#x2191;" horiz-adv-x="1024" 
d="M153 1050q262 236 333 413h46q87 -192 340 -415v-77q-207 96 -309 197v-1597h-101v1597q-139 -114 -309 -195v77z" />
    <glyph glyph-name="arrowright" unicode="&#x2192;" horiz-adv-x="2048" 
d="M1555 876q237 -262 413 -333v-45q-191 -88 -414 -341h-77q95 207 197 309h-1595v101h1595q-114 139 -195 309h76z" />
    <glyph glyph-name="arrowdown" unicode="&#x2193;" horiz-adv-x="1024" 
d="M153 -16v76q170 -81 309 -195v1598h101v-1598q102 102 309 197v-77q-253 -223 -340 -414h-46q-71 176 -333 413z" />
    <glyph glyph-name="arrowboth" unicode="&#x2194;" horiz-adv-x="2048" 
d="M1968 540v-45q-181 -79 -406 -337h-80q69 172 194 311h-1305q125 -139 194 -311h-80q-224 258 -406 337v45q182 79 406 338h80q-69 -172 -194 -311h1305q-125 139 -194 311h80q225 -259 406 -338z" />
    <glyph glyph-name="arrowupdn" unicode="&#x2195;" horiz-adv-x="1024" 
d="M489 1463h45q79 -182 337 -407v-80q-171 69 -311 195v-1306q140 126 311 194v-79q-258 -225 -337 -407h-45q-79 182 -337 407v79q171 -68 311 -194v1306q-140 -126 -311 -195v80q258 225 337 407z" />
    <glyph glyph-name="arrowupdnbse" unicode="&#x21a8;" horiz-adv-x="1024" 
d="M489 1463h45q79 -182 337 -407v-80q-171 69 -311 195v-1306q140 126 311 194v-79q-258 -225 -337 -407h-45q-79 182 -337 407v79q171 -68 311 -194v1306q-140 -126 -311 -195v80q258 225 337 407zM154 -522h717v-98h-717v98z" />
    <glyph glyph-name="partialdiff" unicode="&#x2202;" horiz-adv-x="1024" 
d="M377 1150h-42q101 284 348 284q294 0 294 -393q0 -276 -75 -531q-93 -314 -269 -455q-98 -78 -232 -78q-203 0 -278 157q-38 77 -38 159q0 254 213 464q181 177 374 177q164 0 236 -150q8 82 8 127q0 171 -116 265q-71 58 -197 58q-142 0 -226 -84zM892 691
q-63 192 -214 192q-177 0 -279 -323q-58 -182 -58 -348q0 -168 119 -168q100 0 200 117q166 194 232 530z" />
    <glyph glyph-name="increment" unicode="&#x2206;" horiz-adv-x="1253" 
d="M1226 0h-1200l628 1387zM990 82l-399 967l-440 -967h839z" />
    <glyph glyph-name="product" unicode="&#x220f;" horiz-adv-x="1685" 
d="M1240 1413h-795v-1652q0 -85 38 -120t124 -35h36v-37h-597v37h35q163 0 163 155v1538q0 85 -38.5 120t-124.5 35h-35v37h1594v-37h-35q-86 0 -124 -35t-38 -120v-1538q0 -85 38 -120t124 -35h35v-37h-597v37h35q86 0 124 35t38 120v1652z" />
    <glyph glyph-name="summation" unicode="&#x2211;" horiz-adv-x="1460" 
d="M1356 -431h-1313v36l669 932l-669 917v37h1278l27 -336h-40q-30 256 -249 256h-740l562 -788l-629 -878h818q68 0 153 28q113 37 157 219l40 -8z" />
    <glyph glyph-name="periodcentered" unicode="&#x2219;" horiz-adv-x="682" 
d="M124 937h435v-408h-435v408z" />
    <glyph glyph-name="radical" unicode="&#x221a;" horiz-adv-x="1124" 
d="M1050 1869h74l-312 -1947l-496 1021l-198 -91l-34 64l301 151l405 -823z" />
    <glyph glyph-name="infinity" unicode="&#x221e;" horiz-adv-x="1195" 
d="M548 854q139 228 323 228q145 0 229 -104q78 -97 78 -245t-78 -245q-84 -104 -229 -104q-183 0 -323 228q-123 -172 -287 -172q-115 0 -182 91q-60 82 -60 202t60 201q67 91 182 91q163 0 287 -171zM641 735q59 -91 68 -102q44 -59 89 -82q35 -19 76 -19q79 0 122 65
q36 56 36 140q0 80 -36 135q-43 63 -119 63q-108 0 -236 -200zM462 737q-100 141 -190 141q-54 0 -85 -44q-28 -40 -28 -96q0 -58 27 -98q31 -46 86 -46q39 0 70 21q54 36 120 122z" />
    <glyph glyph-name="orthogonal" unicode="&#x221f;" horiz-adv-x="2005" 
d="M362 1279h100v-1179h1181v-100h-1281v1279z" />
    <glyph glyph-name="intersection" unicode="&#x2229;" horiz-adv-x="1472" 
d="M302 0h-110v560q0 319 22 420q36 166 174 279q152 125 348 125q132 0 257 -64q129 -66 198 -174q69 -111 85 -285q5 -53 5 -301v-560h-109v566q0 215 -4 265q-13 158 -68 252q-52 88 -157 143q-101 52 -207 52q-105 0 -206 -53q-106 -55 -157 -142q-53 -90 -66 -252
q-5 -58 -5 -265v-566z" />
    <glyph glyph-name="integral" unicode="&#x222b;" horiz-adv-x="555" 
d="M198 948l18 548q3 93 32 187q35 116 108 158q39 22 76 22q46 0 85.5 -31t39.5 -76q0 -43 -25 -73.5t-67 -30.5q-35 0 -76 36q-23 20 -40 20q-40 0 -40 -64q0 -45 9 -145q37 -413 37 -665q0 -67 -14 -526q-5 -164 -20 -256q-32 -199 -122 -250q-39 -22 -84 -22
q-53 0 -85.5 34t-32.5 87q0 99 90 99q36 0 69 -32t49 -32q39 0 39 61q0 43 -9 120q-40 341 -40 655q0 88 3 176z" />
    <glyph glyph-name="approxequal" unicode="&#x2248;" horiz-adv-x="1352" 
d="M1246 1213v-325q-190 -154 -333 -154q-108 0 -299 97q-125 63 -197 63q-154 0 -318 -161v329q171 153 351 153q93 0 262 -82q155 -76 231 -76q134 0 303 156zM1246 731v-326q-192 -154 -333 -154q-108 0 -299 97q-125 63 -197 63q-154 0 -318 -160v329q170 152 351 152
q93 0 262 -81q158 -77 231 -77q134 0 303 157z" />
    <glyph glyph-name="approxequal" unicode="&#x22f2;" horiz-adv-x="1352" 
d="M1246 1213v-325q-190 -154 -333 -154q-108 0 -299 97q-125 63 -197 63q-154 0 -318 -161v329q171 153 351 153q93 0 262 -82q155 -76 231 -76q134 0 303 156zM1246 731v-326q-192 -154 -333 -154q-108 0 -299 97q-125 63 -197 63q-154 0 -318 -160v329q170 152 351 152
q93 0 262 -81q158 -77 231 -77q134 0 303 157z" />
    <glyph glyph-name="notequal" unicode="&#x2260;" horiz-adv-x="1352" 
d="M98 1141h595l202 515h276l-201 -515h275v-324h-399l-67 -168h466v-324h-593l-203 -517h-279l203 517h-275v324h403l65 168h-468v324z" />
    <glyph glyph-name="equivalence" unicode="&#x2261;" horiz-adv-x="1229" 
d="M1102 1000v-123h-975v123h975zM1102 759v-123h-975v123h975zM1102 517v-123h-975v123h975z" />
    <glyph glyph-name="lessequal" unicode="&#x2264;" horiz-adv-x="1352" 
d="M1247 273l-1149 470v294l1149 475v-350l-703 -271l703 -268v-350zM98 200h1149v-324h-1149v324z" />
    <glyph glyph-name="greaterequal" unicode="&#x2265;" horiz-adv-x="1352" 
d="M105 273l1149 470v294l-1149 475v-350l703 -271l-703 -268v-350zM1254 200h-1149v-324h1149v324z" />
    <glyph glyph-name="house" unicode="&#x2302;" horiz-adv-x="1229" 
d="M153 0v634l461 519l462 -519v-634h-923zM234 81h761v519l-381 427l-380 -427v-519z" />
    <glyph glyph-name="revlogicalnot" unicode="&#x2310;" horiz-adv-x="1352" 
d="M1218 1133v-325h-766v-492h-326v817h1092z" />
    <glyph glyph-name="integraltp" unicode="&#x2320;" horiz-adv-x="1229" 
d="M687 -515h-145v1813q0 163 63 285q80 154 229 154q138 0 138 -109q0 -38 -25 -65t-63 -27q-59 0 -98 61q-23 37 -47 37q-44 0 -52 -74v-104v-1971z" />
    <glyph glyph-name="integralbt" unicode="&#x2321;" horiz-adv-x="1229" 
d="M542 1737h145v-1811q0 -164 -63 -286q-80 -155 -229 -155q-138 0 -138 109q0 38 25 65t62 27q60 0 99 -61q24 -37 47 -37q44 0 52 74v104v1971z" />
    <glyph glyph-name="SF100000" unicode="&#x2500;" horiz-adv-x="1454" 
d="M1475 534h-1496v175h1496v-175z" />
    <glyph glyph-name="SF110000" unicode="&#x2502;" horiz-adv-x="1270" 
d="M452 -621v2485h175v-2485h-175z" />
    <glyph glyph-name="SF010000" unicode="&#x250c;" horiz-adv-x="1454" 
d="M1476 709v-175h-661v-1155h-175v1330h836z" />
    <glyph glyph-name="SF030000" unicode="&#x2510;" horiz-adv-x="1454" 
d="M639 534h-660v175h835v-1330h-175v1155z" />
    <glyph glyph-name="SF020000" unicode="&#x2514;" horiz-adv-x="1454" 
d="M640 534v1330h175v-1155h661v-175h-836z" />
    <glyph glyph-name="SF040000" unicode="&#x2518;" horiz-adv-x="1454" 
d="M814 534h-835v175h660v1155h175v-1330z" />
    <glyph glyph-name="SF080000" unicode="&#x251c;" horiz-adv-x="1454" 
d="M640 -621v2485h175v-1155h661v-175h-661v-1155h-175z" />
    <glyph glyph-name="SF090000" unicode="&#x2524;" horiz-adv-x="1454" 
d="M639 -621v1155h-660v175h660v1155h175v-2485h-175z" />
    <glyph glyph-name="SF060000" unicode="&#x252c;" horiz-adv-x="1454" 
d="M639 534h-660v175h1496v-175h-661v-1155h-175v1155z" />
    <glyph glyph-name="SF070000" unicode="&#x2534;" horiz-adv-x="1454" 
d="M1475 534h-1496v175h660v1155h175v-1155h661v-175z" />
    <glyph glyph-name="SF050000" unicode="&#x253c;" horiz-adv-x="1454" 
d="M639 534h-660v175h660v1155h175v-1155h661v-175h-661v-1155h-175v1155z" />
    <glyph glyph-name="SF430000" unicode="&#x2550;" horiz-adv-x="1454" 
d="M1475 724h-1496v175h1496v-175zM1475 344h-1496v175h1496v-175z" />
    <glyph glyph-name="SF240000" unicode="&#x2551;" horiz-adv-x="1454" 
d="M830 -621v2485h175v-2485h-175zM450 -621v2485h175v-2485h-175z" />
    <glyph glyph-name="SF510000" unicode="&#x2552;" horiz-adv-x="1454" 
d="M640 -621v1520h836v-175h-661v-205h661v-175h-661v-965h-175z" />
    <glyph glyph-name="SF520000" unicode="&#x2553;" horiz-adv-x="1454" 
d="M450 -621v1330h1026v-175h-471v-1155h-175v1140h-205v-1140h-175z" />
    <glyph glyph-name="SF390000" unicode="&#x2554;" horiz-adv-x="1454" 
d="M625 -621h-175v1520h1025v-175h-850v-1345zM1005 344v-965h-175v1140h645v-175h-470z" />
    <glyph glyph-name="SF220000" unicode="&#x2555;" horiz-adv-x="1454" 
d="M639 344h-660v175h660v205h-660v175h835v-1520h-175v965z" />
    <glyph glyph-name="SF210000" unicode="&#x2556;" horiz-adv-x="1454" 
d="M449 -621v1155h-470v175h1025v-1330h-175v1155h-205v-1155h-175z" />
    <glyph glyph-name="SF250000" unicode="&#x2557;" horiz-adv-x="1454" 
d="M829 -621v1345h-850v175h1025v-1520h-175zM449 344h-470v175h645v-1140h-175v965z" />
    <glyph glyph-name="SF500000" unicode="&#x2558;" horiz-adv-x="1454" 
d="M640 344v1520h175v-965h661v-175h-661v-205h661v-175h-836z" />
    <glyph glyph-name="SF490000" unicode="&#x2559;" horiz-adv-x="1454" 
d="M1475 534h-1025v1330h175v-1155h205v1155h175v-1155h470v-175z" />
    <glyph glyph-name="SF380000" unicode="&#x255a;" horiz-adv-x="1454" 
d="M625 1864v-1345h850v-175h-1025v1520h175zM1005 899h470v-175h-645v1140h175v-965z" />
    <glyph glyph-name="SF280000" unicode="&#x255b;" horiz-adv-x="1454" 
d="M814 344h-835v175h660v205h-660v175h660v965h175v-1520z" />
    <glyph glyph-name="SF270000" unicode="&#x255c;" horiz-adv-x="1454" 
d="M1004 534h-1025v175h470v1155h175v-1155h205v1155h175v-1330z" />
    <glyph glyph-name="SF260000" unicode="&#x255d;" horiz-adv-x="1454" 
d="M829 1864h175v-1520h-1025v175h850v1345zM449 899v965h175v-1140h-645v175h470z" />
    <glyph glyph-name="SF360000" unicode="&#x255e;" horiz-adv-x="1454" 
d="M640 -621v2485h175v-965h661v-175h-661v-205h661v-175h-661v-965h-175z" />
    <glyph glyph-name="SF370000" unicode="&#x255f;" horiz-adv-x="1454" 
d="M830 -621v2485h175v-1155h471v-175h-471v-1155h-175zM450 -621v2485h175v-2485h-175z" />
    <glyph glyph-name="SF420000" unicode="&#x2560;" horiz-adv-x="1454" 
d="M450 -621v2485h175v-2485h-175zM830 724v1140h175v-965h471v-175h-646zM830 -621v1140h646v-175h-471v-965h-175z" />
    <glyph glyph-name="SF190000" unicode="&#x2561;" horiz-adv-x="1454" 
d="M639 344h-660v175h660v205h-660v175h660v965h175v-2485h-175v965z" />
    <glyph glyph-name="SF200000" unicode="&#x2562;" horiz-adv-x="1454" 
d="M449 -621v1155h-470v175h470v1155h175v-2485h-175zM829 -621v2485h175v-2485h-175z" />
    <glyph glyph-name="SF230000" unicode="&#x2563;" horiz-adv-x="1454" 
d="M829 -621v2485h175v-2485h-175zM624 1864v-1140h-645v175h470v965h175zM449 344h-470v175h645v-1140h-175v965z" />
    <glyph glyph-name="SF470000" unicode="&#x2564;" horiz-adv-x="1454" 
d="M1475 724h-1496v175h1496v-175zM639 344h-660v175h1496v-175h-661v-965h-175v965z" />
    <glyph glyph-name="SF480000" unicode="&#x2565;" horiz-adv-x="1454" 
d="M449 -621v1155h-470v175h1496v-175h-471v-1155h-175v1140h-205v-1140h-175z" />
    <glyph glyph-name="SF410000" unicode="&#x2566;" horiz-adv-x="1454" 
d="M1475 724h-1496v175h1496v-175zM449 344h-470v175h645v-1140h-175v965zM829 -621v1140h646v-175h-471v-965h-175z" />
    <glyph glyph-name="SF450000" unicode="&#x2567;" horiz-adv-x="1454" 
d="M1475 724h-1496v175h660v965h175v-965h661v-175zM1475 344h-1496v175h1496v-175z" />
    <glyph glyph-name="SF460000" unicode="&#x2568;" horiz-adv-x="1454" 
d="M1475 534h-1496v175h470v1155h175v-1155h205v1155h175v-1155h471v-175z" />
    <glyph glyph-name="SF400000" unicode="&#x2569;" horiz-adv-x="1454" 
d="M624 724h-645v175h470v965h175v-1140zM1475 724h-646v1140h175v-965h471v-175zM1475 344h-1496v175h1496v-175z" />
    <glyph glyph-name="SF540000" unicode="&#x256a;" horiz-adv-x="1454" 
d="M639 344h-660v175h660v205h-660v175h660v965h175v-965h661v-175h-661v-205h661v-175h-661v-965h-175v965z" />
    <glyph glyph-name="SF530000" unicode="&#x256b;" horiz-adv-x="1454" 
d="M449 -621v1155h-470v175h470v1155h175v-1155h205v1155h175v-1155h471v-175h-471v-1155h-175v1155h-205v-1155h-175z" />
    <glyph glyph-name="SF440000" unicode="&#x256c;" horiz-adv-x="1454" 
d="M1005 899h470v-175h-645v1140h175v-965zM449 899v965h175v-1140h-645v175h470zM449 344h-470v175h645v-1140h-175v965zM1005 344v-965h-175v1140h645v-175h-470z" />
    <glyph glyph-name="upblock" unicode="&#x2580;" horiz-adv-x="1454" 
d="M1475 621h-1496v1243h1496v-1243z" />
    <glyph glyph-name="dnblock" unicode="&#x2584;" horiz-adv-x="1454" 
d="M1475 -621h-1496v1242h1496v-1242z" />
    <glyph glyph-name="block" unicode="&#x2588;" horiz-adv-x="1454" 
d="M-21 -621v2485h1496v-2485h-1496z" />
    <glyph glyph-name="lfblock" unicode="&#x258c;" horiz-adv-x="1454" 
d="M-21 -621v2485h748v-2485h-748z" />
    <glyph glyph-name="rtblock" unicode="&#x2590;" horiz-adv-x="1454" 
d="M727 -621v2485h748v-2485h-748z" />
    <glyph glyph-name="ltshade" unicode="&#x2591;" horiz-adv-x="1454" 
d="M104 1864h125v-125h-125v125zM602 1864h125v-125h-125v125zM1101 1864h125v-125h-125v125zM353 1615h125v-125h-125v125zM852 1615h124v-125h-124v125zM1350 1615h125v-125h-125v125zM1101 1366h125v-125h-125v125zM602 1366h125v-125h-125v125zM104 1366h125v-125h-125
v125zM1350 1116h125v-124h-125v124zM852 1116h124v-124h-124v124zM353 1116h125v-124h-125v124zM104 867h125v-125h-125v125zM602 867h125v-125h-125v125zM1101 867h125v-125h-125v125zM1350 618h125v-125h-125v125zM852 618h124v-125h-124v125zM353 618h125v-125h-125v125z
M104 369h125v-125h-125v125zM602 369h125v-125h-125v125zM1101 369h125v-125h-125v125zM353 119h125v-124h-125v124zM852 119h124v-124h-124v124zM1350 119h125v-124h-125v124zM1101 -130h125v-125h-125v125zM602 -130h125v-125h-125v125zM104 -130h125v-125h-125v125z
M353 -379h125v-125h-125v125zM852 -379h124v-125h-124v125zM1350 -379h125v-125h-125v125z" />
    <glyph glyph-name="shade" unicode="&#x2592;" horiz-adv-x="1451" 
d="M121 1864h120v-125h-120v125zM362 1864h120v-125h-120v125zM603 1864h121v-125h-121v125zM844 1864h121v-125h-121v125zM1086 1864h120v-125h-120v125zM1327 1864h120v-125h-120v125zM0 1615h121v-125h-121v125zM241 1615h121v-125h-121v125zM482 1615h121v-125h-121v125
zM724 1615h120v-125h-120v125zM965 1615h121v-125h-121v125zM1206 1615h121v-125h-121v125zM121 1366h120v-125h-120v125zM362 1366h120v-125h-120v125zM603 1366h121v-125h-121v125zM844 1366h121v-125h-121v125zM1086 1366h120v-125h-120v125zM1327 1366h120v-125h-120
v125zM241 1116h121v-124h-121v124zM482 1116h121v-124h-121v124zM724 1116h120v-124h-120v124zM965 1116h121v-124h-121v124zM1206 1116h121v-124h-121v124zM0 1116h121v-124h-121v124zM121 867h120v-125h-120v125zM362 867h120v-125h-120v125zM603 867h121v-125h-121v125z
M844 867h121v-125h-121v125zM1086 867h120v-125h-120v125zM1327 867h120v-125h-120v125zM0 618h121v-125h-121v125zM482 618h121v-125h-121v125zM724 618h120v-125h-120v125zM965 618h121v-125h-121v125zM1206 618h121v-125h-121v125zM241 618h121v-125h-121v125zM1327 369
h120v-125h-120v125zM1086 369h120v-125h-120v125zM844 369h121v-125h-121v125zM603 369h121v-125h-121v125zM362 369h120v-125h-120v125zM121 369h120v-125h-120v125zM0 119h121v-124h-121v124zM241 119h121v-124h-121v124zM482 119h121v-124h-121v124zM724 119h120v-124
h-120v124zM965 119h121v-124h-121v124zM1206 119h121v-124h-121v124zM1327 -130h120v-125h-120v125zM1086 -130h120v-125h-120v125zM844 -130h121v-125h-121v125zM603 -130h121v-125h-121v125zM362 -130h120v-125h-120v125zM121 -130h120v-125h-120v125zM0 -379h121v-125
h-121v125zM241 -379h121v-125h-121v125zM482 -379h121v-125h-121v125zM724 -379h120v-125h-120v125zM965 -379h121v-125h-121v125zM1206 -379h121v-125h-121v125z" />
    <glyph glyph-name="dkshade" unicode="&#x2593;" horiz-adv-x="1495" 
d="M1495 1490v-374h-124v-124h124v-374h-124v-125h124v-374h-124v-124h124v-374h-124v-125h124v-124h-1495v373h125v125h-125v374h125v125h-125v373h125v125h-125v374h125v125h-125v373h125v125h124v-125h125v125h124v-125h125v125h125v-125h124v125h125v-125h125v125h124
v-125h125v125h124v-249h-124v-125h124zM125 1615v-125h124v125h-124zM374 1615v-125h124v125h-124zM623 1615v-125h125v125h-125zM872 1615v-125h125v125h-125zM1122 1615v-125h124v125h-124zM1371 1366h-125v-125h125v125zM1122 1366h-125v-125h125v125zM872 1366h-124
v-125h124v125zM623 1366h-125v-125h125v125zM374 1366h-125v-125h125v125zM125 1116v-124h124v124h-124zM374 1116v-124h124v124h-124zM623 1116v-124h125v124h-125zM872 1116v-124h125v124h-125zM1122 1116v-124h124v124h-124zM374 867h-125v-125h125v125zM498 867v-125
h125v125h-125zM748 867v-125h124v125h-124zM997 867v-125h125v125h-125zM1246 867v-125h125v125h-125zM125 618v-125h124v125h-124zM623 618v-125h125v125h-125zM498 493v125h-124v-125h124zM872 618v-125h125v125h-125zM1122 618v-125h124v125h-124zM1371 244v125h-125
v-125h125zM1122 244v125h-125v-125h125zM872 244v125h-124v-125h124zM623 244v125h-125v-125h125zM374 244v125h-125v-125h125zM125 119v-124h124v124h-124zM374 119v-124h124v124h-124zM623 119v-124h125v124h-125zM872 119v-124h125v124h-125zM1122 119v-124h124v124h-124
zM1371 -255v125h-125v-125h125zM1122 -255v125h-125v-125h125zM872 -255v125h-124v-125h124zM623 -255v125h-125v-125h125zM374 -255v125h-125v-125h125zM125 -379v-125h124v125h-124zM374 -379v-125h124v125h-124zM623 -379v-125h125v125h-125zM872 -379v-125h125v125h-125
zM1122 -379v-125h124v125h-124z" />
    <glyph glyph-name="filledbox" unicode="&#x25a0;" horiz-adv-x="1229" 
d="M142 944h944v-944h-944v944z" />
    <glyph glyph-name="H22073" unicode="&#x25a1;" horiz-adv-x="1237" 
d="M146 944h944v-944h-944v944zM222 868v-792h792v792h-792z" />
    <glyph glyph-name="H18543" unicode="&#x25aa;" horiz-adv-x="726" 
d="M594 909v-464h-463v463z" />
    <glyph glyph-name="H18551" unicode="&#x25ab;" horiz-adv-x="726" 
d="M594 909v-464h-463v463zM518 833l-311 -1v-311h311v312z" />
    <glyph glyph-name="filledrect" unicode="&#x25ac;" horiz-adv-x="2048" 
d="M0 703h2047v-386h-2047v386z" />
    <glyph glyph-name="triagup" unicode="&#x25b2;" horiz-adv-x="2027" 
d="M304 0l710 1419l710 -1419h-1420z" />
    <glyph glyph-name="triagrt" unicode="&#x25ba;" horiz-adv-x="2027" 
d="M288 1417l1451 -724l-1451 -724v1448z" />
    <glyph glyph-name="triagdn" unicode="&#x25bc;" horiz-adv-x="2027" 
d="M1724 1388l-710 -1419l-710 1419h1420z" />
    <glyph glyph-name="triaglf" unicode="&#x25c4;" horiz-adv-x="2027" 
d="M1739 1417v-1448l-1451 724z" />
    <glyph glyph-name="lozenge" unicode="&#x25ca;" horiz-adv-x="1012" 
d="M549 1422l418 -713l-418 -709h-111l-391 709l391 713h111zM495 1325l-340 -616l340 -615l359 615z" />
    <glyph glyph-name="circle" unicode="&#x25cb;" horiz-adv-x="1229" 
d="M1055 578q0 -183 -128.5 -312t-311.5 -129t-312 129t-129 312t128.5 311.5t311.5 128.5q184 0 312.5 -128t128.5 -312zM979 578q0 152 -106 258t-258 106q-151 0 -258 -106.5t-107 -257.5t107 -258t258 -107t257.5 107t106.5 258z" />
    <glyph glyph-name="H18533" unicode="&#x25cf;" horiz-adv-x="1237" 
d="M619 1018q183 0 311.5 -128.5t128.5 -311.5t-128.5 -312t-311.5 -129t-312 129t-129 312q0 185 128 312.5t313 127.5z" />
    <glyph glyph-name="invbullet" unicode="&#x25d8;" horiz-adv-x="1229" 
d="M124 0v980h980v-980h-980zM816 490q0 84 -59 143t-143 59t-143 -59t-59 -143t59 -143t143 -59t143 59t59 143z" />
    <glyph glyph-name="invcircle" unicode="&#x25d9;" horiz-adv-x="1229" 
d="M38 0v1155h1155v-1155h-1155zM1056 577q0 182 -129 311.5t-311 129.5q-183 0 -312 -129t-129 -312q0 -184 128.5 -312t312.5 -128q182 0 311 129t129 311zM980 577q0 -151 -106.5 -257.5t-257.5 -106.5q-152 0 -258.5 106t-106.5 258t106.5 258.5t258.5 106.5t258 -106.5
t106 -258.5z" />
    <glyph glyph-name="openbullet" unicode="&#x25e6;" horiz-adv-x="726" 
d="M363 928q105 0 178 -73t73 -178t-73 -178t-178 -73t-178 73t-73 178q0 104 73.5 177.5t177.5 73.5zM363 852q-73 0 -124 -51t-51 -124t51 -124t124 -51t124 51t51 124t-51 124t-124 51z" />
    <glyph glyph-name="smileface" unicode="&#x263a;" horiz-adv-x="2089" 
d="M1682 519q0 -264 -186.5 -451t-450.5 -187q-266 0 -452 186t-186 452q0 264 187 450.5t451 186.5t450.5 -186.5t186.5 -450.5zM1590 519q0 225 -159.5 384.5t-385.5 159.5t-385.5 -159t-159.5 -385q0 -227 159 -386t386 -159q226 0 385.5 159.5t159.5 385.5zM881 650
q0 -34 -23.5 -57.5t-57.5 -23.5q-33 0 -57 24t-24 57q0 34 23.5 57.5t57.5 23.5t57.5 -23.5t23.5 -57.5zM1370 650q0 -34 -23.5 -57.5t-57.5 -23.5q-33 0 -57 24t-24 57q0 34 23.5 57.5t57.5 23.5t57.5 -23.5t23.5 -57.5zM751 313l62 36q79 -144 232 -144t231 144l63 -36
q-104 -195 -294 -195q-191 0 -294 195z" />
    <glyph glyph-name="invsmileface" unicode="&#x263b;" horiz-adv-x="2150" 
d="M1713 519q0 -264 -186.5 -451t-450.5 -187q-266 0 -452 186t-186 452q0 264 187 450.5t451 186.5t450.5 -186.5t186.5 -450.5zM912 650q0 34 -23.5 57.5t-57.5 23.5t-57.5 -23.5t-23.5 -57.5q0 -33 24 -57t57 -24q34 0 57.5 23.5t23.5 57.5zM1401 650q0 34 -23.5 57.5
t-57.5 23.5t-57.5 -23.5t-23.5 -57.5q0 -33 24 -57t57 -24q34 0 57.5 23.5t23.5 57.5zM782 313q103 -195 294 -195q190 0 294 195l-63 36q-78 -144 -231 -144t-232 144z" />
    <glyph glyph-name="sun" unicode="&#x263c;" horiz-adv-x="1884" 
d="M905 1621h76v-337q191 -7 350 -140l287 283l54 -55l-286 -286q141 -174 143 -353h336v-69h-336q-14 -191 -143 -351l286 -289l-54 -51l-287 280q-167 -125 -350 -139v-337h-76v337q-204 25 -347 139l-294 -280l-49 51l284 289q-125 152 -144 351h-336v69h336
q14 199 144 353l-284 286l49 55l294 -283q178 130 347 140v337zM1453 699q0 212 -150.5 362t-362.5 150t-362 -150t-150 -362t150 -362.5t362 -150.5t362.5 150.5t150.5 362.5z" />
    <glyph glyph-name="female" unicode="&#x2640;" horiz-adv-x="1126" 
d="M589 481v-365h417v-54h-417v-399h-54v399h-418v54h418v365q-108 0 -214 65q-100 62 -160 157q-74 115 -74 253q0 198 139 337t337 139q197 0 336.5 -139.5t139.5 -336.5q0 -191 -129.5 -326.5t-320.5 -148.5zM990 955q0 178 -124.5 302t-302.5 124q-177 0 -302 -124.5
t-125 -301.5t125 -302t302 -125t302 125t125 302z" />
    <glyph glyph-name="male" unicode="&#x2642;" horiz-adv-x="1372" 
d="M1111 1372l29 -10q35 -359 161 -615l-25 -16q-149 188 -222 415l-295 -635q125 -48 208.5 -172t83.5 -258q0 -190 -136 -308q-130 -112 -323 -112q-198 0 -340 128q-146 133 -146 329q0 183 127 313.5t310 130.5q76 0 170 -33l293 636q-214 -90 -457 -104v26
q165 51 292 119q79 42 270 166zM535 516q-161 0 -273.5 -114t-112.5 -276q0 -161 114.5 -273t276.5 -112q159 0 272 111t113 270q0 161 -114.5 277.5t-275.5 116.5z" />
    <glyph glyph-name="spade" unicode="&#x2660;" horiz-adv-x="1085" 
d="M544 1231q27 -121 99 -221q53 -73 169 -178q107 -97 145 -147q72 -94 72 -189q0 -92 -63.5 -156.5t-155.5 -64.5q-155 0 -255 190q0 -413 378 -428l7 -37h-792l7 37q184 0 284 105t100 290q0 11 -1 33q-90 -190 -261 -190q-91 0 -155.5 64.5t-64.5 155.5q0 151 189 306
q261 214 298 430z" />
    <glyph glyph-name="club" unicode="&#x2663;" horiz-adv-x="1352" 
d="M1102 0h-848l8 34q148 32 201 59q84 44 144 148q61 108 58 228l-1 42q-48 -104 -130 -168q-91 -70 -198 -70q-117 0 -197 81.5t-80 198.5q0 106 67 188q71 87 175 87q63 0 163 -51q-67 107 -67 182q0 116 80 194t196 78q114 0 196.5 -77t82.5 -190q0 -94 -69 -187
q106 53 162 53q108 0 179 -84q68 -79 68 -189q0 -117 -79 -200t-195 -83q-201 0 -332 237q7 -289 171 -395q78 -51 237 -82z" />
    <glyph glyph-name="heart" unicode="&#x2665;" horiz-adv-x="1208" 
d="M606 -24q-40 154 -153 326q-42 64 -215 292q-88 116 -121 174q-58 106 -58 201q0 110 73.5 185.5t183.5 75.5q206 0 290 -251q30 110 99 177q78 75 186 75q105 0 181.5 -72.5t76.5 -177.5q0 -115 -69 -239q-42 -76 -145 -206q-285 -359 -329 -560z" />
    <glyph glyph-name="diamond" unicode="&#x2666;" horiz-adv-x="1045" 
d="M520 1231q193 -323 461 -627q-106 -106 -247 -301q-131 -180 -214 -327q-101 190 -457 628q324 383 457 627z" />
    <glyph glyph-name="musicalnote" unicode="&#x266a;" horiz-adv-x="1577" 
d="M925 1535h60q127 -77 330 -273q238 -228 238 -321q0 -19 -20.5 -46t-38.5 -27q-27 0 -63 44q-69 85 -206 203q-133 114 -231 175l26 -1374q2 -120 -71 -193q-86 -85 -238 -140q-144 -52 -271 -52q-163 0 -281 80q-134 91 -134 247q0 178 185 296q162 103 350 103
q192 0 396 -94z" />
    <glyph glyph-name="musicalnotedbl" unicode="&#x266b;" horiz-adv-x="2048" 
d="M832 1195l934 291v-1301q0 -130 -28 -199q-36 -89 -134 -143q-88 -48 -201 -48q-128 0 -202 67q-78 70 -78 196q0 129 99 211q93 76 225 76q84 0 200 -50v850l-699 -217v-981q0 -124 -26 -194q-34 -89 -125 -145.5t-216 -56.5q-123 0 -198 69q-79 71 -79 192
q0 132 97 214q91 78 226 78q95 0 205 -54v1145z" />
    <glyph glyph-name="apple" unicode="&#xf000;" horiz-adv-x="1621" 
 />
    <glyph glyph-name="fi" unicode="&#xf001;" 
d="M522 1062h182v-298h-182v-764h-370v764h-132v298h132v48q0 187 68 273q86 108 288 108q78 0 283 -23l-45 -245q-72 10 -103 10q-73 0 -99 -38q-22 -31 -22 -109v-24zM871 1466h371v-277h-371v277zM871 1062h371v-1062h-371v1062z" />
    <glyph glyph-name="fl" unicode="&#xf002;" 
d="M522 1062h182v-298h-182v-764h-370v764h-132v298h132v48q0 187 68 273q86 108 288 108q78 0 283 -23l-45 -245q-72 10 -103 10q-73 0 -99 -38q-22 -31 -22 -109v-24zM871 1466h371v-1466h-371v1466z" />
    <glyph glyph-name="commaaccent" unicode="&#xf004;" horiz-adv-x="682" 
d="M206 -121h270v-196q0 -111 -49 -175q-44 -60 -150 -106l-71 104q121 54 122 137h-122v236z" />
    <glyph glyph-name="undercommaaccent" unicode="&#xf005;" horiz-adv-x="682" 
d="M116 -165l30 118q94 23 176 23q301 0 301 -195q0 -126 -135 -181q-76 -31 -202 -31q-114 0 -268 26v123q104 -20 221 -20q147 0 147 83q0 71 -103 71q-71 0 -167 -17z" />
    <glyph glyph-name="pi1" unicode="&#xf006;" horiz-adv-x="1408" 
d="M51 1063h1331v-202h-169v-861h-288v861h-415v-861h-292v861h-167v202z" />
    <glyph glyph-name="noGamma" unicode="&#xf100;" horiz-adv-x="683" 
 />
    <glyph glyph-name="noTheta" unicode="&#xf101;" horiz-adv-x="683" 
 />
    <glyph glyph-name="noPhi" unicode="&#xf102;" horiz-adv-x="683" 
 />
    <glyph glyph-name="noalpha" unicode="&#xf103;" horiz-adv-x="683" 
 />
    <glyph glyph-name="nodelta" unicode="&#xf104;" horiz-adv-x="683" 
 />
    <glyph glyph-name="noepsilon" unicode="&#xf105;" horiz-adv-x="683" 
 />
    <glyph glyph-name="nosigma" unicode="&#xf106;" horiz-adv-x="683" 
 />
    <glyph glyph-name="notau" unicode="&#xf107;" horiz-adv-x="683" 
 />
    <glyph glyph-name="nophi" unicode="&#xf108;" horiz-adv-x="683" 
 />
    <glyph glyph-name="glyph651" horiz-adv-x="683" 
 />
    <glyph glyph-name="glyph652" horiz-adv-x="683" 
 />
    </font>
</defs>
</svg>
