<svg xmlns="http://www.w3.org/2000/svg" width="20" height="20" viewBox="0 0 20 20"><g><g><path fill="#ffcb0e" d="M15.227 8.598a.744.744 0 1 1-1.487 0 .744.744 0 0 1 1.487 0z"/></g><g><path fill="#ffcb0e" d="M16.193 2.278h-.966v-.743a.743.743 0 0 0-1.488 0v.743h-3.382v-.743a.743.743 0 0 0-1.487 0v.743H5.524v-.743a.743.743 0 0 0-1.487 0v.743h-.929A2.978 2.978 0 0 0 .133 5.253v11.598a2.977 2.977 0 0 0 2.975 2.974h5.687a.744.744 0 1 0 0-1.487H3.108c-.82 0-1.487-.667-1.487-1.487V5.253c0-.82.667-1.488 1.487-1.488h.93v.743a.744.744 0 1 0 1.486 0v-.743H8.87v.743a.743.743 0 1 0 1.487 0v-.743h3.382v.743a.744.744 0 1 0 1.488 0v-.743h.966c.82 0 1.487.667 1.487 1.488V9.49a.744.744 0 1 0 1.487 0V5.253a2.977 2.977 0 0 0-2.974-2.975z"/></g><g><path fill="#ffcb0e" d="M14.67 10.829a4.503 4.503 0 0 1 4.497 4.498 4.503 4.503 0 0 1-4.498 4.498 4.504 4.504 0 0 1-4.499-4.498 4.504 4.504 0 0 1 4.5-4.498zm0 7.509a3.015 3.015 0 0 0 3.01-3.011 3.015 3.015 0 0 0-3.01-3.011 3.014 3.014 0 0 0-3.012 3.01c0 1.66 1.35 3.012 3.011 3.012z"/></g><g><path fill="#ffcb0e" d="M15.747 14.583h-.334v-.78a.744.744 0 0 0-1.487 0v1.524c0 .41.333.743.743.743h1.078a.744.744 0 1 0 0-1.487z"/></g><g><path fill="#ffcb0e" d="M11.993 8.598a.744.744 0 1 1-1.488 0 .744.744 0 0 1 1.488 0z"/></g><g><path fill="#ffcb0e" d="M8.758 11.832a.744.744 0 1 1-1.487 0 .744.744 0 0 1 1.487 0z"/></g><g><path fill="#ffcb0e" d="M5.524 8.598a.744.744 0 1 1-1.487 0 .744.744 0 0 1 1.487 0z"/></g><g><path fill="#ffcb0e" d="M5.524 11.832a.744.744 0 1 1-1.487 0 .744.744 0 0 1 1.487 0z"/></g><g><path fill="#ffcb0e" d="M5.524 15.066a.744.744 0 1 1-1.487 0 .744.744 0 0 1 1.487 0z"/></g><g><path fill="#ffcb0e" d="M8.758 15.066a.744.744 0 1 1-1.487 0 .744.744 0 0 1 1.487 0z"/></g><g><path fill="#ffcb0e" d="M8.758 8.598a.743.743 0 1 1-1.487 0 .743.743 0 0 1 1.487 0z"/></g></g></svg>