<svg xmlns="http://www.w3.org/2000/svg" width="57" height="62" viewBox="0 0 57 62"><g><g><path fill="#231f20" d="M42.13 48.002a1.215 1.215 0 1 0-.002 2.43 1.215 1.215 0 0 0 .002-2.43z"/></g><g><path fill="#231f20" d="M45.122 44.07c6.717 2.242 11.592 9.312 11.592 16.815 0 .67-.544 1.215-1.216 1.215H2.022a1.215 1.215 0 0 1-1.215-1.215c0-7.503 4.875-14.573 11.591-16.814l5.778-1.924L20.25 38a11.667 11.667 0 0 1-.536-.576 13.193 13.193 0 0 1-2.039-3.157h-1.068a3.65 3.65 0 0 1-3.645-3.646v-1.425a3.65 3.65 0 0 1-2.43-3.436v-7.657c0-10.076 8.151-18.231 18.23-18.231 10.051 0 18.23 8.179 18.23 18.23v7.658a3.65 3.65 0 0 1-3.646 3.645h-2.212l-.259 1.55c-.438 2.625-1.735 5.142-3.603 7.043l2.074 4.148zM44.56 19.32h-2.466l-.006.209a79.404 79.404 0 0 1-.598 7.448h1.855c.67 0 1.215-.545 1.215-1.215zm-28.529 7.657a78.874 78.874 0 0 1-.59-7.261V19.7a16.62 16.62 0 0 1-.013-.382h-2.467v6.442c0 .67.545 1.215 1.215 1.215zm.795 4.86a13.32 13.32 0 0 1-.18-.88l-.259-1.55h-.996v1.216c0 .67.545 1.215 1.215 1.215zM15.393 16.89c.087-6.713 5.554-12.155 12.28-12.155h2.175c6.726 0 12.192 5.442 12.28 12.155h2.385c-.622-8.147-7.45-14.585-15.752-14.585-8.34 0-15.139 6.439-15.754 14.585zm12.28-9.724c-5.105 0-9.288 3.912-9.797 8.86a10.996 10.996 0 0 1 8.454-3.998c.322 0 .631.127.86.356 2.95 2.95 6.85 4.9 10.98 5.49l1.52.217v-.012c.005-.303.01-.636.01-1.018.002-5.44-4.406-9.895-9.853-9.895zM22.89 31.837a3.651 3.651 0 0 1 3.44-2.431h2.431a3.65 3.65 0 0 1 3.645 3.647 3.644 3.644 0 0 1-3.645 3.645h-2.43a3.652 3.652 0 0 1-3.439-2.43h-2.477c1.405 2.355 3.582 3.998 5.957 4.59a9.878 9.878 0 0 0 4.778 0c3.802-.95 6.683-4.441 7.327-8.301.224-1.354.311-1.838.422-2.592l.001-.002a74.42 74.42 0 0 0 .714-7.428l-1.789-.256a21.98 21.98 0 0 1-11.976-5.807 8.554 8.554 0 0 0-6.326 3.388l-1.636 2.182c.155 3.816.851 9.772 1.46 11.795zm5.71 11.855l2.148-2.271a12.27 12.27 0 0 1-4.521-.102zm-6.798-3.362l-1.449 2.896a46.215 46.215 0 0 0 2.722 6.309l3.854-4.076zm8.517 5.08l4.126 4.127a46.114 46.114 0 0 0 2.722-6.311l-1.654-3.307zm-5.205-12.357c0 .67.545 1.215 1.216 1.215h2.431a1.215 1.215 0 0 0 0-2.431h-2.43c-.672 0-1.217.545-1.217 1.216zm1.457 26.616l-1.495-2.4a48.663 48.663 0 0 1-3.326-5.08l-.007-.013a48.711 48.711 0 0 1-3.459-7.503l-5.116 1.704c-5.393 1.799-9.4 7.27-9.88 13.292zm2.19-1.083c1.732-2.78 1.648-2.653 1.708-2.733a46.472 46.472 0 0 0 2.747-4.108l-4.567-4.567-4.335 4.584a46.66 46.66 0 0 0 2.74 4.092.87.87 0 0 1 .058.086zm25.473 1.083c-.48-6.021-4.488-11.493-9.88-13.292l-5.117-1.704a48.717 48.717 0 0 1-3.423 7.439l-.002.004c-.006.01-.01.022-.018.032a48.494 48.494 0 0 1-3.35 5.12l-1.495 2.4z"/></g><g><path fill="#231f20" d="M50.582 54.75a12.168 12.168 0 0 0-3.44-4.177 1.215 1.215 0 1 0-1.483 1.927 9.708 9.708 0 0 1 2.748 3.337 1.216 1.216 0 0 0 2.175-1.086z"/></g></g></svg>