<?xml version="1.0" encoding="UTF-8"?>
<svg width="60px" height="60px" viewBox="0 0 60 60" version="1.1" xmlns="http://www.w3.org/2000/svg" xmlns:xlink="http://www.w3.org/1999/xlink">
    <!-- Generator: Sketch 50.2 (55047) - http://www.bohemiancoding.com/sketch -->
    <title>001-conveyor</title>
    <desc>Created with Sketch.</desc>
    <defs></defs>
    <g id="WIP" stroke="none" stroke-width="1" fill="none" fill-rule="evenodd">
        <g id="Dich-Vu" transform="translate(-323.000000, -539.000000)" fill="#1E2022" fill-rule="nonzero">
            <g id="Services-Copy-2" transform="translate(166.000000, 513.000000)">
                <g id="Group-7">
                    <g id="Item">
                        <g id="Group">
                            <g id="Item" transform="translate(55.000000, 26.000000)">
                                <g id="001-conveyor" transform="translate(102.000000, 0.000000)">
                                    <path d="M45.2419355,30.2583871 L48.4751613,27.0241935 L41.6322581,20.1812903 L38.3980645,23.4145161 C37.2696774,22.7912903 36.0754839,22.3045161 34.8377419,21.9474194 L34.8377419,17.4609677 C37.9635484,15.7790323 39.6764516,13.0170968 39.6764516,9.62516129 C39.6764516,5.5383871 37.083871,1.87548387 33.2254839,0.509032258 L31.9354839,0.0522580645 L31.9354839,7.95967742 L30,8.60516129 L28.0645161,7.95967742 L28.0645161,0.0522580645 L26.7735484,0.509032258 C22.9151613,1.87548387 20.3225806,5.5383871 20.3225806,9.62516129 C20.3225806,13.0170968 22.0354839,15.7790323 25.1612903,17.4609677 L25.1612903,21.9474194 C23.9235484,22.3054839 22.7293548,22.7912903 21.6009677,23.4145161 L18.3667742,20.1812903 L11.523871,27.0241935 L14.7570968,30.2583871 C14.1329032,31.3877419 13.6383871,32.58 13.2812903,33.8187097 L8.70967742,33.8187097 L8.70967742,43.496129 L13.2812903,43.496129 C13.6393548,44.7348387 14.1329032,45.9270968 14.7570968,47.0564516 L11.523871,50.2906452 L18.3667742,57.1335484 L21.6009677,53.9003226 C22.7303226,54.5245161 23.9225806,55.0190323 25.1612903,55.376129 L25.1612903,59.9477419 L34.8387097,59.9477419 L34.8387097,55.376129 C36.0774194,55.0180645 37.2696774,54.5245161 38.3990323,53.9003226 L41.6332258,57.1335484 L48.476129,50.2906452 L45.2429032,47.0564516 C45.8670968,45.9270968 46.3616129,44.7348387 46.7187097,43.496129 L51.2903226,43.496129 L51.2903226,33.8187097 L46.7187097,33.8187097 C46.3606452,32.58 45.8670968,31.3877419 45.2419355,30.2583871 Z M22.2580645,9.62516129 C22.2580645,6.83709677 23.7687097,4.29483871 26.1290323,2.92935484 L26.1290323,9.35516129 L30,10.6451613 L33.8709677,9.35516129 L33.8709677,2.92935484 C36.2312903,4.29483871 37.7419355,6.83709677 37.7419355,9.62516129 C37.7419355,12.4635484 36.2603226,14.6651613 33.4567742,15.9919355 L32.9032258,16.2541935 L32.9032258,31.8832258 L34.8387097,31.8832258 L34.8387097,30.2709677 C37.8183871,31.98 39.6774194,35.133871 39.6774194,38.6574194 C39.6774194,42.2303226 37.7264516,45.3493548 34.8387097,47.0254839 L34.8387097,33.8187097 L32.9032258,33.8187097 L32.9032258,47.8887097 C31.9858065,48.1780645 31.0112903,48.3348387 30,48.3348387 C28.9887097,48.3348387 28.0141935,48.1780645 27.0967742,47.8887097 L27.0967742,16.2541935 L26.5432258,15.9919355 C23.7396774,14.6651613 22.2580645,12.4635484 22.2580645,9.62516129 Z M49.3548387,41.5606452 L45.2129032,41.5606452 L45.033871,42.3009677 C44.6574194,43.8580645 44.0429032,45.3416129 43.2058065,46.7090323 L42.8080645,47.3593548 L45.7393548,50.2896774 L41.6332258,54.3958065 L38.7029032,51.4645161 L38.0525806,51.8622581 C36.6841935,52.6993548 35.2016129,53.313871 33.6445161,53.6903226 L32.9032258,53.8703226 L32.9032258,58.0122581 L27.0967742,58.0122581 L27.0967742,53.8703226 L26.3564516,53.6912903 C24.7993548,53.3148387 23.3158065,52.7003226 21.9483871,51.8632258 L21.2980645,51.4654839 L18.3677419,54.3967742 L14.2616129,50.2906452 L17.1929032,47.3603226 L16.7951613,46.71 C15.9580645,45.3416129 15.3435484,43.8590323 14.9670968,42.3019355 L14.7870968,41.5606452 L10.6451613,41.5606452 L10.6451613,35.7541935 L14.7870968,35.7541935 L14.966129,35.013871 C15.3425806,33.4567742 15.9570968,31.9732258 16.7941935,30.6058065 L17.1919355,29.9554839 L14.2606452,27.0251613 L18.3667742,22.9190323 L21.2970968,25.8503226 L21.9474194,25.4525806 C22.9606452,24.8322581 24.0377419,24.3358065 25.1603226,23.9670968 L25.1603226,28.1051613 C21.0251613,29.9951613 18.386129,34.0635484 18.386129,38.6583871 C18.386129,45.0619355 23.5954839,50.2712903 29.9990323,50.2712903 C36.4025806,50.2712903 41.6119355,45.0619355 41.6119355,38.6583871 C41.6119355,34.0625806 38.9729032,29.9941935 34.8377419,28.1051613 L34.8377419,23.9670968 C35.9603226,24.3367742 37.0374194,24.8332258 38.0506452,25.4525806 L38.7009677,25.8503226 L41.6312903,22.9190323 L45.7374194,27.0251613 L42.806129,29.9554839 L43.203871,30.6058065 C44.0409677,31.9741935 44.6554839,33.4567742 45.0319355,35.013871 L45.2129032,35.7541935 L49.3548387,35.7541935 L49.3548387,41.5606452 Z M25.1612903,30.2719355 L25.1612903,47.0254839 C22.2735484,45.3493548 20.3225806,42.2303226 20.3225806,38.6574194 C20.3225806,35.1348387 22.1816129,31.9809677 25.1612903,30.2719355 Z" id="Shape"></path>
                                    <path d="M3.87096774,47.5451613 L3.87096774,12.5283871 C3.87096774,11.9951613 4.30548387,11.5606452 4.83870968,11.5606452 L12.7587097,11.5606452 C13.1593548,12.6841935 14.223871,13.496129 15.483871,13.496129 C17.0845161,13.496129 18.3870968,12.1935484 18.3870968,10.5929032 C18.3870968,8.99225806 17.0845161,7.68967742 15.483871,7.68967742 C14.223871,7.68967742 13.1593548,8.5016129 12.7587097,9.62516129 L4.83870968,9.62516129 C3.23806452,9.62516129 1.93548387,10.9277419 1.93548387,12.5283871 L1.93548387,47.5451613 C0.811935484,47.9458065 0,49.0103226 0,50.2703226 C0,51.8709677 1.30258065,53.1735484 2.90322581,53.1735484 C4.50387097,53.1735484 5.80645161,51.8709677 5.80645161,50.2703226 C5.80645161,49.0103226 4.99451613,47.9458065 3.87096774,47.5451613 Z M15.483871,9.62516129 C16.0170968,9.62516129 16.4516129,10.0596774 16.4516129,10.5929032 C16.4516129,11.126129 16.0170968,11.5606452 15.483871,11.5606452 C14.9506452,11.5606452 14.516129,11.126129 14.516129,10.5929032 C14.516129,10.0596774 14.9506452,9.62516129 15.483871,9.62516129 Z M2.90322581,51.2380645 C2.37,51.2380645 1.93548387,50.8035484 1.93548387,50.2703226 C1.93548387,49.7370968 2.37,49.3025806 2.90322581,49.3025806 C3.43645161,49.3025806 3.87096774,49.7370968 3.87096774,50.2703226 C3.87096774,50.8035484 3.43645161,51.2380645 2.90322581,51.2380645 Z" id="Shape"></path>
                                    <rect id="Rectangle-path" x="5.80645161" y="13.496129" width="1.93548387" height="1.93548387"></rect>
                                    <rect id="Rectangle-path" x="5.80645161" y="17.3670968" width="1.93548387" height="1.93548387"></rect>
                                    <rect id="Rectangle-path" x="5.80645161" y="21.2380645" width="1.93548387" height="1.93548387"></rect>
                                    <path d="M58.0645161,47.5451613 L58.0645161,12.5283871 C58.0645161,10.9277419 56.7619355,9.62516129 55.1612903,9.62516129 L47.2412903,9.62516129 C46.8406452,8.5016129 45.776129,7.68967742 44.516129,7.68967742 C42.9154839,7.68967742 41.6129032,8.99225806 41.6129032,10.5929032 C41.6129032,12.1935484 42.9154839,13.496129 44.516129,13.496129 C45.776129,13.496129 46.8406452,12.6841935 47.2412903,11.5606452 L55.1612903,11.5606452 C55.6945161,11.5606452 56.1290323,11.9951613 56.1290323,12.5283871 L56.1290323,47.5451613 C55.0054839,47.9458065 54.1935484,49.0103226 54.1935484,50.2703226 C54.1935484,51.8709677 55.496129,53.1735484 57.0967742,53.1735484 C58.6974194,53.1735484 60,51.8709677 60,50.2703226 C60,49.0103226 59.1880645,47.9458065 58.0645161,47.5451613 Z M44.516129,11.5606452 C43.9829032,11.5606452 43.5483871,11.126129 43.5483871,10.5929032 C43.5483871,10.0596774 43.9829032,9.62516129 44.516129,9.62516129 C45.0493548,9.62516129 45.483871,10.0596774 45.483871,10.5929032 C45.483871,11.126129 45.0493548,11.5606452 44.516129,11.5606452 Z M57.0967742,51.2380645 C56.5635484,51.2380645 56.1290323,50.8035484 56.1290323,50.2703226 C56.1290323,49.7370968 56.5635484,49.3025806 57.0967742,49.3025806 C57.63,49.3025806 58.0645161,49.7370968 58.0645161,50.2703226 C58.0645161,50.8035484 57.63,51.2380645 57.0967742,51.2380645 Z" id="Shape"></path>
                                    <rect id="Rectangle-path" x="52.2580645" y="13.496129" width="1.93548387" height="1.93548387"></rect>
                                    <rect id="Rectangle-path" x="52.2580645" y="17.3670968" width="1.93548387" height="1.93548387"></rect>
                                    <rect id="Rectangle-path" x="52.2580645" y="21.2380645" width="1.93548387" height="1.93548387"></rect>
                                    <rect id="Rectangle-path" x="29.0322581" y="44.463871" width="1.93548387" height="1.93548387"></rect>
                                    <rect id="Rectangle-path" x="29.0322581" y="40.5929032" width="1.93548387" height="1.93548387"></rect>
                                    <rect id="Rectangle-path" x="29.0322581" y="36.7219355" width="1.93548387" height="1.93548387"></rect>
                                </g>
                            </g>
                        </g>
                    </g>
                </g>
            </g>
        </g>
    </g>
</svg>