<svg xmlns="http://www.w3.org/2000/svg" xmlns:xlink="http://www.w3.org/1999/xlink" width="15" height="13" viewBox="0 0 15 13"><defs><path id="wttma" d="M368.11 338.11h1.45v-1.44h-1.45zm0-2.89h1.45v-1.44h-1.45zm-2.89 4.34v-1.45h1.45v-1.44h-1.45v-1.45h1.45v-1.44h-1.45v-1.45H371v7.23zm-2.89-10.12h1.45v1.45h-1.45zm0 2.9h1.45v1.44h-1.45zm0 2.88h1.45v1.45h-1.45zm0 2.9h1.45v1.44h-1.45zm-2.89-8.68h1.45v1.45h-1.45zm0 2.9h1.45v1.44h-1.45zm0 2.88h1.45v1.45h-1.45zm0 2.9h1.45v1.44h-1.45zm5.78-10.12H358v13h14.44v-10.11h-7.22z"/></defs><g><g transform="translate(-358 -328)"><use fill="#ffc40b" xlink:href="#wttma"/></g></g></svg>