<svg xmlns="http://www.w3.org/2000/svg" xmlns:xlink="http://www.w3.org/1999/xlink" width="13" height="15" viewBox="0 0 13 15"><defs><path id="kdfea" d="M727.56 654.99v-7.94h-10.12v7.94zm0-11.55c.79 0 1.44.65 1.44 1.45v10.1c0 .79-.65 1.44-1.44 1.44h-10.12c-.8 0-1.44-.65-1.44-1.44v-10.1c0-.8.64-1.45 1.44-1.45h.73V642h1.44v1.44h5.78V642h1.44v1.44zm-1.45 5.05v1.45h-1.44v-1.45zm-2.89 0v1.45h-1.44v-1.45zm-2.89 0v1.45h-1.44v-1.45z"/></defs><g><g transform="translate(-716 -642)"><use fill="#ffc40b" xlink:href="#kdfea"/></g></g></svg>