<svg xmlns="http://www.w3.org/2000/svg" xmlns:xlink="http://www.w3.org/1999/xlink" width="15" height="13" viewBox="0 0 15 13"><defs><path id="gg54a" d="M701.11 638.11h1.45v-1.44h-1.45zm0-2.89h1.45v-1.44h-1.45zm-2.89 4.34v-1.45h1.45v-1.44h-1.45v-1.45h1.45v-1.44h-1.45v-1.45H704v7.23zm-2.89-10.12h1.45v1.45h-1.45zm0 2.9h1.45v1.44h-1.45zm0 2.88h1.45v1.45h-1.45zm0 2.9h1.45v1.44h-1.45zm-2.89-8.68h1.45v1.45h-1.45zm0 2.9h1.45v1.44h-1.45zm0 2.88h1.45v1.45h-1.45zm0 2.9h1.45v1.44h-1.45zm5.78-10.12H691v13h14.44v-10.11h-7.22z"/></defs><g><g transform="translate(-691 -628)"><use fill="#ffc40b" xlink:href="#gg54a"/></g></g></svg>