<?xml version="1.0" encoding="UTF-8"?>
<svg width="60px" height="60px" viewBox="0 0 60 60" version="1.1" xmlns="http://www.w3.org/2000/svg" xmlns:xlink="http://www.w3.org/1999/xlink">
    <!-- Generator: Sketch 50.2 (55047) - http://www.bohemiancoding.com/sketch -->
    <title>Shape</title>
    <desc>Created with Sketch.</desc>
    <defs></defs>
    <g id="WIP" stroke="none" stroke-width="1" fill="none" fill-rule="evenodd">
        <g id="Dich-Vu-Copy-3" transform="translate(-692.000000, -539.000000)" fill="#1E2022" fill-rule="nonzero">
            <g id="Services-Copy-2" transform="translate(166.000000, 513.000000)">
                <g id="Group-7">
                    <g id="Item-Copy-6" transform="translate(369.000000, 0.000000)">
                        <g id="Group">
                            <g id="Item-Copy-3" transform="translate(55.000000, 26.000000)">
                                <g id="002-crane" transform="translate(102.000000, 0.000000)">
                                    <path d="M58.9144467,21.2479678 C59.4478068,21.2479678 59.8802414,20.8155332 59.8802414,20.282173 L59.8802414,10.6242254 C59.8777062,10.3391952 59.7472032,10.0704628 59.524829,9.89215292 L59.5325553,9.88152918 L47.9430181,0.223581489 C47.7694165,0.079195171 47.550664,0.000362173038 47.3249095,0.000482897384 L33.8037827,0.000482897384 C33.6469618,0.000362173038 33.4925553,0.0385110664 33.3537223,0.111549296 L15.2151308,9.65843058 L0.966760563,9.65843058 C0.433400402,9.65843058 0.000965794769,10.0908652 0.000965794769,10.6242254 L0.000965794769,20.282173 C0.000965794769,20.8155332 0.433400402,21.2479678 0.966760563,21.2479678 L2.8983501,21.2479678 L2.8983501,36.837827 C0.832515091,37.3711871 -0.409738431,39.4783099 0.12362173,41.5441449 C0.656981891,43.6099799 2.76410463,44.8522334 4.82993964,44.3188732 C6.89577465,43.7855131 8.13802817,41.6783903 7.60466801,39.6125553 C7.25336016,38.2517505 6.19074447,37.1891348 4.82993964,36.837827 L4.82993964,21.2479678 L34.7695775,21.2479678 L34.7695775,36.7006841 L25.1116298,36.7006841 L25.1116298,33.8032998 C25.1116298,33.2699396 24.6791952,32.837505 24.145835,32.837505 L10.6247082,32.837505 C10.0913481,32.837505 9.65891348,33.2699396 9.65891348,33.8032998 L9.65891348,46.3586318 L0.966760563,46.3586318 C0.433400402,46.3586318 0.000965794769,46.7910664 0.000965794769,47.3244266 L0.000965794769,58.9139638 C0.000965794769,59.4473239 0.433400402,59.8797586 0.966760563,59.8797586 L14.4878873,59.8797586 C14.5895372,59.8756539 14.6899799,59.855493 14.7853521,59.8198793 L14.7853521,59.8797586 L58.9144467,59.8797586 C59.4478068,59.8797586 59.8802414,59.4473239 59.8802414,58.9139638 L59.8802414,55.0507847 C59.8802414,54.5174245 59.4478068,54.0849899 58.9144467,54.0849899 L57.9486519,54.0849899 L57.9486519,51.1876056 C57.9486519,50.6542455 57.5162173,50.2218109 56.9828571,50.2218109 L49.256499,50.2218109 C48.7231388,50.2218109 48.2907042,50.6542455 48.2907042,51.1876056 L48.2907042,54.0849899 L46.3591147,54.0849899 L46.3591147,21.2479678 L58.9144467,21.2479678 Z M6.76152918,57.948169 L1.93255533,57.948169 L1.93255533,52.1534004 L6.76152918,52.1534004 L6.76152918,57.948169 Z M13.5220926,57.948169 L8.69311871,57.948169 L8.69311871,52.1534004 L13.5220926,52.1534004 L13.5220926,57.948169 Z M13.5220926,50.2218109 L1.93255533,50.2218109 L1.93255533,48.2902213 L13.5220926,48.2902213 L13.5220926,50.2218109 Z M13.5220926,46.3586318 L11.590503,46.3586318 L11.590503,38.6322736 L13.5220926,38.6322736 L13.5220926,46.3586318 Z M13.5220926,36.7006841 L11.590503,36.7006841 L11.590503,34.7690946 L13.5220926,34.7690946 L13.5220926,36.7006841 Z M23.1800402,57.948169 L15.4536821,57.948169 L15.4536821,56.0165795 L23.1800402,56.0165795 L23.1800402,57.948169 Z M23.1800402,54.0849899 L15.4536821,54.0849899 L15.4536821,47.3244266 L15.4536821,38.6322736 L23.1800402,38.6322736 L23.1800402,54.0849899 Z M23.1800402,36.7006841 L15.4536821,36.7006841 L15.4536821,34.7690946 L23.1800402,34.7690946 L23.1800402,36.7006841 Z M57.9486519,19.3163783 L51.5879276,19.3163783 L57.9486519,12.9556539 L57.9486519,19.3163783 Z M48.85666,19.3163783 L46.3591147,19.3163783 L46.3591147,17.3847887 L47.3249095,17.3847887 C47.8582696,17.3847887 48.2907042,16.9523541 48.2907042,16.418994 L48.2907042,11.5900201 L56.5830181,11.5900201 L48.85666,19.3163783 Z M43.4617304,1.93207243 L46.9752918,1.93207243 L56.2469215,9.65843058 L48.2907042,9.65843058 L48.2907042,6.76104628 C48.2907042,6.22768612 47.8582696,5.79525151 47.3249095,5.79525151 L43.4617304,5.79525151 L43.4617304,1.93207243 Z M39.5985513,1.93207243 L41.5301408,1.93207243 L41.5301408,5.79525151 L39.5985513,5.79525151 L39.5985513,1.93207243 Z M1.93255533,17.9507445 L1.93255533,11.5900201 L8.29327968,11.5900201 L1.93255533,17.9507445 Z M5.79573441,40.5638632 C5.79573441,41.6307042 4.93098592,42.4954527 3.86414487,42.4954527 C2.79730382,42.4954527 1.93255533,41.6307042 1.93255533,40.5638632 C1.93255533,39.4970221 2.79730382,38.6322736 3.86414487,38.6322736 C4.93098592,38.6322736 5.79573441,39.4970221 5.79573441,40.5638632 Z M9.65891348,19.3163783 L3.29818913,19.3163783 L9.65891348,12.9556539 L9.65891348,19.3163783 Z M11.590503,11.5900201 L17.9512274,11.5900201 L11.590503,17.9507445 L11.590503,11.5900201 Z M19.3168612,19.3163783 L12.9561368,19.3163783 L19.3168612,12.9556539 L19.3168612,19.3163783 Z M34.042334,1.93207243 L37.6669618,1.93207243 L37.6669618,5.79525151 C35.0589537,5.79875252 32.6856338,7.3021328 31.5679678,9.65843058 L19.3622535,9.65843058 L34.042334,1.93207243 Z M21.2484507,11.5900201 L27.6091751,11.5900201 L21.2484507,17.9507445 L21.2484507,11.5900201 Z M22.6140845,19.3163783 L30.3404427,11.5900201 L30.983662,11.5900201 C30.9348893,11.9096982 30.9090543,12.2323944 30.9063984,12.5558149 L30.9063984,16.418994 C30.9063984,16.9523541 31.338833,17.3847887 31.8721932,17.3847887 L34.7695775,17.3847887 L34.7695775,19.3163783 L22.6140845,19.3163783 Z M25.1116298,38.6322736 L34.7695775,38.6322736 L34.7695775,40.5638632 L25.1116298,40.5638632 L25.1116298,38.6322736 Z M34.7695775,42.4954527 L34.7695775,54.0849899 L32.8379879,54.0849899 L32.8379879,48.2902213 L32.8379879,42.4954527 L34.7695775,42.4954527 Z M28.9748089,55.0507847 L28.9748089,57.948169 L25.1116298,57.948169 L25.1116298,42.4954527 L30.9063984,42.4954527 L30.9063984,44.4270423 L27.0432193,44.4270423 L27.0432193,46.3586318 L30.9063984,46.3586318 L30.9063984,48.2902213 L27.0432193,48.2902213 L27.0432193,50.2218109 L30.9063984,50.2218109 L30.9063984,54.0849899 L29.9406036,54.0849899 C29.4071227,54.0849899 28.9748089,54.5174245 28.9748089,55.0507847 Z M50.2222938,52.1534004 L56.0170624,52.1534004 L56.0170624,54.0849899 L50.2222938,54.0849899 L50.2222938,52.1534004 Z M57.9486519,56.0165795 L57.9486519,57.948169 L30.9063984,57.948169 L30.9063984,56.0165795 L57.9486519,56.0165795 Z M43.0618913,17.3847887 L36.701167,23.7455131 L36.701167,17.3847887 L43.0618913,17.3847887 Z M40.5643461,15.4531992 L40.5643461,11.5900201 L42.4959356,11.5900201 L42.4959356,15.4531992 L40.5643461,15.4531992 Z M44.4275252,18.7504225 L44.4275252,25.1111469 L38.0668008,25.1111469 L44.4275252,18.7504225 Z M43.0618913,27.0427364 L36.701167,33.4034608 L36.701167,27.0427364 L43.0618913,27.0427364 Z M44.4275252,28.4083702 L44.4275252,34.7690946 L38.0668008,34.7690946 L44.4275252,28.4083702 Z M43.0618913,36.7006841 L36.701167,43.0614085 L36.701167,36.7006841 L43.0618913,36.7006841 Z M44.4275252,38.0663179 L44.4275252,44.4270423 L38.0668008,44.4270423 L44.4275252,38.0663179 Z M43.0618913,46.3586318 L36.701167,52.7193561 L36.701167,46.3586318 L43.0618913,46.3586318 Z M44.4275252,47.7242656 L44.4275252,54.0849899 L38.0668008,54.0849899 L44.4275252,47.7242656 Z M44.4275252,15.4531992 L44.4275252,10.6242254 C44.4275252,10.0908652 43.9950905,9.65843058 43.4617304,9.65843058 L39.5985513,9.65843058 C39.0651911,9.65843058 38.6327565,10.0908652 38.6327565,10.6242254 L38.6327565,15.4531992 L32.8379879,15.4531992 L32.8379879,12.5558149 C32.8411268,9.89022133 35.0013682,7.72997988 37.6669618,7.72684105 L38.6327565,7.72684105 L46.3591147,7.72684105 L46.3591147,15.4531992 L44.4275252,15.4531992 Z" id="Shape"></path>
                                </g>
                            </g>
                        </g>
                    </g>
                </g>
            </g>
        </g>
    </g>
</svg>