<?xml version="1.0" encoding="UTF-8"?>
<svg width="60px" height="60px" viewBox="0 0 60 60" version="1.1" xmlns="http://www.w3.org/2000/svg" xmlns:xlink="http://www.w3.org/1999/xlink">
    <!-- Generator: Sketch 50.2 (55047) - http://www.bohemiancoding.com/sketch -->
    <title>Shape</title>
    <desc>Created with Sketch.</desc>
    <defs></defs>
    <g id="WIP" stroke="none" stroke-width="1" fill="none" fill-rule="evenodd">
        <g id="Dich-Vu-Copy-3" transform="translate(-1063.000000, -539.000000)" fill="#1E2022" fill-rule="nonzero">
            <g id="Services-Copy-2" transform="translate(166.000000, 513.000000)">
                <g id="Group-7">
                    <g id="Item-Copy-7" transform="translate(739.000000, 0.000000)">
                        <g id="Group">
                            <g id="Item-Copy-4" transform="translate(12.000000, 26.000000)">
                                <g id="003-engineer" transform="translate(146.000000, 0.000000)">
                                    <path d="M56.9554762,49.7610714 C50.9917857,46.5985714 46.417381,44.8252381 42.345119,44.1453571 L42.7665476,43.5659524 C42.9664286,43.3660714 43.0663095,43.0663095 42.9664286,42.7665476 L42.03,39.0209524 C44.5066667,35.5197619 45.9640476,31.142619 45.9640476,26.9789286 L45.9640476,22.9820238 L46.9632143,22.9820238 L48.9616667,22.9820238 C49.5611905,22.9820238 49.9608333,22.582381 49.9608333,21.9828571 C49.9608333,21.3833333 49.5611905,20.9836905 48.9616667,20.9836905 L47.9625,20.9836905 L47.9625,19.9845238 C47.9625,12.0907143 42.7665476,5.39595238 34.972619,3.19761905 L34.972619,2.99761905 C34.972619,1.39880952 33.6736905,0 31.975,0 L27.9780952,0 C26.3792857,0 24.9804762,1.29892857 24.9804762,2.99761905 L24.9804762,3.1975 C17.1865476,5.39583333 11.9905952,12.0905952 11.9905952,19.9844048 L11.9905952,20.9835714 L10.9914286,20.9835714 C10.3919048,20.9835714 9.9922619,21.3832143 9.9922619,21.9827381 C9.9922619,22.5822619 10.3919048,22.9819048 10.9914286,22.9819048 L12.989881,22.9819048 L13.9890476,22.9819048 L13.9890476,26.9788095 C13.9890476,31.1425 15.4464286,35.5196429 17.9230952,39.0209524 L16.9866667,42.7665476 C16.9866667,42.9664286 16.9866667,43.3660714 17.1865476,43.5659524 L17.6079762,44.1453571 C13.5358333,44.8253571 8.96130952,46.5985714 2.99761905,49.7610714 C1.09916667,50.6604762 0,52.5589286 0,54.6572619 L0,58.9539286 C0,59.5534524 0.399642857,59.9530952 0.999166667,59.9530952 L24.9804762,59.9530952 L25.380119,59.9530952 L34.5729762,59.9530952 L34.972619,59.9530952 L58.9539286,59.9530952 C59.5534524,59.9530952 59.9530952,59.5534524 59.9530952,58.9539286 L59.9530952,54.6572619 C59.9532143,52.6588095 58.7540476,50.7603571 56.9554762,49.7610714 Z M29.377381,48.8361905 L29.9822619,47.4752381 L31.4757143,50.7609524 L32.4525,52.9585714 L27.5785714,52.9585714 L29.377381,48.8361905 Z M26.8190476,54.9570238 L33.1265476,54.9570238 L33.6975,57.9546429 L26.2195238,57.9546429 L26.8190476,54.9570238 Z M40.4683333,40.9679762 L40.8679762,42.7665476 L39.8472619,44.1680952 C39.7821429,44.2213095 39.7219048,44.2858333 39.6689286,44.3652381 L35.5127381,50.12 L34.1939286,51.9308333 L31.500119,45.8697619 C34.720119,45.4770238 37.5945238,43.8605952 39.9160714,41.537619 C39.9417857,41.5121429 39.967619,41.4869048 39.9932143,41.4611905 C39.9994048,41.454881 40.0055952,41.4485714 40.0117857,41.4422619 C40.1657143,41.2878571 40.3179762,41.13 40.4683333,40.9679762 Z M39.1665476,7.30821429 C39.2775,7.38202381 39.3875,7.45702381 39.4963095,7.53345238 C40.77,8.48261905 41.9457143,9.59452381 42.8665476,10.7915476 L38.270119,11.6908333 L39.1665476,7.30821429 Z M21.6830952,11.6908333 L17.0866667,10.7915476 C18.0075,9.59440476 19.1833333,8.4825 20.4570238,7.53333333 C20.5657143,7.45702381 20.6757143,7.38202381 20.7866667,7.30821429 L21.6830952,11.6908333 Z M13.9890476,19.9844048 C13.9890476,17.3254762 14.6584524,14.8170238 15.87,12.624881 L22.7822619,13.9891667 C22.8821429,13.9891667 22.8821429,13.9891667 22.9821429,13.9891667 C23.2819048,13.9891667 23.4817857,13.8892857 23.7815476,13.7892857 C24.0813095,13.5894048 24.1811905,13.1897619 24.0813095,12.89 L22.7095238,6.21380952 C23.4320238,5.86619048 24.1902381,5.56761905 24.9805952,5.32214286 L24.9805952,7.99380952 C24.9805952,8.59333333 25.3802381,8.99297619 25.9797619,8.99297619 C26.5792857,8.99297619 26.9789286,8.59333333 26.9789286,7.99380952 L26.9789286,3.99690476 L26.9789286,2.99761905 C26.9789286,2.49797619 27.3785714,1.99845238 27.9780952,1.99845238 L31.975,1.99845238 C32.4746429,1.99845238 32.9741667,2.39809524 32.9741667,2.99761905 L32.9741667,3.99678571 L32.9741667,7.99369048 C32.9741667,8.59321429 33.3738095,8.99285714 33.9733333,8.99285714 C34.5728571,8.99285714 34.9725,8.59321429 34.9725,7.99369048 L34.9725,5.32214286 C35.7891667,5.57571429 36.5719048,5.88571429 37.3159524,6.24821429 L35.9717857,12.790119 C35.9717857,13.089881 36.0716667,13.4895238 36.2715476,13.6894048 C36.4714286,13.8892857 36.6711905,13.9891667 36.9709524,13.9891667 C37.0708333,13.9891667 37.0708333,13.9891667 37.1708333,13.9891667 L44.0383333,12.5433333 C45.2783333,14.7547619 45.9639286,17.292619 45.9639286,19.9844048 L45.9639286,20.9835714 L44.9647619,20.9835714 L14.9883333,20.9835714 L13.9890476,20.9835714 L13.9891667,19.9844048 L13.9890476,19.9844048 Z M15.987381,22.9820238 L43.9655952,22.9820238 L43.9655952,26.9789286 C43.9655952,31.3359524 42.4709524,35.2077381 40.2269048,38.1507143 L40.1685714,38.170119 C40.0686905,38.27 39.9686905,38.37 39.8688095,38.469881 C39.3660714,39.1402381 38.8354762,39.7514286 38.2810714,40.3025 C35.9283333,42.4944048 33.1220238,43.8220238 30.4179762,43.9535714 C30.2819048,43.895119 30.1292857,43.8657143 29.9765476,43.8657143 C29.8229762,43.8657143 29.6845238,43.8958333 29.5603571,43.954881 C27.905119,43.8789286 26.2110714,43.3542857 24.6052381,42.4567857 C22.9784524,41.5221429 21.4480952,40.1747619 20.0841667,38.469881 C19.9842857,38.37 19.8842857,38.27 19.7844048,38.170119 L19.7260714,38.1507143 C17.4820238,35.207619 15.987381,31.3358333 15.987381,26.9789286 L15.987381,22.9820238 Z M28.4529762,45.87 L25.7591667,51.9310714 L24.4403571,50.1202381 L20.2841667,44.3654762 C20.252381,44.3336905 20.2171429,44.3021429 20.1807143,44.2710714 L19.085119,42.7666667 L19.4847619,40.9680952 C19.6202381,41.1139286 19.757619,41.2560714 19.8963095,41.3959524 C22.2420238,43.794881 25.167619,45.4692857 28.4529762,45.87 Z M1.99845238,54.6572619 C1.99845238,53.3583333 2.69785714,52.1591667 3.89702381,51.5596429 C10.2661905,48.1759524 14.8511905,46.4777381 18.9354762,45.9704762 L24.8983333,54.1692857 L24.1413095,57.9545238 L1.99845238,57.9545238 L1.99845238,54.6572619 Z M57.9547619,57.9547619 L35.8120238,57.9547619 L35.055,54.1695238 L41.082381,45.8819048 C45.152381,46.4960714 49.8194048,48.1929762 56.0561905,51.459881 C57.2552381,52.1592857 57.9547619,53.3584524 57.9547619,54.657381 L57.9547619,57.9547619 Z" id="Shape"></path>
                                </g>
                            </g>
                        </g>
                    </g>
                </g>
            </g>
        </g>
    </g>
</svg>