<svg xmlns="http://www.w3.org/2000/svg" xmlns:xlink="http://www.w3.org/1999/xlink" width="12" height="12" viewBox="0 0 12 12"><defs><path id="gd35a" d="M360.41 417.2a10.1 10.1 0 0 0 4.4 4.39l1.46-1.47a.66.66 0 0 1 .68-.16 7.6 7.6 0 0 0 2.38.38c.37 0 .67.3.67.67v2.32c0 .37-.3.67-.67.67A11.33 11.33 0 0 1 358 412.67c0-.37.3-.67.67-.67H361c.37 0 .67.3.67.67 0 .83.13 1.63.38 2.38.07.23.02.49-.17.68l-1.47 1.46"/></defs><g><g transform="translate(-358 -412)"><use fill="#ffc40b" xlink:href="#gd35a"/></g></g></svg>